{
.appVersion = "3151";
.formatVersion = 3;
DisplayStrings = (
"/backslash -–—_(){}[]“”‘’\"'@&©°|$+−×÷=><≈~^%",
"]",
"&",
"©",
"↗",
"↗",
"↓"
);
axes = (
{
name = Scribble;
tag = SCRI;
},
{
name = Scrabble;
tag = SCRA;
}
);
date = "2023-03-09 14:25:56 +0000";
familyName = "GD Caffeine";
fontMaster = (
{
axesValues = (
0,
0
);
id = m01;
metricValues = (
{
over = 16;
pos = 800;
},
{
over = 16;
pos = 700;
},
{
over = 16;
pos = 300;
},
{
over = -16;
},
{
over = -16;
pos = -200;
},
{
over = -16;
}
);
name = Regular;
userData = {
GSOffsetHorizontal = 5;
GSOffsetKeepCompatible = 1;
GSOffsetVertical = 5;
};
},
{
axesValues = (
100,
0
);
id = "4FA42A6D-6079-488C-BBF5-0F13D00932C7";
metricValues = (
{
over = 16;
pos = 800;
},
{
over = 16;
pos = 700;
},
{
over = 16;
pos = 300;
},
{
over = -16;
},
{
over = -16;
pos = -200;
},
{
over = -16;
}
);
name = Scribble;
userData = {
GSOffsetHorizontal = -20;
GSOffsetKeepCompatible = 1;
GSOffsetVertical = -20;
};
},
{
axesValues = (
0,
100
);
id = "2CBB5782-2C08-483D-96E9-15912637AE76";
metricValues = (
{
over = 16;
pos = 800;
},
{
over = 16;
pos = 700;
},
{
over = 16;
pos = 300;
},
{
over = -16;
},
{
over = -16;
pos = -200;
},
{
over = -16;
}
);
name = Scrabble;
userData = {
GSOffsetHorizontal = -20;
GSOffsetKeepCompatible = 1;
GSOffsetVertical = -20;
};
},
{
axesValues = (
100,
100
);
id = "5563113E-3DD8-48BA-8230-66BC42B26329";
metricValues = (
{
over = 16;
pos = 800;
},
{
over = 16;
pos = 700;
},
{
over = 16;
pos = 300;
},
{
over = -16;
},
{
over = -16;
pos = -200;
},
{
over = -16;
}
);
name = Scrobble;
userData = {
GSOffsetHorizontal = -5;
GSOffsetKeepCompatible = 1;
GSOffsetVertical = -20;
};
}
);
glyphs = (
{
glyphname = A;
lastChange = "2023-03-09 22:09:46 +0000";
layers = (
{
layerId = m01;
shapes = (
{
closed = 1;
nodes = (
(440,-56,o),
(454,-56,o),
(454,-47,cs),
(454,-40,o),
(441,-38,o),
(434,-34,cs),
(428,-30,o),
(413,-19,o),
(402,-2,cs),
(380,32,o),
(369,48,o),
(361,84,cs),
(348,145,o),
(348,210,o),
(342,272,cs),
(338,314,o),
(342,320,o),
(383,326,cs),
(428,332,o),
(473,342,o),
(519,342,cs),
(524,342,o),
(535,347,o),
(535,353,cs),
(535,358,o),
(524,361,o),
(520,361,cs),
(472,361,o),
(424,360,o),
(375,354,cs),
(338,350,o),
(336,347,o),
(337,385,cs),
(340,479,o),
(321,568,o),
(299,659,cs),
(295,676,o),
(300,707,o),
(274,706,cs),
(263,706,o),
(249,678,o),
(242,660,cs),
(208,570,o),
(176,481,o),
(142,390,cs),
(129,355,o),
(114,322,o),
(75,309,cs),
(62,305,o),
(51,293,o),
(65,281,cs),
(85,264,o),
(77,250,o),
(69,234,cs),
(39,172,o),
(8,109,o),
(-21,46,cs),
(-28,32,o),
(-35,16,o),
(-40,0,cs),
(-42,-9,o),
(-44,-28,o),
(-35,-28,cs),
(-26,-28,o),
(-12,-25,o),
(-5,-19,cs),
(4,-11,o),
(10,1,o),
(14,12,cs),
(18,23,o),
(15,35,o),
(20,46,cs),
(52,114,o),
(84,180,o),
(118,247,cs),
(123,258,o),
(136,268,o),
(148,271,cs),
(190,280,o),
(232,288,o),
(275,296,cs),
(308,303,o),
(309,303,o),
(309,268,cs),
(309,238,o),
(307,210,o),
(309,180,cs),
(312,111,o),
(328,45,o),
(368,-13,cs),
(384,-36,o),
(402,-56,o),
(438,-56,cs)
);
},
{
closed = 1;
nodes = (
(161,307,o),
(151,307,o),
(158,327,cs),
(259,602,ls),
(262,609,o),
(262,621,o),
(269,621,cs),
(277,621,o),
(277,608,o),
(278,601,cs),
(296,488,o),
(302,524,o),
(302,384,cs),
(302,337,o),
(303,337,o),
(256,327,cs),
(229,321,o),
(202,315,o),
(174,310,cs)
);
}
);
width = 495;
},
{
layerId = "4FA42A6D-6079-488C-BBF5-0F13D00932C7";
shapes = (
{
closed = 1;
nodes = (
(392,-6,o),
(437,-6,o),
(441,11,cs),
(444,19,o),
(408,37,o),
(425,29,c),
(427,28,o),
(417,37,o),
(412,54,cs),
(403,86,o),
(399,100,o),
(402,134,cs),
(409,197,o),
(428,262,o),
(441,322,cs),
(449,366,o),
(451,368,o),
(479,377,cs),
(523,391,o),
(561,405,o),
(595,409,cs),
(614,413,o),
(627,427,o),
(627,430,cs),
(626,444,o),
(595,448,o),
(587,444,c),
(546,439,o),
(505,432,o),
(465,421,c),
(464,420,o),
(464,420,o),
(469,436,cs),
(500,535,o),
(509,624,o),
(518,711,cs),
(519,728,o),
(523,745,o),
(520,756,c),
(474,787,o),
(451,744,o),
(432,713,cs),
(376,614,o),
(324,520,o),
(269,426,cs),
(247,386,o),
(226,353,o),
(197,338,cs),
(181,331,o),
(159,317,o),
(174,297,cs),
(183,286,o),
(174,273,o),
(164,259,cs),
(119,189,o),
(74,121,o),
(33,56,cs),
(21,38,o),
(11,21,o),
(3,6,cs),
(-7,-14,o),
(-14,-37,o),
(22,-34,c),
(15,-36,o),
(51,-29,o),
(61,-18,cs),
(76,-4,o),
(84,9,o),
(89,16,cs),
(97,32,o),
(99,44,o),
(103,51,cs),
(151,128,o),
(198,199,o),
(244,268,cs),
(252,282,o),
(263,292,o),
(268,293,cs),
(309,309,o),
(346,322,o),
(382,334,c),
(577,411,o),
(428,507,o),
(373,320,cs),
(364,288,o),
(353,259,o),
(347,231,cs),
(329,158,o),
(323,93,o),
(340,38,cs),
(350,6,o),
(372,-12,o),
(415,-4,c)
);
},
{
closed = 1;
nodes = (
(268,350,o),
(292,337,o),
(301,354,cs),
(466,646,ls),
(471,654,o),
(481,666,o),
(467,664,c),
(503,668,o),
(446,664,o),
(444,655,cs),
(426,542,o),
(442,580,o),
(401,438,cs),
(385,378,o),
(355,378,o),
(355,378,c),
(328,368,o),
(306,359,o),
(284,352,c)
);
}
);
width = 495;
},
{
layerId = "5563113E-3DD8-48BA-8230-66BC42B26329";
shapes = (
{
closed = 1;
nodes = (
(244,127,o),
(270,125,o),
(270,142,cs),
(270,149,o),
(261,168,o),
(252,168,cs),
(251,168,o),
(241,178,o),
(236,193,c),
(224,221,o),
(219,232,o),
(220,254,c),
(220,292,o),
(232,331,o),
(238,371,c),
(240,384,o),
(240,384,o),
(258,379,c),
(295,366,o),
(332,357,o),
(367,341,c),
(377,336,o),
(397,337,o),
(403,347,c),
(410,360,o),
(397,371,o),
(386,376,c),
(348,392,o),
(309,409,o),
(267,422,c),
(226,437,o),
(257,449,o),
(253,438,c),
(272,495,o),
(273,556,o),
(272,619,c),
(272,627,o),
(272,657,o),
(252,666,c),
(235,675,o),
(213,661,o),
(200,647,c),
(157,605,o),
(116,564,o),
(73,521,c),
(56,505,o),
(45,495,o),
(19,501,c),
(-2,504,o),
(-28,491,o),
(-10,466,cs),
(-5,458,o),
(-16,452,o),
(-23,447,c),
(-58,419,o),
(-84,400,o),
(-117,373,c),
(-127,366,o),
(-137,356,o),
(-143,349,c),
(-152,337,o),
(-155,320,o),
(-136,312,c),
(-127,308,o),
(-111,305,o),
(-102,306,c),
(-90,309,o),
(-79,315,o),
(-73,322,c),
(-68,327,o),
(-63,339,o),
(-63,339,cs),
(-25,370,o),
(12,399,o),
(48,425,c),
(51,427,o),
(57,428,o),
(64,426,c),
(97,418,o),
(132,408,o),
(169,397,c),
(198,390,o),
(182,392,o),
(180,385,c),
(175,368,o),
(168,351,o),
(164,331,cs),
(154,287,o),
(155,240,o),
(177,189,c),
(185,168,o),
(200,147,o),
(233,132,c)
);
},
{
closed = 1;
nodes = (
(91,468,o),
(93,456,o),
(97,460,cs),
(228,591,ls),
(231,594,o),
(222,593,o),
(220,594,c),
(213,596,o),
(213,596,o),
(213,592,c),
(208,531,o),
(193,474,o),
(195,457,cs),
(197,438,o),
(180,445,o),
(168,448,c),
(146,454,o),
(122,460,o),
(99,466,c)
);
}
);
width = 495;
},
{
layerId = "2CBB5782-2C08-483D-96E9-15912637AE76";
shapes = (
{
closed = 1;
nodes = (
(334,-237,o),
(370,-237,o),
(370,-228,cs),
(370,-227,o),
(354,-219,o),
(347,-213,c),
(348,-213,o),
(334,-201,o),
(319,-173,cs),
(299,-138,o),
(289,-119,o),
(280,-79,cs),
(267,-18,o),
(267,45,o),
(262,107,cs),
(258,148,o),
(258,148,o),
(285,145,cs),
(328,138,o),
(362,139,o),
(414,125,c),
(416,124,o),
(448,130,o),
(448,137,c),
(448,137,o),
(432,143,o),
(428,145,cs),
(386,156,o),
(339,167,o),
(287,174,cs),
(242,181,o),
(257,201,o),
(257,218,cs),
(260,306,o),
(242,395,o),
(220,491,cs),
(216,511,o),
(226,531,o),
(190,540,cs),
(175,543,o),
(150,516,o),
(142,498,cs),
(108,415,o),
(77,337,o),
(46,263,cs),
(31,227,o),
(24,207,o),
(-4,206,cs),
(-25,205,o),
(-43,198,o),
(-27,180,cs),
(-7,156,o),
(-19,137,o),
(-23,131,cs),
(-52,79,o),
(-86,19,o),
(-109,-28,cs),
(-118,-43,o),
(-125,-56,o),
(-129,-67,cs),
(-134,-83,o),
(-135,-87,o),
(-120,-91,cs),
(-113,-94,o),
(-90,-92,o),
(-82,-87,cs),
(-63,-75,o),
(-59,-69,o),
(-56,-60,cs),
(-51,-50,o),
(-55,-37,o),
(-51,-29,cs),
(-16,35,o),
(15,90,o),
(44,140,cs),
(50,151,o),
(50,151,o),
(59,151,cs),
(95,149,o),
(134,146,o),
(181,143,cs),
(212,141,o),
(206,139,o),
(206,103,cs),
(206,74,o),
(204,48,o),
(206,19,cs),
(209,-48,o),
(223,-111,o),
(264,-181,cs),
(277,-203,o),
(292,-227,o),
(336,-238,cs)
);
},
{
closed = 1;
nodes = (
(86,183,o),
(75,186,o),
(83,207,cs),
(181,447,ls),
(189,467,o),
(163,463,o),
(169,459,c),
(175,461,o),
(175,442,o),
(177,433,cs),
(200,277,o),
(200,277,o),
(200,217,cs),
(200,176,o),
(200,176,o),
(172,178,cs),
(150,179,o),
(124,180,o),
(93,182,cs)
);
}
);
width = 495;
}
);
unicode = 65;
},
{
glyphname = B;
lastChange = "2023-03-09 22:03:50 +0000";
layers = (
{
layerId = m01;
shapes = (
{
closed = 1;
nodes = (
(322,-49,o),
(439,17,o),
(476,128,cs),
(499,195,o),
(485,247,o),
(436,280,cs),
(394,308,o),
(346,316,o),
(298,309,cs),
(290,308,o),
(273,304,o),
(278,309,cs),
(283,314,o),
(285,320,o),
(289,325,cs),
(322,369,o),
(361,408,o),
(386,454,cs),
(409,496,o),
(401,544,o),
(367,583,cs),
(288,674,o),
(187,711,o),
(69,696,cs),
(40,692,o),
(11,678,o),
(-14,662,cs),
(-38,647,o),
(-46,602,o),
(-34,578,cs),
(-29,569,o),
(-22,558,o),
(-11,558,cs),
(-2,558,o),
(-8,577,o),
(-9,585,cs),
(-15,623,o),
(-10,635,o),
(25,648,cs),
(43,655,o),
(63,660,o),
(82,662,cs),
(164,670,o),
(234,641,o),
(301,596,cs),
(366,552,o),
(379,495,o),
(331,434,cs),
(294,388,o),
(247,346,o),
(207,300,cs),
(199,291,o),
(192,278,o),
(192,266,cs),
(192,254,o),
(214,261,o),
(226,261,cs),
(270,261,o),
(316,276,o),
(358,273,cs),
(422,268,o),
(458,226,o),
(450,171,cs),
(436,73,o),
(319,-24,o),
(213,-5,cs),
(181,1,o),
(161,22,o),
(155,56,cs),
(132,184,o),
(159,314,o),
(159,443,cs),
(159,454,o),
(156,483,o),
(186,463,cs),
(191,459,o),
(198,474,o),
(198,480,cs),
(198,525,o),
(189,569,o),
(165,611,cs),
(160,620,o),
(154,632,o),
(144,632,cs),
(133,632,o),
(132,612,o),
(132,602,cs),
(132,467,o),
(120,331,o),
(112,170,cs),
(111,140,o),
(115,86,o),
(123,33,cs),
(129,-11,o),
(176,-49,o),
(221,-49,cs)
);
}
);
width = 507;
},
{
layerId = "4FA42A6D-6079-488C-BBF5-0F13D00932C7";
shapes = (
{
closed = 1;
nodes = (
(360,188,o),
(445,260,o),
(482,375,cs),
(502,435,o),
(481,507,o),
(453,514,cs),
(419,523,o),
(403,519,o),
(360,499,c),
(351,483,o),
(342,466,o),
(334,451,c),
(349,447,o),
(344,454,o),
(349,455,c),
(369,485,o),
(384,499,o),
(417,565,cs),
(436,606,o),
(422,680,o),
(403,693,cs),
(330,745,o),
(281,741,o),
(185,697,c),
(174,690,o),
(161,680,o),
(125,645,cs),
(105,626,o),
(101,530,o),
(101,523,cs),
(101,516,o),
(116,510,o),
(127,513,cs),
(134,515,o),
(136,535,o),
(128,567,c),
(125,577,o),
(137,576,o),
(153,587,c),
(153,587,o),
(165,594,o),
(195,607,cs),
(248,630,o),
(311,629,o),
(355,617,cs),
(397,606,o),
(397,606,o),
(376,574,cs),
(360,551,o),
(326,511,o),
(286,454,cs),
(288,457,o),
(275,419,o),
(275,405,cs),
(275,367,o),
(275,367,o),
(300,375,cs),
(325,384,o),
(345,401,o),
(396,417,cs),
(449,431,o),
(464,420,o),
(463,414,cs),
(456,368,o),
(381,284,o),
(290,267,cs),
(262,261,o),
(249,270,o),
(248,264,c),
(231,343,o),
(251,396,o),
(251,499,cs),
(251,503,o),
(251,503,o),
(276,498,c),
(275,520,o),
(279,543,o),
(279,550,cs),
(279,593,o),
(265,645,o),
(251,658,c),
(250,667,o),
(250,677,o),
(240,673,cs),
(235,671,o),
(231,624,o),
(231,615,cs),
(231,528,o),
(222,436,o),
(217,323,cs),
(216,299,o),
(220,251,o),
(226,222,cs),
(232,178,o),
(246,149,o),
(296,166,cs)
);
}
);
width = 507;
},
{
layerId = "5563113E-3DD8-48BA-8230-66BC42B26329";
shapes = (
{
closed = 1;
nodes = (
(239,-14,o),
(329,84,o),
(358,186,cs),
(375,246,o),
(366,281,o),
(327,287,cs),
(296,292,o),
(258,278,o),
(220,253,cs),
(214,249,o),
(207,239,o),
(205,245,cs),
(203,252,o),
(210,256,o),
(213,262,cs),
(239,310,o),
(270,355,o),
(289,401,cs),
(307,443,o),
(300,477,o),
(274,493,cs),
(213,532,o),
(134,520,o),
(43,460,cs),
(20,445,o),
(-2,422,o),
(-21,400,cs),
(-40,378,o),
(-46,341,o),
(-37,327,cs),
(-33,321,o),
(-26,320,o),
(-19,320,cs),
(-11,320,o),
(-17,337,o),
(-18,342,cs),
(-22,369,o),
(-18,382,o),
(9,405,cs),
(23,418,o),
(38,429,o),
(53,439,cs),
(117,479,o),
(171,485,o),
(223,477,cs),
(273,469,o),
(283,430,o),
(246,364,cs),
(217,313,o),
(182,261,o),
(150,209,cs),
(144,199,o),
(131,186,o),
(138,177,cs),
(145,169,o),
(156,180,o),
(165,186,cs),
(200,208,o),
(234,235,o),
(267,250,cs),
(316,272,o),
(344,254,o),
(338,208,cs),
(327,126,o),
(237,4,o),
(154,-24,cs),
(130,-32,o),
(115,-25,o),
(110,-1,cs),
(93,89,o),
(113,200,o),
(113,300,cs),
(113,309,o),
(110,327,o),
(134,327,cs),
(141,327,o),
(143,341,o),
(143,345,cs),
(143,381,o),
(138,412,o),
(117,433,cs),
(113,437,o),
(107,441,o),
(101,441,cs),
(91,441,o),
(92,420,o),
(92,413,cs),
(92,305,o),
(82,198,o),
(76,70,cs),
(75,48,o),
(79,6,o),
(85,-32,cs),
(89,-63,o),
(126,-74,o),
(161,-55,cs)
);
}
);
width = 507;
},
{
layerId = "2CBB5782-2C08-483D-96E9-15912637AE76";
shapes = (
{
closed = 1;
nodes = (
(436,228,o),
(526,280,o),
(553,359,c),
(570,409,o),
(565,439,o),
(519,470,cs),
(488,491,o),
(451,497,o),
(413,491,cs),
(409,490,o),
(395,487,o),
(389,490,cs),
(377,497,o),
(410,499,o),
(413,505,cs),
(435,549,o),
(471,572,o),
(487,602,c),
(506,636,o),
(501,661,o),
(471,695,c),
(416,759,o),
(329,792,o),
(235,779,c),
(198,774,o),
(172,758,o),
(162,751,cs),
(139,735,o),
(137,713,o),
(148,694,cs),
(150,690,o),
(162,690,o),
(194,657,cs),
(213,637,o),
(196,689,o),
(195,698,c),
(191,728,o),
(195,741,o),
(211,747,c),
(230,754,o),
(235,756,o),
(252,757,cs),
(305,762,o),
(347,745,o),
(401,708,c),
(443,680,o),
(454,628,o),
(420,585,c),
(382,537,o),
(356,517,o),
(324,482,cs),
(319,476,o),
(313,464,o),
(318,464,cs),
(330,464,o),
(336,456,o),
(358,459,cs),
(394,463,o),
(423,471,o),
(451,468,c),
(486,465,o),
(512,434,o),
(505,390,c),
(494,313,o),
(414,246,o),
(348,258,c),
(335,260,o),
(322,275,o),
(317,304,c),
(300,400,o),
(320,499,o),
(320,592,c),
(320,595,o),
(321,594,o),
(329,600,cs),
(337,606,o),
(349,620,o),
(349,620,cs),
(350,648,o),
(346,679,o),
(323,717,cs),
(322,719,o),
(304,745,o),
(283,749,cs),
(271,752,o),
(270,716,o),
(270,711,c),
(270,610,o),
(261,509,o),
(255,389,cs),
(254,368,o),
(258,328,o),
(263,288,c),
(267,260,o),
(304,228,o),
(351,228,c)
);
}
);
width = 507;
}
);
unicode = 66;
},
{
glyphname = C;
lastChange = "2023-03-09 21:48:10 +0000";
layers = (
{
layerId = m01;
shapes = (
{
closed = 1;
nodes = (
(198,-27,o),
(269,-15,o),
(335,9,c),
(492,64,o),
(631,147,o),
(771,231,c),
(783,239,o),
(791,253,o),
(800,262,c),
(785,260,o),
(771,257,o),
(758,252,c),
(644,195,o),
(530,135,o),
(414,81,c),
(343,47,o),
(268,22,o),
(185,19,c),
(79,19,o),
(47,52,o),
(62,157,c),
(74,231,o),
(99,303,o),
(120,376,c),
(148,464,o),
(185,554,o),
(262,614,c),
(282,632,o),
(307,642,o),
(334,648,c),
(361,654,o),
(371,639,o),
(365,611,c),
(364,602,o),
(361,593,o),
(362,586,c),
(362,582,o),
(378,578,o),
(379,579,c),
(395,600,o),
(411,622,o),
(400,650,c),
(391,675,o),
(376,691,o),
(347,691,c),
(313,692,o),
(280,683,o),
(255,661,c),
(222,628,o),
(191,596,o),
(165,558,c),
(79,433,o),
(47,289,o),
(24,141,c),
(7,41,o),
(46,-2,o),
(130,-16,c)
);
}
);
width = 800;
},
{
layerId = "4FA42A6D-6079-488C-BBF5-0F13D00932C7";
shapes = (
{
closed = 1;
nodes = (
(241,190,o),
(298,216,o),
(347,249,cs),
(464,326,o),
(558,420,o),
(652,514,cs),
(665,528,o),
(668,551,o),
(674,557,c),
(661,550,o),
(643,544,o),
(628,534,c),
(549,466,o),
(470,395,o),
(388,328,cs),
(338,287,o),
(283,252,o),
(216,229,c),
(128,205,o),
(96,220,o),
(81,297,cs),
(71,353,o),
(72,411,o),
(70,470,cs),
(70,540,o),
(76,612,o),
(123,673,cs),
(135,691,o),
(152,704,o),
(172,714,cs),
(191,723,o),
(198,717,o),
(201,698,c),
(203,692,o),
(203,684,o),
(206,677,cs),
(208,669,o),
(229,673,o),
(230,676,cs),
(238,695,o),
(247,719,o),
(229,738,cs),
(214,755,o),
(194,764,o),
(168,757,cs),
(138,750,o),
(113,735,o),
(97,712,cs),
(77,679,o),
(60,648,o),
(48,615,cs),
(10,502,o),
(23,387,o),
(44,275,cs),
(57,194,o),
(105,171,o),
(181,181,cs)
);
}
);
width = 800;
},
{
layerId = "5563113E-3DD8-48BA-8230-66BC42B26329";
shapes = (
{
closed = 1;
nodes = (
(342,88,o),
(419,141,o),
(483,187,c),
(595,270,o),
(703,353,o),
(806,433,c),
(851,466,o),
(815,555,o),
(773,538,cs),
(755,531,o),
(767,529,o),
(741,507,cs),
(601,389,o),
(469,278,o),
(324,186,c),
(262,145,o),
(207,119,o),
(155,106,c),
(132,101,o),
(132,101,o),
(138,134,c),
(162,254,o),
(188,366,o),
(263,480,c),
(288,519,o),
(315,550,o),
(343,584,c),
(362,605,o),
(379,610,o),
(401,620,cs),
(468,649,o),
(330,693,o),
(366,630,cs),
(371,622,o),
(360,631,o),
(331,602,cs),
(314,585,o),
(457,556,o),
(457,593,c),
(457,596,o),
(458,598,o),
(459,604,c),
(473,678,o),
(392,708,o),
(327,673,c),
(295,655,o),
(266,635,o),
(245,614,c),
(162,530,o),
(123,442,o),
(98,366,c),
(77,303,o),
(53,237,o),
(41,174,c),
(14,9,o),
(151,22,o),
(249,55,c)
);
}
);
width = 800;
},
{
layerId = "2CBB5782-2C08-483D-96E9-15912637AE76";
shapes = (
{
closed = 1;
nodes = (
(283,175,o),
(348,184,o),
(407,201,cs),
(543,240,o),
(664,297,o),
(784,355,c),
(807,366,o),
(905,357,o),
(876,427,c),
(847,498,o),
(776,414,o),
(758,407,c),
(659,367,o),
(561,327,o),
(462,289,cs),
(402,266,o),
(340,247,o),
(272,247,cs),
(188,247,o),
(176,258,o),
(187,318,cs),
(196,367,o),
(216,416,o),
(235,467,cs),
(257,526,o),
(289,582,o),
(349,622,c),
(364,632,o),
(365,635,o),
(388,640,cs),
(393,641,o),
(407,643,o),
(407,640,cs),
(407,639,o),
(407,632,o),
(405,625,cs),
(399,598,o),
(439,586,o),
(453,600,cs),
(473,621,o),
(488,644,o),
(475,672,cs),
(465,694,o),
(445,710,o),
(411,711,cs),
(379,712,o),
(345,706,o),
(320,687,cs),
(291,665,o),
(264,640,o),
(240,612,cs),
(164,523,o),
(136,418,o),
(114,315,cs),
(97,232,o),
(142,193,o),
(222,183,cs)
);
}
);
width = 800;
}
);
unicode = 67;
},
{
glyphname = D;
lastChange = "2023-03-09 21:51:40 +0000";
layers = (
{
layerId = m01;
shapes = (
{
closed = 1;
nodes = (
(79,-21,o),
(105,-15,o),
(128,-8,cs),
(269,37,o),
(413,54,o),
(560,65,cs),
(619,70,o),
(678,83,o),
(737,90,cs),
(757,93,o),
(765,103,o),
(759,118,cs),
(746,147,o),
(734,178,o),
(715,201,cs),
(687,233,o),
(655,262,o),
(624,288,cs),
(561,343,o),
(499,396,o),
(433,447,cs),
(361,503,o),
(287,559,o),
(210,608,cs),
(158,641,o),
(99,666,o),
(43,690,cs),
(16,702,o),
(-10,691,o),
(-29,668,cs),
(-47,645,o),
(-39,621,o),
(-29,597,cs),
(-10,553,o),
(28,525,o),
(65,495,cs),
(70,491,o),
(82,488,o),
(87,493,cs),
(92,499,o),
(83,507,o),
(79,512,cs),
(52,545,o),
(23,575,o),
(-1,610,cs),
(-19,638,o),
(-5,660,o),
(26,656,cs),
(59,651,o),
(95,643,o),
(124,626,cs),
(331,506,o),
(517,358,o),
(684,186,cs),
(696,174,o),
(706,158,o),
(714,144,cs),
(724,127,o),
(714,121,o),
(700,119,cs),
(652,113,o),
(604,107,o),
(554,101,cs),
(472,92,o),
(390,87,o),
(309,72,cs),
(234,58,o),
(163,36,o),
(89,18,cs),
(58,10,o),
(54,12,o),
(62,46,cs),
(86,145,o),
(108,244,o),
(135,340,cs),
(150,395,o),
(171,452,o),
(194,504,cs),
(204,526,o),
(205,540,o),
(185,549,cs),
(178,552,o),
(156,538,o),
(152,527,cs),
(140,495,o),
(134,463,o),
(126,431,cs),
(90,294,o),
(57,158,o),
(22,22,cs),
(14,-9,o),
(24,-21,o),
(63,-21,cs)
);
}
);
width = 781;
},
{
layerId = "4FA42A6D-6079-488C-BBF5-0F13D00932C7";
shapes = (
{
closed = 1;
nodes = (
(-18,163,o),
(36,180,o),
(90,190,c),
(146,201,o),
(201,204,o),
(260,211,c),
(293,216,o),
(327,220,o),
(362,225,c),
(393,228,o),
(415,256,o),
(410,290,cs),
(408,302,o),
(404,321,o),
(398,334,c),
(333,468,o),
(249,585,o),
(143,676,c),
(121,695,o),
(96,703,o),
(70,707,c),
(24,713,o),
(-10,670,o),
(-1,624,c),
(6,592,o),
(18,568,o),
(25,547,c),
(33,523,o),
(42,576,o),
(36,576,cs),
(28,576,o),
(82,561,o),
(71,572,cs),
(50,593,o),
(46,606,o),
(46,623,c),
(46,637,o),
(46,638,o),
(54,645,c),
(66,656,o),
(68,658,o),
(68,659,cs),
(68,696,o),
(128,623,o),
(150,602,c),
(187,566,o),
(218,527,o),
(247,487,c),
(278,447,o),
(303,409,o),
(327,370,c),
(341,349,o),
(353,331,o),
(359,313,cs),
(363,301,o),
(362,285,o),
(362,264,c),
(362,272,o),
(374,283,o),
(369,283,c),
(328,278,o),
(284,268,o),
(246,264,c),
(144,256,o),
(39,242,o),
(-71,207,c),
(-85,203,o),
(-101,200,o),
(-108,200,c),
(-112,200,o),
(-99,162,o),
(-93,171,c),
(-32,271,o),
(30,372,o),
(95,476,c),
(109,501,o),
(170,547,o),
(139,547,cs),
(138,547,o),
(122,553,o),
(124,551,cs),
(129,546,o),
(120,595,o),
(106,579,c),
(77,541,o),
(44,497,o),
(15,451,c),
(-30,381,o),
(-73,306,o),
(-119,230,c),
(-152,173,o),
(-128,136,o),
(-73,150,c)
);
}
);
width = 781;
},
{
layerId = "5563113E-3DD8-48BA-8230-66BC42B26329";
shapes = (
{
closed = 1;
nodes = (
(379,-31,o),
(400,-24,o),
(414,-17,cs),
(500,29,o),
(586,44,o),
(679,55,cs),
(723,61,o),
(761,75,o),
(796,81,cs),
(815,86,o),
(830,95,o),
(817,122,cs),
(806,147,o),
(793,177,o),
(772,207,cs),
(751,236,o),
(723,265,o),
(695,295,cs),
(647,346,o),
(597,399,o),
(541,454,cs),
(483,510,o),
(428,563,o),
(364,616,cs),
(326,647,o),
(282,672,o),
(237,699,cs),
(217,711,o),
(177,707,o),
(164,671,cs),
(154,642,o),
(167,617,o),
(177,593,cs),
(197,551,o),
(228,521,o),
(261,488,cs),
(269,479,o),
(304,477,o),
(309,490,cs),
(313,503,o),
(301,513,o),
(297,518,cs),
(276,548,o),
(252,576,o),
(229,615,cs),
(213,642,o),
(213,647,o),
(217,646,cs),
(238,642,o),
(254,637,o),
(279,618,cs),
(432,502,o),
(580,355,o),
(723,180,cs),
(729,172,o),
(737,157,o),
(748,139,cs),
(754,128,o),
(754,128,o),
(756,129,c),
(724,122,o),
(693,116,o),
(663,111,cs),
(610,102,o),
(555,97,o),
(504,82,cs),
(452,66,o),
(408,44,o),
(368,27,cs),
(349,20,o),
(372,-12,o),
(372,46,cs),
(370,145,o),
(368,244,o),
(369,340,cs),
(369,395,o),
(373,452,o),
(379,503,cs),
(383,533,o),
(378,544,o),
(355,558,cs),
(337,569,o),
(309,547,o),
(307,528,cs),
(305,495,o),
(306,463,o),
(307,431,cs),
(307,294,o),
(309,158,o),
(310,22,cs),
(310,-20,o),
(330,-31,o),
(364,-31,cs)
);
}
);
width = 781;
},
{
layerId = "2CBB5782-2C08-483D-96E9-15912637AE76";
shapes = (
{
closed = 1;
nodes = (
(219,9,o),
(242,20,o),
(259,31,c),
(376,103,o),
(499,151,o),
(626,195,c),
(679,214,o),
(729,238,o),
(778,258,c),
(799,265,o),
(808,278,o),
(794,295,c),
(777,316,o),
(759,340,o),
(734,356,cs),
(703,376,o),
(667,392,o),
(633,409,c),
(565,438,o),
(497,469,o),
(427,498,c),
(350,526,o),
(271,557,o),
(191,581,c),
(137,597,o),
(78,603,o),
(22,611,c),
(-8,614,o),
(-33,597,o),
(-45,572,cs),
(-58,545,o),
(-43,526,o),
(-28,507,c),
(-1,473,o),
(42,456,o),
(83,441,cs),
(93,437,o),
(107,438,o),
(116,444,cs),
(123,448,o),
(111,460,o),
(99,468,cs),
(68,490,o),
(36,507,o),
(5,532,c),
(-14,548,o),
(-8,566,o),
(15,568,c),
(45,572,o),
(77,573,o),
(106,566,cs),
(317,514,o),
(514,434,o),
(702,328,c),
(714,322,o),
(724,310,o),
(737,299,c),
(745,291,o),
(742,287,o),
(733,284,c),
(691,266,o),
(649,250,o),
(607,234,c),
(535,206,o),
(463,182,o),
(395,151,c),
(330,120,o),
(271,85,o),
(211,52,c),
(192,42,o),
(192,42,o),
(192,65,c),
(190,154,o),
(188,244,o),
(191,331,c),
(192,382,o),
(197,435,o),
(206,483,c),
(210,505,o),
(207,521,o),
(182,525,cs),
(168,528,o),
(149,506,o),
(147,495,c),
(144,464,o),
(147,436,o),
(146,406,c),
(146,282,o),
(146,158,o),
(146,35,c),
(145,3,o),
(165,-8,o),
(204,4,cs)
);
}
);
width = 781;
}
);
unicode = 68;
},
{
glyphname = E;
lastChange = "2023-03-09 22:10:16 +0000";
layers = (
{
layerId = m01;
shapes = (
{
closed = 1;
nodes = (
(398,660,o),
(491,659,o),
(586,661,cs),
(712,664,o),
(840,681,o),
(967,681,cs),
(972,681,o),
(978,684,o),
(984,684,cs),
(990,684,o),
(1003,680,o),
(1003,673,cs),
(1003,667,o),
(992,660,o),
(986,659,cs),
(949,654,o),
(911,648,o),
(877,646,cs),
(747,636,o),
(620,623,o),
(492,616,cs),
(423,612,o),
(354,614,o),
(282,618,cs),
(241,620,o),
(214,610,o),
(200,566,cs),
(182,512,o),
(156,460,o),
(132,407,cs),
(121,382,o),
(125,376,o),
(155,378,cs),
(224,384,o),
(295,383,o),
(364,385,cs),
(400,386,o),
(434,393,o),
(469,397,cs),
(477,398,o),
(496,400,o),
(496,392,cs),
(496,383,o),
(485,375,o),
(480,374,cs),
(444,364,o),
(407,356,o),
(371,353,cs),
(289,345,o),
(206,340,o),
(125,331,cs),
(115,330,o),
(99,316,o),
(95,305,cs),
(74,243,o),
(54,182,o),
(37,118,cs),
(26,76,o),
(51,49,o),
(97,54,cs),
(141,58,o),
(185,67,o),
(226,83,cs),
(310,115,o),
(385,77,o),
(467,77,cs),
(473,77,o),
(477,73,o),
(477,72,cs),
(477,65,o),
(475,58,o),
(469,56,cs),
(460,52,o),
(446,46,o),
(436,49,cs),
(338,76,o),
(244,48,o),
(151,20,cs),
(129,13,o),
(103,11,o),
(81,11,cs),
(28,11,o),
(-8,48,o),
(2,99,cs),
(19,181,o),
(37,262,o),
(64,340,cs),
(92,421,o),
(129,495,o),
(162,574,cs),
(165,581,o),
(166,592,o),
(166,601,cs),
(166,611,o),
(138,593,o),
(137,587,cs),
(132,561,o),
(118,555,o),
(97,561,cs),
(88,563,o),
(74,578,o),
(77,585,cs),
(85,601,o),
(93,628,o),
(107,632,cs),
(155,645,o),
(205,653,o),
(254,660,cs),
(271,663,o),
(288,660,o),
(304,660,cs)
);
}
);
width = 703;
},
{
layerId = "4FA42A6D-6079-488C-BBF5-0F13D00932C7";
shapes = (
{
closed = 1;
nodes = (
(413,487,o),
(466,500,o),
(519,516,cs),
(585,537,o),
(655,571,o),
(733,592,cs),
(735,593,o),
(738,596,o),
(742,597,cs),
(750,599,o),
(774,602,o),
(776,596,cs),
(775,598,o),
(759,580,o),
(753,577,cs),
(738,569,o),
(716,558,o),
(692,549,cs),
(624,522,o),
(554,491,o),
(479,464,cs),
(439,450,o),
(395,440,o),
(355,433,cs),
(343,431,o),
(341,428,o),
(344,382,cs),
(345,338,o),
(343,289,o),
(340,236,cs),
(339,209,o),
(339,209,o),
(336,208,c),
(375,224,o),
(417,234,o),
(456,246,cs),
(470,251,o),
(485,261,o),
(510,272,cs),
(511,272,o),
(550,285,o),
(552,278,cs),
(554,271,o),
(548,266,o),
(539,260,cs),
(524,249,o),
(502,234,o),
(471,221,cs),
(429,202,o),
(383,186,o),
(337,165,cs),
(332,163,o),
(343,153,o),
(344,143,cs),
(344,90,o),
(348,35,o),
(354,-26,cs),
(356,-67,o),
(371,-81,o),
(377,-78,cs),
(403,-68,o),
(408,-64,o),
(436,-36,cs),
(488,17,o),
(553,-10,o),
(586,-1,cs),
(596,1,o),
(614,3,o),
(614,2,cs),
(616,-5,o),
(605,-14,o),
(601,-17,c),
(591,-22,o),
(571,-33,o),
(565,-32,cs),
(509,-25,o),
(478,-56,o),
(429,-96,cs),
(421,-103,o),
(396,-113,o),
(381,-117,cs),
(338,-128,o),
(302,-112,o),
(295,-59,cs),
(287,11,o),
(279,83,o),
(275,157,cs),
(273,226,o),
(277,295,o),
(278,372,cs),
(278,375,o),
(276,387,o),
(274,396,cs),
(266,425,o),
(301,403,o),
(302,390,cs),
(309,355,o),
(257,352,o),
(252,355,c),
(239,356,o),
(227,358,o),
(227,369,cs),
(229,386,o),
(220,396,o),
(244,416,cs),
(265,432,o),
(295,448,o),
(325,464,cs),
(334,469,o),
(356,472,o),
(360,473,cs)
);
}
);
width = 703;
},
{
layerId = "5563113E-3DD8-48BA-8230-66BC42B26329";
shapes = (
{
closed = 1;
nodes = (
(222,767,o),
(299,743,o),
(376,720,cs),
(483,689,o),
(587,669,o),
(694,636,c),
(697,636,o),
(698,638,o),
(706,634,cs),
(717,630,o),
(732,621,o),
(734,616,cs),
(741,597,o),
(712,592,o),
(701,594,cs),
(671,600,o),
(639,606,o),
(612,612,cs),
(504,639,o),
(402,661,o),
(299,688,cs),
(239,703,o),
(179,724,o),
(120,745,cs),
(94,754,o),
(94,754,o),
(94,732,cs),
(95,691,o),
(88,655,o),
(83,616,cs),
(82,600,o),
(82,600,o),
(97,597,cs),
(155,583,o),
(215,563,o),
(269,549,cs),
(300,539,o),
(326,536,o),
(352,531,cs),
(361,529,o),
(393,522,o),
(393,510,c),
(397,493,o),
(377,489,o),
(364,489,cs),
(335,490,o),
(304,493,o),
(276,499,cs),
(209,515,o),
(144,532,o),
(82,545,c),
(82,544,o),
(82,544,o),
(82,542,cs),
(83,495,o),
(84,450,o),
(89,402,cs),
(91,370,o),
(113,348,o),
(141,342,cs),
(178,334,o),
(208,330,o),
(236,332,cs),
(306,338,o),
(383,284,o),
(446,265,cs),
(456,261,o),
(444,252,o),
(468,258,c),
(476,239,o),
(471,228,o),
(451,227,cs),
(443,226,o),
(423,225,o),
(412,231,cs),
(323,279,o),
(262,279,o),
(193,279,cs),
(172,279,o),
(147,286,o),
(130,290,c),
(74,308,o),
(31,354,o),
(24,393,cs),
(15,458,o),
(7,521,o),
(7,579,cs),
(7,639,o),
(15,693,o),
(20,751,c),
(22,750,o),
(17,764,o),
(16,770,c),
(18,767,o),
(37,757,o),
(35,768,cs),
(40,736,o),
(7,731,o),
(-21,746,cs),
(-32,752,o),
(-55,771,o),
(-55,780,c),
(-57,757,o),
(-56,824,o),
(-21,821,cs),
(18,820,o),
(59,813,o),
(97,806,cs),
(115,804,o),
(127,796,o),
(140,793,c)
);
}
);
width = 703;
},
{
layerId = "2CBB5782-2C08-483D-96E9-15912637AE76";
shapes = (
{
closed = 1;
nodes = (
(451,653,o),
(509,646,o),
(565,642,cs),
(641,638,o),
(714,647,o),
(792,639,cs),
(789,639,o),
(798,643,o),
(803,642,c),
(803,643,o),
(820,636,o),
(824,626,cs),
(828,615,o),
(820,607,o),
(812,606,cs),
(792,603,o),
(769,599,o),
(748,599,cs),
(673,597,o),
(598,591,o),
(522,592,cs),
(480,592,o),
(436,598,o),
(391,607,cs),
(369,611,o),
(361,606,o),
(367,564,cs),
(372,509,o),
(373,458,o),
(375,405,cs),
(376,381,o),
(377,378,o),
(390,379,cs),
(430,381,o),
(475,375,o),
(516,373,cs),
(537,372,o),
(554,377,o),
(576,379,cs),
(584,379,o),
(599,379,o),
(602,368,cs),
(606,356,o),
(600,347,o),
(593,345,cs),
(575,338,o),
(553,331,o),
(530,330,cs),
(482,327,o),
(434,327,o),
(386,322,c),
(393,322,o),
(383,313,o),
(384,303,cs),
(391,240,o),
(398,179,o),
(407,115,cs),
(414,73,o),
(434,48,o),
(455,50,cs),
(480,52,o),
(502,57,o),
(521,71,cs),
(568,102,o),
(629,56,o),
(676,51,cs),
(683,51,o),
(691,44,o),
(691,40,c),
(694,31,o),
(694,25,o),
(689,22,c),
(684,16,o),
(672,10,o),
(662,14,c),
(597,47,o),
(553,26,o),
(504,3,c),
(492,-4,o),
(473,-4,o),
(459,-3,cs),
(421,0,o),
(386,43,o),
(376,96,cs),
(361,180,o),
(346,262,o),
(338,339,cs),
(330,421,o),
(329,495,o),
(325,574,cs),
(324,581,o),
(322,591,o),
(319,600,cs),
(337,535,o),
(310,656,o),
(321,590,cs),
(328,549,o),
(306,553,o),
(292,561,cs),
(281,567,o),
(270,583,o),
(269,590,c),
(269,606,o),
(270,636,o),
(277,641,c),
(302,651,o),
(332,657,o),
(361,661,cs),
(373,663,o),
(385,659,o),
(394,658,cs)
);
}
);
width = 703;
}
);
unicode = 69;
},
{
glyphname = F;
lastChange = "2023-03-09 22:06:51 +0000";
layers = (
{
layerId = m01;
shapes = (
{
closed = 1;
nodes = (
(64,-97,o),
(66,-74,o),
(73,-61,cs),
(76,-57,o),
(71,-49,o),
(71,-42,cs),
(71,6,o),
(70,52,o),
(71,99,cs),
(72,142,o),
(80,186,o),
(80,229,cs),
(80,249,o),
(86,258,o),
(103,262,cs),
(130,268,o),
(156,276,o),
(180,278,cs),
(262,285,o),
(342,289,o),
(423,296,cs),
(437,297,o),
(462,296,o),
(462,309,cs),
(462,322,o),
(437,322,o),
(425,322,cs),
(321,322,o),
(218,315,o),
(113,305,cs),
(87,302,o),
(82,309,o),
(82,331,cs),
(82,368,o),
(80,403,o),
(77,439,cs),
(72,506,o),
(62,572,o),
(59,639,cs),
(56,687,o),
(60,695,o),
(106,699,cs),
(170,705,o),
(234,705,o),
(298,704,cs),
(355,703,o),
(411,691,o),
(468,691,cs),
(475,691,o),
(487,693,o),
(487,699,cs),
(487,707,o),
(479,713,o),
(473,717,cs),
(469,720,o),
(460,719,o),
(453,720,cs),
(370,730,o),
(289,748,o),
(217,748,cs),
(159,748,o),
(117,740,o),
(73,735,cs),
(37,730,o),
(21,711,o),
(21,674,cs),
(21,654,o),
(24,634,o),
(26,615,cs),
(34,517,o),
(45,421,o),
(56,323,cs),
(59,300,o),
(51,288,o),
(27,282,cs),
(17,280,o),
(0,270,o),
(0,257,cs),
(0,244,o),
(21,240,o),
(31,241,cs),
(56,243,o),
(55,231,o),
(53,216,cs),
(49,182,o),
(45,148,o),
(41,115,cs),
(33,56,o),
(24,-3,o),
(24,-62,cs),
(24,-73,o),
(33,-97,o),
(48,-97,cs)
);
}
);
width = 477;
},
{
layerId = "4FA42A6D-6079-488C-BBF5-0F13D00932C7";
shapes = (
{
closed = 1;
nodes = (
(205,119,o),
(227,123,o),
(232,124,c),
(234,132,o),
(239,149,o),
(239,160,cs),
(239,196,o),
(238,230,o),
(239,265,cs),
(240,300,o),
(245,332,o),
(245,362,cs),
(245,377,o),
(247,388,o),
(239,386,cs),
(257,391,o),
(278,398,o),
(284,398,cs),
(341,403,o),
(394,406,o),
(446,412,c),
(425,413,o),
(500,410,o),
(500,421,cs),
(500,431,o),
(454,431,o),
(446,431,cs),
(374,431,o),
(301,426,o),
(234,418,cs),
(245,419,o),
(246,419,o),
(246,438,cs),
(246,464,o),
(245,489,o),
(243,518,cs),
(240,565,o),
(233,614,o),
(231,667,cs),
(228,711,o),
(228,711,o),
(236,712,cs),
(278,716,o),
(317,716,o),
(361,715,cs),
(393,715,o),
(428,706,o),
(474,706,cs),
(480,706,o),
(517,709,o),
(517,712,cs),
(517,710,o),
(512,713,o),
(507,717,cs),
(496,726,o),
(482,727,o),
(474,726,c),
(425,733,o),
(364,748,o),
(307,748,cs),
(262,748,o),
(230,741,o),
(206,738,cs),
(170,733,o),
(146,727,o),
(146,693,cs),
(146,680,o),
(148,666,o),
(149,649,cs),
(154,579,o),
(162,508,o),
(169,432,cs),
(171,414,o),
(168,403,o),
(167,400,c),
(154,393,o),
(132,383,o),
(132,383,c),
(132,376,o),
(164,371,o),
(180,371,c),
(165,369,o),
(168,363,o),
(167,352,cs),
(164,324,o),
(162,298,o),
(159,277,cs),
(154,229,o),
(148,187,o),
(148,145,cs),
(148,132,o),
(158,119,o),
(194,119,cs)
);
}
);
width = 477;
},
{
layerId = "5563113E-3DD8-48BA-8230-66BC42B26329";
shapes = (
{
closed = 1;
nodes = (
(171,-100,o),
(166,-81,o),
(167,-69,cs),
(168,-65,o),
(163,-60,o),
(161,-55,cs),
(148,-15,o),
(135,25,o),
(124,63,cs),
(113,100,o),
(106,138,o),
(95,174,cs),
(90,190,o),
(91,199,o),
(101,205,cs),
(116,216,o),
(131,227,o),
(145,234,cs),
(195,254,o),
(244,273,o),
(294,294,cs),
(302,297,o),
(318,301,o),
(315,312,cs),
(312,323,o),
(296,318,o),
(288,316,cs),
(223,296,o),
(160,271,o),
(96,243,cs),
(81,235,o),
(75,241,o),
(70,259,cs),
(60,290,o),
(49,319,o),
(38,348,cs),
(17,403,o),
(-6,455,o),
(-26,511,cs),
(-40,550,o),
(-40,558,o),
(-12,570,cs),
(27,587,o),
(67,599,o),
(108,610,cs),
(144,620,o),
(182,621,o),
(218,632,cs),
(223,633,o),
(230,636,o),
(228,641,cs),
(226,648,o),
(220,652,o),
(215,654,cs),
(211,655,o),
(206,653,o),
(201,653,cs),
(146,646,o),
(91,645,o),
(45,632,cs),
(9,621,o),
(-16,606,o),
(-42,594,cs),
(-63,583,o),
(-68,563,o),
(-59,533,cs),
(-53,516,o),
(-46,500,o),
(-40,485,cs),
(-10,405,o),
(23,327,o),
(55,247,cs),
(63,229,o),
(61,217,o),
(48,208,cs),
(42,204,o),
(34,193,o),
(37,182,cs),
(41,171,o),
(55,171,o),
(61,174,cs),
(76,180,o),
(79,170,o),
(82,157,cs),
(88,129,o),
(94,100,o),
(100,72,cs),
(111,20,o),
(121,-30,o),
(136,-80,cs),
(139,-89,o),
(151,-107,o),
(160,-104,cs)
);
}
);
width = 477;
},
{
layerId = "2CBB5782-2C08-483D-96E9-15912637AE76";
shapes = (
{
closed = 1;
nodes = (
(235,-167,o),
(266,-136,o),
(272,-130,cs),
(284,-120,o),
(285,-101,o),
(285,-91,c),
(289,-60,o),
(293,-29,o),
(298,1,cs),
(301,26,o),
(313,55,o),
(317,90,cs),
(323,127,o),
(260,69,o),
(308,75,cs),
(333,77,o),
(354,81,o),
(372,80,cs),
(444,80,o),
(515,77,o),
(587,75,cs),
(617,75,o),
(730,84,o),
(659,157,c),
(639,168,o),
(612,171,o),
(596,172,cs),
(505,176,o),
(413,182,o),
(319,182,cs),
(181,182,o),
(306,32,o),
(329,159,c),
(332,186,o),
(333,211,o),
(334,236,cs),
(336,282,o),
(334,327,o),
(336,370,cs),
(336,371,o),
(338,371,o),
(348,371,cs),
(402,370,o),
(458,366,o),
(512,361,cs),
(560,355,o),
(608,346,o),
(660,340,cs),
(675,338,o),
(727,340,o),
(727,376,cs),
(727,409,o),
(700,427,o),
(682,434,cs),
(675,437,o),
(668,438,o),
(661,439,cs),
(589,451,o),
(518,471,o),
(453,475,cs),
(401,479,o),
(362,477,o),
(323,477,cs),
(276,476,o),
(242,451,o),
(236,404,cs),
(234,387,o),
(235,369,o),
(235,357,cs),
(233,291,o),
(233,225,o),
(234,159,cs),
(234,155,o),
(242,172,o),
(238,173,c),
(212,171,o),
(173,155,o),
(168,122,cs),
(162,72,o),
(250,74,o),
(234,75,c),
(231,74,o),
(219,84,o),
(223,99,cs),
(217,75,o),
(212,53,o),
(204,30,cs),
(192,-10,o),
(182,-52,o),
(171,-94,c),
(167,-125,o),
(175,-162,o),
(221,-166,cs)
);
}
);
width = 477;
}
);
unicode = 70;
},
{
glyphname = G;
lastChange = "2023-03-09 22:08:29 +0000";
layers = (
{
layerId = m01;
shapes = (
{
closed = 1;
nodes = (
(131,-40,o),
(155,-44,o),
(179,-45,cs),
(279,-51,o),
(368,-9,o),
(452,42,cs),
(488,64,o),
(520,95,o),
(520,144,cs),
(520,196,o),
(518,196,o),
(571,196,cs),
(578,196,o),
(585,196,o),
(592,196,cs),
(626,196,o),
(624,196,o),
(613,163,cs),
(596,114,o),
(580,65,o),
(564,15,cs),
(558,-5,o),
(556,-26,o),
(556,-46,cs),
(556,-58,o),
(563,-76,o),
(574,-76,cs),
(586,-76,o),
(594,-55,o),
(594,-46,cs),
(594,15,o),
(616,69,o),
(640,121,cs),
(649,141,o),
(658,162,o),
(661,184,cs),
(667,224,o),
(657,231,o),
(617,231,cs),
(557,231,o),
(499,232,o),
(439,232,cs),
(412,232,o),
(386,234,o),
(361,230,cs),
(353,229,o),
(336,218,o),
(336,206,cs),
(336,194,o),
(356,191,o),
(367,189,cs),
(383,185,o),
(403,188,o),
(419,189,cs),
(445,190,o),
(470,188,o),
(480,162,cs),
(491,135,o),
(478,116,o),
(460,98,cs),
(388,30,o),
(301,-6,o),
(204,-6,cs),
(193,-6,o),
(180,-6,o),
(168,-6,cs),
(96,-6,o),
(59,39,o),
(63,112,cs),
(66,181,o),
(94,240,o),
(123,301,cs),
(177,414,o),
(228,531,o),
(327,617,cs),
(357,644,o),
(388,676,o),
(431,682,cs),
(465,687,o),
(469,680,o),
(462,646,cs),
(461,641,o),
(463,634,o),
(465,628,cs),
(465,627,o),
(473,627,o),
(476,628,cs),
(493,634,o),
(509,670,o),
(506,692,cs),
(502,717,o),
(485,718,o),
(465,719,cs),
(405,724,o),
(360,694,o),
(320,657,cs),
(169,515,o),
(81,333,o),
(30,136,cs),
(6,42,o),
(20,-2,o),
(110,-33,cs)
);
}
);
width = 683;
},
{
layerId = "4FA42A6D-6079-488C-BBF5-0F13D00932C7";
shapes = (
{
closed = 1;
nodes = (
(202,136,o),
(228,139,o),
(242,142,c),
(335,162,o),
(386,208,o),
(423,251,c),
(450,280,o),
(467,289,o),
(451,331,c),
(437,368,o),
(413,378,o),
(464,378,cs),
(465,378,o),
(465,378,o),
(465,378,cs),
(501,387,o),
(453,395,o),
(453,362,c),
(454,326,o),
(454,291,o),
(454,255,c),
(455,241,o),
(479,200,o),
(466,213,cs),
(465,214,o),
(496,170,o),
(531,170,cs),
(558,170,o),
(550,208,o),
(550,216,cs),
(550,255,o),
(536,302,o),
(541,339,c),
(542,355,o),
(542,364,o),
(539,384,cs),
(533,422,o),
(478,414,o),
(452,404,c),
(399,386,o),
(388,388,o),
(339,374,c),
(310,366,o),
(285,350,o),
(280,356,cs),
(274,363,o),
(245,339,o),
(260,339,cs),
(278,339,o),
(302,330,o),
(316,333,cs),
(335,337,o),
(369,346,o),
(352,341,c),
(356,342,o),
(356,348,o),
(360,347,cs),
(382,342,o),
(371,297,o),
(367,290,cs),
(324,209,o),
(287,193,o),
(225,169,cs),
(220,167,o),
(216,167,o),
(204,164,c),
(173,158,o),
(163,167,o),
(147,223,c),
(132,266,o),
(138,317,o),
(144,359,c),
(153,447,o),
(162,538,o),
(203,606,c),
(214,622,o),
(234,674,o),
(234,657,cs),
(234,655,o),
(233,652,o),
(235,652,cs),
(238,652,o),
(239,640,o),
(243,640,cs),
(270,640,o),
(291,640,o),
(303,648,cs),
(323,661,o),
(320,667,o),
(308,690,c),
(299,706,o),
(250,702,o),
(242,700,c),
(184,689,o),
(155,663,o),
(138,632,c),
(60,496,o),
(48,372,o),
(60,232,c),
(67,170,o),
(89,140,o),
(182,137,c)
);
}
);
width = 683;
},
{
layerId = "5563113E-3DD8-48BA-8230-66BC42B26329";
shapes = (
{
closed = 1;
nodes = (
(216,-106,o),
(238,-104,o),
(258,-99,c),
(345,-81,o),
(421,-30,o),
(492,27,c),
(523,51,o),
(553,84,o),
(553,124,c),
(552,154,o),
(552,154,o),
(589,163,cs),
(594,164,o),
(600,166,o),
(607,168,c),
(616,171,o),
(616,171,o),
(613,161,c),
(599,122,o),
(585,83,o),
(571,43,c),
(565,26,o),
(564,8,o),
(564,-8,c),
(566,-24,o),
(576,-40,o),
(591,-40,cs),
(597,-40,o),
(616,-12,o),
(616,1,cs),
(616,43,o),
(632,87,o),
(653,130,c),
(660,146,o),
(670,165,o),
(672,182,c),
(680,222,o),
(663,231,o),
(622,219,cs),
(572,205,o),
(524,194,o),
(472,180,c),
(450,174,o),
(428,169,o),
(406,161,c),
(391,154,o),
(345,124,o),
(365,122,cs),
(394,119,o),
(396,111,o),
(416,113,c),
(430,114,o),
(448,120,o),
(461,125,c),
(482,131,o),
(495,134,o),
(501,123,c),
(507,111,o),
(501,100,o),
(486,84,c),
(427,19,o),
(354,-18,o),
(274,-46,cs),
(265,-49,o),
(255,-51,o),
(245,-53,c),
(188,-66,o),
(165,-50,o),
(169,0,c),
(170,49,o),
(193,96,o),
(218,147,c),
(263,241,o),
(306,336,o),
(388,420,c),
(414,446,o),
(438,475,o),
(472,488,c),
(487,494,o),
(488,494,o),
(485,481,c),
(484,476,o),
(484,460,o),
(489,455,cs),
(493,451,o),
(505,457,o),
(511,460,cs),
(530,471,o),
(546,505,o),
(542,523,cs),
(537,547,o),
(518,546,o),
(495,542,c),
(443,531,o),
(402,497,o),
(368,461,c),
(240,323,o),
(166,169,o),
(121,13,c),
(101,-66,o),
(114,-103,o),
(198,-106,c)
);
}
);
width = 683;
},
{
layerId = "2CBB5782-2C08-483D-96E9-15912637AE76";
shapes = (
{
closed = 1;
nodes = (
(224,157,o),
(246,156,o),
(267,158,c),
(355,163,o),
(429,200,o),
(499,245,c),
(529,263,o),
(554,289,o),
(551,324,c),
(545,361,o),
(545,361,o),
(591,366,c),
(598,367,o),
(604,367,o),
(610,368,c),
(633,372,o),
(639,371,o),
(631,346,c),
(620,310,o),
(609,273,o),
(599,236,c),
(595,221,o),
(595,206,o),
(596,192,c),
(598,183,o),
(608,178,o),
(614,172,c),
(620,180,o),
(629,189,o),
(630,195,c),
(625,239,o),
(639,280,o),
(657,319,c),
(663,334,o),
(671,350,o),
(671,366,c),
(674,395,o),
(664,399,o),
(629,395,c),
(577,387,o),
(526,385,o),
(473,380,c),
(450,377,o),
(427,375,o),
(405,371,c),
(398,368,o),
(393,357,o),
(385,352,c),
(395,350,o),
(404,343,o),
(414,342,c),
(428,341,o),
(445,345,o),
(459,347,c),
(482,350,o),
(503,351,o),
(514,333,c),
(525,315,o),
(517,300,o),
(502,286,c),
(445,230,o),
(369,204,o),
(286,188,c),
(276,187,o),
(265,186,o),
(254,185,c),
(191,180,o),
(154,207,o),
(153,259,c),
(150,309,o),
(170,353,o),
(192,400,c),
(230,485,o),
(267,573,o),
(346,644,c),
(372,666,o),
(395,692,o),
(432,700,c),
(462,707,o),
(466,702,o),
(462,677,c),
(461,674,o),
(465,669,o),
(466,665,c),
(467,664,o),
(473,665,o),
(476,666,c),
(490,672,o),
(501,699,o),
(497,714,c),
(491,732,o),
(477,731,o),
(459,730,c),
(407,728,o),
(369,702,o),
(337,672,c),
(216,557,o),
(153,419,o),
(123,273,c),
(110,204,o),
(124,174,o),
(205,160,c)
);
}
);
width = 683;
}
);
unicode = 71;
},
{
glyphname = H;
lastChange = "2023-03-09 22:59:15 +0000";
layers = (
{
layerId = m01;
shapes = (
{
closed = 1;
nodes = (
(135,-79,o),
(135,-61,o),
(135,-52,cs),
(135,12,o),
(143,77,o),
(143,142,cs),
(143,162,o),
(149,179,o),
(169,187,cs),
(212,203,o),
(254,221,o),
(297,235,cs),
(330,245,o),
(333,241,o),
(328,202,cs),
(319,134,o),
(319,65,o),
(342,-2,cs),
(345,-10,o),
(352,-20,o),
(360,-20,cs),
(369,-20,o),
(368,-6,o),
(368,2,cs),
(368,71,o),
(366,140,o),
(363,209,cs),
(361,242,o),
(376,257,o),
(407,263,cs),
(454,273,o),
(500,286,o),
(547,298,cs),
(556,300,o),
(574,305,o),
(574,314,cs),
(574,325,o),
(553,322,o),
(543,320,cs),
(500,314,o),
(459,307,o),
(418,298,cs),
(378,290,o),
(370,296,o),
(374,337,c),
(379,392,o),
(383,448,o),
(392,504,cs),
(405,588,o),
(395,679,o),
(439,757,cs),
(441,761,o),
(443,766,o),
(442,770,cs),
(440,778,o),
(439,792,o),
(434,793,cs),
(426,795,o),
(411,793,o),
(408,788,cs),
(396,768,o),
(382,747,o),
(379,725,cs),
(369,663,o),
(365,600,o),
(359,537,cs),
(352,466,o),
(347,395,o),
(339,326,cs),
(337,304,o),
(336,282,o),
(306,275,cs),
(264,265,o),
(223,251,o),
(181,237,cs),
(156,228,o),
(141,232,o),
(141,262,cs),
(141,328,o),
(140,394,o),
(140,460,cs),
(140,489,o),
(144,518,o),
(142,545,cs),
(141,555,o),
(131,575,o),
(117,575,cs),
(105,575,o),
(101,556,o),
(96,546,cs),
(93,538,o),
(95,529,o),
(95,520,cs),
(95,432,o),
(100,343,o),
(103,255,cs),
(105,205,o),
(106,205,o),
(59,184,cs),
(44,177,o),
(28,171,o),
(15,162,cs),
(5,154,o),
(-10,145,o),
(-10,132,cs),
(-10,117,o),
(14,115,o),
(27,113,cs),
(104,104,o),
(104,104,o),
(104,26,cs),
(104,23,o),
(104,21,o),
(104,17,cs),
(104,17,o),
(105,17,o),
(105,17,cs),
(105,-7,o),
(103,-30,o),
(106,-53,cs),
(107,-63,o),
(114,-79,o),
(125,-79,cs)
);
}
);
width = 554;
},
{
layerId = "4FA42A6D-6079-488C-BBF5-0F13D00932C7";
shapes = (
{
closed = 1;
nodes = (
(302,-218,o),
(301,-179,o),
(294,-157,cs),
(278,-96,o),
(269,-34,o),
(253,30,cs),
(250,40,o),
(250,40,o),
(251,40,c),
(294,52,o),
(332,66,o),
(372,76,cs),
(382,78,o),
(382,78,o),
(384,63,cs),
(392,-4,o),
(412,-76,o),
(455,-145,cs),
(464,-160,o),
(481,-174,o),
(497,-176,cs),
(532,-180,o),
(532,-143,o),
(527,-124,cs),
(509,-57,o),
(489,10,o),
(468,78,cs),
(463,92,o),
(463,92,o),
(479,94,cs),
(527,100,o),
(574,108,o),
(620,116,cs),
(642,121,o),
(672,132,o),
(663,162,cs),
(657,187,o),
(623,190,o),
(603,188,cs),
(559,186,o),
(517,182,o),
(476,177,cs),
(451,174,o),
(451,174,o),
(447,197,cs),
(438,249,o),
(428,302,o),
(423,355,cs),
(414,440,o),
(382,522,o),
(406,586,c),
(409,597,o),
(409,608,o),
(404,618,cs),
(400,624,o),
(394,635,o),
(387,643,c),
(390,654,o),
(330,666,o),
(318,635,cs),
(311,617,o),
(299,593,o),
(302,565,cs),
(308,504,o),
(320,443,o),
(330,383,cs),
(341,314,o),
(354,247,o),
(363,181,c),
(367,163,o),
(367,163,o),
(362,163,c),
(320,157,o),
(279,146,o),
(238,135,cs),
(223,132,o),
(223,132,o),
(219,146,cs),
(202,209,o),
(184,273,o),
(167,336,cs),
(161,363,o),
(156,392,o),
(147,420,cs),
(140,440,o),
(116,466,o),
(91,468,cs),
(66,470,o),
(50,424,o),
(50,423,c),
(47,417,o),
(54,391,o),
(56,386,c),
(79,300,o),
(107,213,o),
(133,128,cs),
(152,67,o),
(135,100,o),
(120,93,cs),
(107,88,o),
(89,83,o),
(73,72,cs),
(62,63,o),
(41,40,o),
(46,19,cs),
(52,-9,o),
(82,-15,o),
(109,-21,cs),
(177,-33,o),
(177,-33,o),
(193,-93,cs),
(194,-97,o),
(196,-102,o),
(202,-125,c),
(202,-125,o),
(202,-124,o),
(202,-124,c),
(206,-140,o),
(210,-156,o),
(217,-173,cs),
(225,-192,o),
(244,-212,o),
(265,-214,cs)
);
}
);
width = 554;
},
{
layerId = "5563113E-3DD8-48BA-8230-66BC42B26329";
shapes = (
{
closed = 1;
nodes = (
(130,-3,o),
(126,15,o),
(125,24,cs),
(114,88,o),
(108,153,o),
(97,218,cs),
(93,238,o),
(95,255,o),
(109,263,cs),
(138,279,o),
(167,297,o),
(197,311,cs),
(220,321,o),
(223,317,o),
(225,278,cs),
(231,210,o),
(243,141,o),
(272,74,cs),
(275,66,o),
(283,56,o),
(289,56,cs),
(295,56,o),
(293,70,o),
(291,78,cs),
(279,147,o),
(265,216,o),
(251,285,cs),
(243,318,o),
(253,333,o),
(275,339,cs),
(308,349,o),
(341,362,o),
(374,374,cs),
(380,376,o),
(393,381,o),
(392,390,cs),
(390,401,o),
(374,398,o),
(367,396,cs),
(336,390,o),
(306,383,o),
(277,374,cs),
(248,366,o),
(241,372,o),
(237,413,c),
(231,468,o),
(224,524,o),
(221,580,cs),
(216,664,o),
(193,755,o),
(212,833,cs),
(214,837,o),
(214,842,o),
(212,846,cs),
(210,854,o),
(206,868,o),
(202,869,cs),
(196,871,o),
(185,869,o),
(184,864,cs),
(178,844,o),
(171,823,o),
(173,801,cs),
(176,739,o),
(184,676,o),
(191,613,cs),
(198,542,o),
(207,471,o),
(213,402,cs),
(214,380,o),
(217,358,o),
(197,351,cs),
(166,341,o),
(138,327,o),
(109,313,cs),
(92,304,o),
(80,308,o),
(75,338,cs),
(63,404,o),
(51,470,o),
(39,536,cs),
(34,565,o),
(32,594,o),
(25,621,cs),
(24,631,o),
(12,651,o),
(2,651,cs),
(-7,651,o),
(-7,632,o),
(-9,622,cs),
(-9,614,o),
(-7,605,o),
(-5,596,cs),
(10,508,o),
(30,419,o),
(47,331,cs),
(58,281,o),
(58,281,o),
(26,260,cs),
(17,253,o),
(6,247,o),
(-3,238,cs),
(-9,230,o),
(-19,221,o),
(-16,208,cs),
(-14,193,o),
(5,191,o),
(15,189,cs),
(74,180,o),
(74,180,o),
(88,102,cs),
(89,99,o),
(89,97,o),
(90,93,cs),
(90,93,o),
(91,93,o),
(91,93,cs),
(95,69,o),
(97,46,o),
(103,23,cs),
(106,13,o),
(114,-3,o),
(123,-3,cs)
);
}
);
width = 554;
},
{
layerId = "2CBB5782-2C08-483D-96E9-15912637AE76";
shapes = (
{
closed = 1;
nodes = (
(207,189,o),
(219,208,o),
(219,220,cs),
(219,272,o),
(227,319,o),
(227,372,cs),
(227,391,o),
(227,392,o),
(234,391,cs),
(274,380,o),
(315,371,o),
(360,358,cs),
(385,349,o),
(387,345,o),
(382,317,cs),
(373,265,o),
(373,211,o),
(397,142,cs),
(400,133,o),
(406,124,o),
(420,115,cs),
(441,104,o),
(452,120,o),
(452,132,cs),
(452,187,o),
(450,244,o),
(447,302,cs),
(445,328,o),
(445,328,o),
(469,318,cs),
(512,302,o),
(557,285,o),
(607,268,c),
(615,263,o),
(658,255,o),
(658,268,cs),
(658,277,o),
(633,286,o),
(619,293,cs),
(580,310,o),
(539,328,o),
(494,346,cs),
(461,359,o),
(454,367,o),
(458,400,cs),
(463,442,o),
(467,485,o),
(476,524,cs),
(489,588,o),
(478,672,o),
(524,704,cs),
(526,706,o),
(527,708,o),
(526,712,cs),
(523,722,o),
(526,728,o),
(513,737,cs),
(503,745,o),
(474,754,o),
(466,748,cs),
(451,735,o),
(436,726,o),
(433,711,cs),
(423,665,o),
(419,617,o),
(413,570,cs),
(406,515,o),
(401,461,o),
(393,410,cs),
(391,396,o),
(398,384,o),
(381,391,cs),
(342,405,o),
(300,417,o),
(255,431,c),
(237,435,o),
(225,445,o),
(225,471,cs),
(225,524,o),
(224,578,o),
(224,631,cs),
(224,656,o),
(228,677,o),
(226,699,cs),
(225,711,o),
(215,729,o),
(195,740,cs),
(168,756,o),
(147,718,o),
(152,728,c),
(146,719,o),
(149,714,o),
(149,706,cs),
(149,635,o),
(154,559,o),
(157,486,cs),
(159,451,o),
(159,451,o),
(132,457,cs),
(120,460,o),
(100,464,o),
(83,464,cs),
(74,464,o),
(44,465,o),
(44,451,cs),
(44,439,o),
(69,424,o),
(86,412,cs),
(164,362,o),
(158,364,o),
(158,301,cs),
(158,298,o),
(158,296,o),
(158,291,c),
(158,291,o),
(159,291,o),
(159,291,c),
(159,272,o),
(157,255,o),
(160,235,cs),
(161,224,o),
(168,211,o),
(185,201,cs)
);
}
);
width = 554;
}
);
unicode = 72;
},
{
glyphname = I;
lastChange = "2023-03-09 22:14:45 +0000";
layers = (
{
layerId = m01;
shapes = (
{
closed = 1;
nodes = (
(199,21,o),
(224,27,o),
(247,32,c),
(373,63,o),
(499,93,o),
(624,124,c),
(629,125,o),
(633,124,o),
(636,126,c),
(640,129,o),
(643,133,o),
(643,137,c),
(643,139,o),
(640,144,o),
(636,144,c),
(628,147,o),
(619,148,o),
(611,147,c),
(547,138,o),
(483,130,o),
(419,119,c),
(387,113,o),
(383,114,o),
(386,146,c),
(390,171,o),
(389,197,o),
(394,223,c),
(417,338,o),
(440,454,o),
(464,569,c),
(475,623,o),
(479,627,o),
(533,636,c),
(584,642,o),
(633,647,o),
(684,654,c),
(707,657,o),
(732,661,o),
(755,666,c),
(760,667,o),
(762,674,o),
(765,678,c),
(761,681,o),
(756,685,o),
(752,685,c),
(736,686,o),
(721,686,o),
(705,686,c),
(705,686,o),
(705,686,o),
(705,687,c),
(668,683,o),
(630,679,o),
(593,676,c),
(507,668,o),
(421,661,o),
(335,654,c),
(227,644,o),
(121,632,o),
(13,622,c),
(-10,620,o),
(-41,622,o),
(-40,592,c),
(-38,562,o),
(-6,565,o),
(16,567,c),
(85,576,o),
(152,587,o),
(220,596,c),
(278,604,o),
(335,612,o),
(392,618,c),
(408,620,o),
(421,618,o),
(418,595,c),
(407,527,o),
(398,458,o),
(387,390,c),
(375,310,o),
(363,231,o),
(352,151,c),
(348,130,o),
(359,103,o),
(327,95,c),
(303,89,o),
(273,71,o),
(257,80,c),
(218,103,o),
(191,75,o),
(161,68,c),
(151,67,o),
(136,53,o),
(136,40,cs),
(136,25,o),
(162,22,o),
(175,21,c)
);
}
);
width = 745;
},
{
layerId = "4FA42A6D-6079-488C-BBF5-0F13D00932C7";
shapes = (
{
closed = 1;
nodes = (
(335,233,o),
(357,237,o),
(381,240,cs),
(490,260,o),
(603,279,o),
(718,299,c),
(722,299,o),
(724,299,o),
(726,299,c),
(727,306,o),
(726,336,o),
(725,337,cs),
(718,351,o),
(702,373,o),
(691,371,c),
(682,373,o),
(677,374,o),
(667,373,cs),
(609,367,o),
(548,362,o),
(487,355,cs),
(475,354,o),
(470,353,o),
(469,350,c),
(465,361,o),
(460,368,o),
(456,383,cs),
(442,450,o),
(426,524,o),
(410,603,cs),
(406,619,o),
(406,619,o),
(459,625,cs),
(505,628,o),
(551,632,o),
(601,636,cs),
(621,638,o),
(645,640,o),
(668,645,c),
(672,647,o),
(673,658,o),
(703,685,c),
(648,707,o),
(626,716,o),
(625,716,cs),
(613,716,o),
(600,716,o),
(587,716,c),
(602,687,o),
(602,687,o),
(602,687,c),
(550,714,o),
(510,712,o),
(472,710,cs),
(392,705,o),
(309,700,o),
(226,696,cs),
(125,690,o),
(25,682,o),
(-79,676,cs),
(-122,672,o),
(-139,670,o),
(-111,623,cs),
(-80,574,o),
(-57,578,o),
(-25,581,cs),
(38,586,o),
(99,593,o),
(165,599,cs),
(218,604,o),
(271,609,o),
(327,613,cs),
(339,614,o),
(339,614,o),
(332,634,c),
(343,596,o),
(357,552,o),
(370,505,cs),
(383,460,o),
(397,412,o),
(415,358,cs),
(421,340,o),
(406,340,o),
(405,340,c),
(387,336,o),
(361,324,o),
(345,329,cs),
(291,346,o),
(283,327,o),
(251,323,cs),
(239,322,o),
(212,324,o),
(212,262,cs),
(212,220,o),
(298,234,o),
(312,233,cs)
);
}
);
width = 745;
},
{
layerId = "5563113E-3DD8-48BA-8230-66BC42B26329";
shapes = (
{
closed = 1;
nodes = (
(59,-126,o),
(72,-129,o),
(85,-133,c),
(151,-149,o),
(218,-165,o),
(284,-181,c),
(287,-182,o),
(289,-184,o),
(291,-184,c),
(293,-182,o),
(294,-179,o),
(294,-175,c),
(294,-173,o),
(293,-167,o),
(291,-166,c),
(286,-159,o),
(282,-155,o),
(277,-153,c),
(243,-138,o),
(210,-123,o),
(176,-110,c),
(159,-104,o),
(157,-102,o),
(158,-70,c),
(160,-47,o),
(160,-21,o),
(162,4,c),
(175,110,o),
(187,217,o),
(199,324,c),
(205,374,o),
(207,376,o),
(236,365,c),
(263,352,o),
(289,339,o),
(316,327,c),
(328,322,o),
(341,316,o),
(354,312,c),
(356,312,o),
(357,318,o),
(359,321,c),
(357,325,o),
(354,331,o),
(352,333,c),
(343,340,o),
(336,345,o),
(327,351,c),
(327,351,o),
(327,351,o),
(327,352,c),
(307,362,o),
(287,372,o),
(268,383,c),
(222,407,o),
(177,431,o),
(131,456,c),
(74,486,o),
(18,514,o),
(-39,543,c),
(-52,551,o),
(-68,564,o),
(-67,533,c),
(-66,502,o),
(-49,493,o),
(-38,488,c),
(-1,471,o),
(34,457,o),
(70,441,c),
(101,427,o),
(131,414,o),
(161,399,c),
(170,395,o),
(177,388,o),
(175,367,c),
(169,303,o),
(164,237,o),
(159,173,c),
(152,98,o),
(146,23,o),
(140,-53,c),
(138,-72,o),
(144,-104,o),
(127,-100,c),
(114,-97,o),
(98,-103,o),
(90,-89,c),
(69,-51,o),
(55,-69,o),
(39,-65,c),
(34,-63,o),
(26,-76,o),
(26,-84,cs),
(26,-98,o),
(40,-112,o),
(46,-117,c)
);
}
);
width = 745;
},
{
layerId = "2CBB5782-2C08-483D-96E9-15912637AE76";
shapes = (
{
closed = 1;
nodes = (
(466,285,o),
(482,288,o),
(495,291,cs),
(560,309,o),
(627,327,o),
(692,345,c),
(697,345,o),
(702,346,o),
(706,349,cs),
(712,354,o),
(715,360,o),
(715,367,cs),
(715,376,o),
(709,384,o),
(701,386,cs),
(694,388,o),
(687,389,o),
(680,388,cs),
(648,383,o),
(614,378,o),
(579,372,c),
(579,372,o),
(579,372,o),
(579,372,c),
(581,386,o),
(581,401,o),
(584,414,cs),
(596,481,o),
(608,549,o),
(621,615,c),
(624,639,o),
(624,639,o),
(644,642,cs),
(671,646,o),
(697,649,o),
(724,653,cs),
(736,655,o),
(750,657,o),
(762,660,cs),
(770,662,o),
(778,674,o),
(784,684,c),
(780,690,o),
(769,701,o),
(758,701,cs),
(755,701,o),
(751,701,o),
(748,701,c),
(748,687,o),
(748,687,o),
(748,687,c),
(723,702,o),
(698,697,o),
(673,696,cs),
(627,691,o),
(582,687,o),
(536,683,cs),
(478,677,o),
(422,670,o),
(366,664,cs),
(344,662,o),
(322,659,o),
(324,631,cs),
(326,604,o),
(348,600,o),
(371,602,cs),
(407,608,o),
(443,614,o),
(479,619,cs),
(509,624,o),
(539,628,o),
(570,632,cs),
(576,633,o),
(566,634,o),
(566,636,cs),
(560,596,o),
(556,556,o),
(550,516,cs),
(544,470,o),
(537,424,o),
(531,378,cs),
(528,357,o),
(526,355,o),
(521,354,cs),
(506,350,o),
(504,347,o),
(503,347,c),
(477,364,o),
(461,347,o),
(443,342,c),
(424,340,o),
(411,320,o),
(411,306,cs),
(411,290,o),
(436,287,o),
(452,285,cs)
);
}
);
width = 745;
}
);
unicode = 73;
},
{
glyphname = J;
lastChange = "2023-03-09 22:53:49 +0000";
layers = (
{
layerId = m01;
shapes = (
{
closed = 1;
nodes = (
(406,142,o),
(453,251,o),
(424,383,cs),
(413,432,o),
(399,479,o),
(386,527,cs),
(373,574,o),
(374,575,o),
(422,588,cs),
(527,615,o),
(632,645,o),
(736,674,cs),
(744,676,o),
(754,678,o),
(760,684,cs),
(763,687,o),
(763,694,o),
(763,700,cs),
(763,701,o),
(756,704,o),
(752,704,cs),
(745,704,o),
(739,700,o),
(732,698,cs),
(622,673,o),
(512,647,o),
(402,623,cs),
(383,619,o),
(362,624,o),
(342,624,cs),
(328,624,o),
(314,623,o),
(302,619,cs),
(279,612,o),
(258,600,o),
(236,595,cs),
(180,583,o),
(124,571,o),
(68,559,cs),
(48,555,o),
(34,546,o),
(40,524,cs),
(46,502,o),
(61,503,o),
(81,508,cs),
(151,526,o),
(223,543,o),
(294,558,cs),
(303,560,o),
(320,553,o),
(324,544,cs),
(359,471,o),
(394,395,o),
(394,310,cs),
(394,221,o),
(364,140,o),
(294,78,cs),
(230,22,o),
(147,29,o),
(96,97,cs),
(73,128,o),
(54,161,o),
(32,194,cs),
(28,200,o),
(21,210,o),
(12,210,cs),
(5,210,o),
(8,193,o),
(11,187,cs),
(38,140,o),
(60,92,o),
(94,51,cs),
(163,-34,o),
(258,-14,o),
(318,49,cs)
);
}
);
width = 723;
},
{
layerId = "4FA42A6D-6079-488C-BBF5-0F13D00932C7";
shapes = (
{
closed = 1;
nodes = (
(543,196,o),
(537,292,o),
(474,419,cs),
(452,461,o),
(426,507,o),
(399,558,cs),
(371,610,o),
(371,611,o),
(387,618,cs),
(455,647,o),
(516,676,o),
(571,701,cs),
(576,704,o),
(603,711,o),
(595,712,c),
(596,715,o),
(598,720,o),
(596,726,cs),
(595,727,o),
(564,730,o),
(562,730,cs),
(556,730,o),
(545,723,o),
(542,725,c),
(470,697,o),
(403,672,o),
(344,650,c),
(335,650,o),
(324,652,o),
(312,652,cs),
(295,652,o),
(274,649,o),
(269,645,cs),
(250,633,o),
(243,625,o),
(242,624,c),
(202,611,o),
(174,601,o),
(140,589,cs),
(120,582,o),
(101,583,o),
(116,556,cs),
(129,532,o),
(173,536,o),
(183,540,cs),
(233,561,o),
(277,578,o),
(315,590,c),
(306,581,o),
(293,589,o),
(303,575,cs),
(346,511,o),
(399,435,o),
(429,348,cs),
(460,259,o),
(467,174,o),
(444,123,cs),
(421,72,o),
(406,73,o),
(345,142,cs),
(329,162,o),
(306,190,o),
(277,227,c),
(268,235,o),
(234,251,o),
(228,251,cs),
(198,251,o),
(200,247,o),
(206,237,c),
(244,188,o),
(263,154,o),
(315,97,cs),
(398,6,o),
(493,39,o),
(511,95,cs)
);
}
);
width = 723;
},
{
layerId = "5563113E-3DD8-48BA-8230-66BC42B26329";
shapes = (
{
closed = 1;
nodes = (
(516,9,o),
(573,97,o),
(585,217,cs),
(589,261,o),
(591,303,o),
(593,346,cs),
(596,379,o),
(596,379,o),
(621,381,cs),
(693,386,o),
(767,393,o),
(840,401,cs),
(846,401,o),
(856,401,o),
(864,407,cs),
(869,412,o),
(872,423,o),
(875,433,c),
(870,439,o),
(864,444,o),
(860,445,cs),
(854,446,o),
(848,445,o),
(843,444,c),
(767,441,o),
(691,438,o),
(616,436,c),
(605,436,o),
(594,444,o),
(580,447,cs),
(571,450,o),
(560,451,o),
(550,449,cs),
(533,447,o),
(517,441,o),
(503,441,cs),
(465,441,o),
(426,439,o),
(389,439,cs),
(371,439,o),
(354,431,o),
(352,404,cs),
(351,377,o),
(364,370,o),
(385,372,c),
(433,374,o),
(483,376,o),
(532,378,c),
(534,377,o),
(538,374,o),
(537,371,c),
(543,302,o),
(549,233,o),
(530,164,cs),
(510,89,o),
(475,29,o),
(417,-11,cs),
(368,-44,o),
(327,-28,o),
(311,33,cs),
(303,64,o),
(298,95,o),
(292,127,c),
(290,136,o),
(288,149,o),
(276,152,cs),
(262,156,o),
(256,135,o),
(257,120,c),
(264,75,o),
(267,30,o),
(280,-11,cs),
(306,-104,o),
(380,-104,o),
(437,-56,cs)
);
}
);
width = 723;
},
{
layerId = "2CBB5782-2C08-483D-96E9-15912637AE76";
shapes = (
{
closed = 1;
nodes = (
(400,250,o),
(456,330,o),
(424,452,cs),
(411,500,o),
(397,542,o),
(386,575,cs),
(382,589,o),
(382,589,o),
(422,583,cs),
(523,567,o),
(628,554,o),
(736,539,cs),
(749,537,o),
(743,534,o),
(761,543,c),
(763,549,o),
(763,565,o),
(763,569,cs),
(763,570,o),
(753,595,o),
(752,596,cs),
(748,597,o),
(741,596,o),
(732,597,c),
(622,617,o),
(512,636,o),
(402,656,cs),
(383,660,o),
(360,672,o),
(342,678,cs),
(330,682,o),
(319,686,o),
(302,688,cs),
(281,690,o),
(267,688,o),
(236,693,cs),
(180,704,o),
(124,714,o),
(68,725,cs),
(36,731,o),
(34,700,o),
(40,681,cs),
(50,650,o),
(47,647,o),
(81,642,cs),
(147,632,o),
(220,620,o),
(294,605,cs),
(305,602,o),
(327,586,o),
(324,593,c),
(364,516,o),
(394,456,o),
(394,401,cs),
(394,343,o),
(370,301,o),
(294,276,cs),
(234,257,o),
(141,297,o),
(96,357,cs),
(58,410,o),
(56,417,o),
(32,452,cs),
(22,468,o),
(20,476,o),
(12,479,cs),
(3,482,o),
(9,433,o),
(11,430,cs),
(43,376,o),
(66,330,o),
(94,294,cs),
(172,195,o),
(250,183,o),
(318,214,cs)
);
}
);
width = 723;
}
);
unicode = 74;
},
{
glyphname = K;
lastChange = "2023-03-10 01:37:16 +0000";
layers = (
{
layerId = m01;
shapes = (
{
closed = 1;
nodes = (
(656,5,o),
(675,4,o),
(675,14,cs),
(675,23,o),
(661,28,o),
(652,31,c),
(547,62,o),
(439,91,o),
(334,125,c),
(273,145,o),
(213,170,o),
(157,200,c),
(110,224,o),
(105,249,o),
(128,297,c),
(162,367,o),
(203,434,o),
(260,489,c),
(329,560,o),
(393,636,o),
(482,682,c),
(506,694,o),
(531,709,o),
(561,694,c),
(566,692,o),
(584,701,o),
(584,706,c),
(585,717,o),
(580,732,o),
(573,737,c),
(564,743,o),
(549,742,o),
(537,741,c),
(487,733,o),
(443,713,o),
(405,680,c),
(275,566,o),
(148,449,o),
(74,286,c),
(87,346,o),
(101,405,o),
(110,465,c),
(120,518,o),
(128,572,o),
(130,626,c),
(132,638,o),
(120,666,o),
(103,666,cs),
(87,666,o),
(85,639,o),
(83,625,c),
(77,574,o),
(78,523,o),
(69,473,c),
(49,350,o),
(25,228,o),
(4,106,c),
(0,90,o),
(-2,72,o),
(2,56,c),
(5,46,o),
(22,42,o),
(32,34,c),
(37,45,o),
(47,55,o),
(47,64,c),
(53,124,o),
(56,184,o),
(61,244,c),
(65,244,o),
(68,244,o),
(71,244,c),
(84,183,o),
(129,153,o),
(182,136,c),
(297,99,o),
(414,67,o),
(530,33,c),
(568,23,o),
(608,14,o),
(647,7,c)
);
}
);
width = 675;
},
{
layerId = "4FA42A6D-6079-488C-BBF5-0F13D00932C7";
shapes = (
{
closed = 1;
nodes = (
(713,-139,o),
(750,-135,o),
(750,-113,cs),
(750,-97,o),
(730,-89,o),
(705,-83,cs),
(592,-61,o),
(476,-40,o),
(363,-15,cs),
(299,-2,o),
(236,16,o),
(177,37,cs),
(137,51,o),
(136,54,o),
(157,83,cs),
(193,133,o),
(235,178,o),
(294,216,cs),
(370,268,o),
(436,321,o),
(526,352,cs),
(553,361,o),
(569,368,o),
(589,360,cs),
(610,354,o),
(650,367,o),
(651,385,cs),
(652,399,o),
(644,415,o),
(628,423,cs),
(611,430,o),
(590,430,o),
(570,429,c),
(512,422,o),
(458,406,o),
(414,381,cs),
(314,322,o),
(214,261,o),
(135,188,c),
(137,195,o),
(138,202,o),
(140,209,cs),
(151,247,o),
(160,287,o),
(162,327,c),
(165,346,o),
(141,375,o),
(106,375,cs),
(67,375,o),
(61,347,o),
(57,329,cs),
(51,291,o),
(52,255,o),
(42,221,cs),
(20,133,o),
(-4,45,o),
(-27,-43,c),
(-32,-56,o),
(-35,-72,o),
(-29,-87,cs),
(-27,-95,o),
(14,-113,o),
(39,-127,c),
(42,-103,o),
(71,-97,o),
(72,-78,cs),
(78,-40,o),
(81,-2,o),
(85,35,c),
(71,35,o),
(71,35,o),
(71,35,c),
(77,-10,o),
(128,-31,o),
(182,-42,cs),
(307,-69,o),
(434,-92,o),
(559,-116,cs),
(601,-123,o),
(645,-130,o),
(687,-136,cs)
);
}
);
width = 675;
},
{
layerId = "5563113E-3DD8-48BA-8230-66BC42B26329";
shapes = (
{
closed = 1;
nodes = (
(329,80,o),
(340,75,o),
(346,83,cs),
(351,91,o),
(344,100,o),
(340,104,c),
(293,158,o),
(243,210,o),
(197,266,c),
(171,299,o),
(147,336,o),
(130,376,c),
(114,409,o),
(125,432,o),
(165,469,c),
(225,522,o),
(287,571,o),
(352,606,c),
(433,651,o),
(514,702,o),
(594,721,c),
(616,725,o),
(640,732,o),
(650,711,c),
(652,708,o),
(667,712,o),
(670,716,c),
(677,726,o),
(682,740,o),
(681,746,c),
(679,754,o),
(669,757,o),
(661,759,c),
(625,764,o),
(588,758,o),
(546,738,c),
(404,670,o),
(261,598,o),
(126,473,c),
(167,522,o),
(208,571,o),
(247,622,c),
(282,666,o),
(316,712,o),
(348,758,c),
(356,769,o),
(364,796,o),
(353,801,cs),
(343,804,o),
(328,781,o),
(318,770,c),
(286,726,o),
(259,681,o),
(226,639,c),
(146,535,o),
(64,434,o),
(-16,331,c),
(-27,318,o),
(-39,303,o),
(-44,288,c),
(-49,278,o),
(-40,271,o),
(-38,261,c),
(-29,269,o),
(-17,276,o),
(-12,283,c),
(24,335,o),
(59,387,o),
(95,439,c),
(97,438,o),
(100,437,o),
(102,436,c),
(76,379,o),
(87,342,o),
(109,314,c),
(160,252,o),
(214,195,o),
(267,136,c),
(285,118,o),
(304,100,o),
(324,85,c)
);
}
);
width = 675;
},
{
layerId = "2CBB5782-2C08-483D-96E9-15912637AE76";
shapes = (
{
closed = 1;
nodes = (
(534,-85,o),
(550,-85,o),
(550,-77,cs),
(550,-71,o),
(540,-66,o),
(534,-63,cs),
(485,-44,o),
(434,-25,o),
(383,-3,cs),
(356,9,o),
(328,25,o),
(299,45,cs),
(281,57,o),
(278,75,o),
(289,103,cs),
(305,151,o),
(325,194,o),
(350,226,cs),
(385,274,o),
(415,322,o),
(454,349,cs),
(467,358,o),
(473,365,o),
(484,358,c),
(488,352,o),
(507,363,o),
(507,367,cs),
(508,376,o),
(505,383,o),
(499,389,cs),
(493,394,o),
(481,393,o),
(476,392,cs),
(450,386,o),
(427,372,o),
(409,352,cs),
(358,291,o),
(308,231,o),
(273,155,c),
(275,175,o),
(278,193,o),
(281,212,cs),
(285,247,o),
(289,282,o),
(290,316,c),
(291,324,o),
(285,344,o),
(270,344,cs),
(256,344,o),
(255,332,o),
(253,316,cs),
(250,282,o),
(251,249,o),
(246,218,cs),
(237,138,o),
(226,60,o),
(216,-17,cs),
(214,-29,o),
(213,-39,o),
(215,-50,cs),
(217,-59,o),
(235,-62,o),
(240,-74,c),
(242,-60,o),
(250,-51,o),
(250,-45,c),
(253,-7,o),
(255,31,o),
(257,68,c),
(255,68,o),
(255,68,o),
(255,68,c),
(255,30,o),
(278,11,o),
(305,-1,cs),
(360,-24,o),
(415,-45,o),
(472,-67,cs),
(489,-73,o),
(508,-79,o),
(529,-84,cs)
);
}
);
width = 675;
}
);
unicode = 75;
},
{
glyphname = L;
lastChange = "2023-03-09 22:16:46 +0000";
layers = (
{
layerId = m01;
shapes = (
{
closed = 1;
nodes = (
(157,10,o),
(202,32,o),
(262,51,cs),
(351,79,o),
(441,92,o),
(534,99,cs),
(552,100,o),
(588,92,o),
(588,111,cs),
(588,131,o),
(552,129,o),
(534,129,cs),
(416,132,o),
(301,108,o),
(188,70,cs),
(153,58,o),
(116,53,o),
(79,51,cs),
(41,48,o),
(36,56,o),
(46,92,cs),
(57,135,o),
(72,178,o),
(82,222,cs),
(115,363,o),
(158,501,o),
(215,634,cs),
(220,646,o),
(228,659,o),
(229,672,cs),
(230,682,o),
(232,703,o),
(222,703,cs),
(209,703,o),
(194,697,o),
(188,688,cs),
(178,675,o),
(173,655,o),
(168,639,cs),
(113,450,o),
(58,262,o),
(3,72,cs),
(-6,40,o),
(8,16,o),
(41,10,cs),
(52,8,o),
(64,10,o),
(75,10,cs),
(79,10,o),
(105,10,o),
(109,10,cs)
);
}
);
width = 588;
},
{
layerId = "4FA42A6D-6079-488C-BBF5-0F13D00932C7";
shapes = (
{
closed = 1;
nodes = (
(374,222,o),
(400,226,o),
(426,221,cs),
(473,215,o),
(516,198,o),
(561,175,cs),
(568,171,o),
(598,143,o),
(598,161,cs),
(598,177,o),
(569,192,o),
(560,197,cs),
(498,239,o),
(435,258,o),
(380,264,cs),
(359,266,o),
(346,271,o),
(328,281,cs),
(318,287,o),
(317,292,o),
(322,316,cs),
(327,347,o),
(335,374,o),
(340,402,cs),
(357,499,o),
(379,589,o),
(408,670,cs),
(411,679,o),
(415,686,o),
(415,694,cs),
(417,709,o),
(419,715,o),
(402,725,cs),
(392,731,o),
(377,734,o),
(375,731,cs),
(368,720,o),
(367,711,o),
(364,700,cs),
(336,574,o),
(308,450,o),
(280,327,cs),
(275,304,o),
(283,287,o),
(302,268,cs),
(311,259,o),
(322,254,o),
(327,251,cs),
(329,250,o),
(342,242,o),
(344,241,cs)
);
}
);
width = 588;
},
{
layerId = "5563113E-3DD8-48BA-8230-66BC42B26329";
shapes = (
{
closed = 1;
nodes = (
(185,-56,o),
(244,-47,o),
(301,-36,c),
(380,-20,o),
(467,-13,o),
(558,-9,c),
(585,-7,o),
(681,-68,o),
(681,6,c),
(681,74,o),
(577,31,o),
(548,31,c),
(430,32,o),
(322,18,o),
(219,-4,c),
(189,-10,o),
(153,-13,o),
(117,-14,c),
(80,-16,o),
(78,-15,o),
(77,-1,c),
(75,23,o),
(76,49,o),
(73,74,c),
(63,156,o),
(64,233,o),
(81,309,c),
(82,314,o),
(86,330,o),
(83,338,c),
(81,344,o),
(67,363,o),
(62,363,cs),
(47,363,o),
(40,362,o),
(31,352,c),
(24,344,o),
(22,326,o),
(22,315,c),
(25,205,o),
(27,97,o),
(29,-13,c),
(29,-38,o),
(51,-56,o),
(90,-60,c),
(103,-62,o),
(114,-60,o),
(125,-60,cs),
(126,-60,o),
(124,-67,o),
(130,-66,cs)
);
}
);
width = 588;
},
{
layerId = "2CBB5782-2C08-483D-96E9-15912637AE76";
shapes = (
{
closed = 1;
nodes = (
(135,306,o),
(175,335,o),
(211,367,cs),
(262,412,o),
(315,446,o),
(374,476,cs),
(391,485,o),
(422,488,o),
(422,508,cs),
(422,527,o),
(383,513,o),
(363,507,c),
(286,475,o),
(216,427,o),
(152,368,cs),
(133,350,o),
(111,337,o),
(87,325,cs),
(66,315,o),
(66,315,o),
(63,341,cs),
(60,375,o),
(58,410,o),
(54,445,cs),
(40,554,o),
(34,664,o),
(37,776,cs),
(38,786,o),
(39,797,o),
(37,808,cs),
(34,820,o),
(21,827,o),
(21,836,cs),
(21,845,o),
(1,822,o),
(-3,808,cs),
(-6,795,o),
(-5,779,o),
(-5,766,c),
(7,616,o),
(18,467,o),
(30,315,cs),
(31,286,o),
(50,270,o),
(76,276,cs),
(83,277,o),
(90,281,o),
(96,284,c),
(96,283,o),
(96,283,o),
(99,275,c)
);
}
);
width = 588;
}
);
unicode = 76;
},
{
glyphname = M;
lastChange = "2023-03-10 01:32:37 +0000";
layers = (
{
layerId = m01;
shapes = (
{
closed = 1;
nodes = (
(775,125,o),
(776,133,o),
(775,139,c),
(771,168,o),
(763,197,o),
(761,226,c),
(757,252,o),
(760,280,o),
(760,307,c),
(763,308,o),
(766,308,o),
(769,308,c),
(760,381,o),
(753,453,o),
(741,524,c),
(734,565,o),
(714,570,o),
(683,544,c),
(647,515,o),
(616,481,o),
(583,449,c),
(550,416,o),
(517,383,o),
(482,349,c),
(478,346,o),
(469,346,o),
(463,344,c),
(461,350,o),
(459,357,o),
(460,364,c),
(460,372,o),
(463,378,o),
(465,385,c),
(480,442,o),
(496,498,o),
(508,556,c),
(513,588,o),
(512,624,o),
(509,657,c),
(504,689,o),
(488,695,o),
(462,677,c),
(446,666,o),
(431,655,o),
(418,641,c),
(330,544,o),
(243,447,o),
(157,349,c),
(134,324,o),
(116,285,o),
(87,276,c),
(36,259,o),
(25,217,o),
(2,180,c),
(-2,173,o),
(1,157,o),
(7,151,c),
(9,146,o),
(27,149,o),
(33,153,c),
(52,168,o),
(70,184,o),
(86,203,c),
(178,308,o),
(268,414,o),
(358,519,c),
(385,549,o),
(412,579,o),
(440,608,c),
(449,618,o),
(463,621,o),
(474,628,c),
(475,615,o),
(480,600,o),
(478,587,c),
(472,550,o),
(464,513,o),
(455,478,c),
(446,440,o),
(434,403,o),
(423,366,c),
(416,345,o),
(414,324,o),
(435,308,c),
(456,291,o),
(476,300,o),
(494,311,c),
(505,319,o),
(515,327,o),
(524,336,c),
(573,385,o),
(621,434,o),
(670,483,c),
(679,491,o),
(692,495,o),
(702,502,c),
(706,492,o),
(712,482,o),
(713,471,c),
(717,411,o),
(721,349,o),
(723,288,c),
(724,259,o),
(718,230,o),
(724,202,c),
(730,175,o),
(744,150,o),
(756,125,c),
(757,121,o),
(767,121,o),
(774,120,c)
);
}
);
width = 795;
},
{
layerId = "4FA42A6D-6079-488C-BBF5-0F13D00932C7";
shapes = (
{
closed = 1;
nodes = (
(828,-126,o),
(830,-112,o),
(829,-99,cs),
(826,-67,o),
(821,-36,o),
(820,-6,cs),
(818,17,o),
(820,42,o),
(820,68,c),
(801,63,o),
(793,64,o),
(827,58,c),
(820,146,o),
(816,231,o),
(808,316,cs),
(800,394,o),
(759,392,o),
(735,361,cs),
(712,333,o),
(692,299,o),
(671,269,cs),
(652,237,o),
(631,205,o),
(610,173,cs),
(598,159,o),
(619,173,o),
(632,182,c),
(635,165,o),
(634,173,o),
(634,170,c),
(634,179,o),
(635,183,o),
(638,192,c),
(647,251,o),
(657,311,o),
(664,372,cs),
(667,407,o),
(667,447,o),
(664,484,cs),
(660,547,o),
(623,553,o),
(599,528,cs),
(590,519,o),
(578,507,o),
(570,490,cs),
(515,397,o),
(462,302,o),
(409,206,cs),
(393,180,o),
(384,146,o),
(374,143,c),
(333,127,o),
(325,75,o),
(311,40,cs),
(307,27,o),
(309,6,o),
(315,-8,cs),
(323,-30,o),
(354,-32,o),
(366,-19,cs),
(380,-4,o),
(391,13,o),
(401,33,cs),
(458,135,o),
(513,239,o),
(569,343,cs),
(586,370,o),
(602,400,o),
(620,428,c),
(620,428,o),
(620,428,o),
(605,410,c),
(604,423,o),
(604,419,o),
(604,420,cs),
(600,381,o),
(595,343,o),
(590,306,cs),
(585,267,o),
(577,229,o),
(570,191,cs),
(566,167,o),
(564,137,o),
(581,110,cs),
(604,75,o),
(632,83,o),
(650,100,cs),
(658,108,o),
(665,117,o),
(671,126,cs),
(701,173,o),
(731,221,o),
(761,268,c),
(761,268,o),
(761,268,o),
(752,254,c),
(749,267,o),
(749,267,o),
(749,267,cs),
(751,203,o),
(754,135,o),
(756,71,cs),
(756,41,o),
(752,9,o),
(756,-24,cs),
(760,-56,o),
(769,-85,o),
(776,-113,cs),
(781,-139,o),
(807,-132,o),
(829,-152,c)
);
}
);
width = 795;
},
{
layerId = "5563113E-3DD8-48BA-8230-66BC42B26329";
shapes = (
{
closed = 1;
nodes = (
(454,305,o),
(458,321,o),
(456,331,cs),
(453,360,o),
(448,387,o),
(447,416,c),
(444,438,o),
(446,463,o),
(446,488,c),
(446,488,o),
(447,488,o),
(453,491,c),
(446,565,o),
(441,639,o),
(433,710,cs),
(428,758,o),
(404,768,o),
(377,725,cs),
(353,690,o),
(331,650,o),
(309,612,cs),
(288,574,o),
(266,535,o),
(243,496,c),
(243,496,o),
(243,496,o),
(245,499,c),
(246,499,o),
(246,500,o),
(246,500,c),
(246,506,o),
(248,511,o),
(250,520,cs),
(260,580,o),
(270,638,o),
(278,699,cs),
(282,732,o),
(281,770,o),
(279,803,cs),
(275,845,o),
(253,851,o),
(230,820,cs),
(219,807,o),
(209,792,o),
(200,775,cs),
(141,662,o),
(83,550,o),
(26,437,cs),
(11,407,o),
(0,368,o),
(-18,356,cs),
(-55,327,o),
(-63,280,o),
(-77,240,cs),
(-82,228,o),
(-79,211,o),
(-74,203,c),
(-68,188,o),
(-48,197,o),
(-40,207,cs),
(-27,227,o),
(-14,246,o),
(-3,269,cs),
(58,390,o),
(118,512,o),
(178,632,cs),
(196,667,o),
(214,702,o),
(232,736,c),
(233,739,o),
(235,741,o),
(238,744,c),
(239,738,o),
(239,733,o),
(238,727,cs),
(234,689,o),
(229,652,o),
(223,615,cs),
(217,576,o),
(209,536,o),
(202,498,cs),
(197,474,o),
(195,447,o),
(213,432,cs),
(232,413,o),
(249,426,o),
(267,446,c),
(274,456,o),
(281,466,o),
(288,477,cs),
(320,535,o),
(353,592,o),
(385,650,cs),
(387,653,o),
(390,657,o),
(393,660,c),
(394,657,o),
(395,653,o),
(395,650,cs),
(397,592,o),
(400,531,o),
(401,470,cs),
(402,442,o),
(398,411,o),
(402,382,cs),
(406,355,o),
(416,332,o),
(423,310,cs),
(427,295,o),
(440,302,o),
(453,300,c)
);
}
);
width = 795;
},
{
layerId = "2CBB5782-2C08-483D-96E9-15912637AE76";
shapes = (
{
closed = 1;
nodes = (
(561,-85,o),
(560,-73,o),
(558,-64,cs),
(552,-37,o),
(543,-9,o),
(538,20,cs),
(532,46,o),
(529,75,o),
(525,102,c),
(519,93,o),
(502,96,o),
(529,98,c),
(514,171,o),
(498,242,o),
(482,313,cs),
(473,352,o),
(438,364,o),
(423,326,cs),
(411,291,o),
(401,255,o),
(391,225,cs),
(380,185,o),
(369,150,o),
(360,117,c),
(360,117,o),
(360,117,o),
(375,131,cs),
(376,133,o),
(376,134,o),
(376,135,cs),
(374,143,o),
(375,150,o),
(376,155,cs),
(373,214,o),
(371,271,o),
(368,328,cs),
(365,360,o),
(360,395,o),
(353,427,cs),
(341,480,o),
(307,455,o),
(301,442,cs),
(295,429,o),
(288,413,o),
(285,403,cs),
(258,296,o),
(233,194,o),
(209,95,cs),
(202,64,o),
(199,25,o),
(193,19,cs),
(164,-9,o),
(167,-48,o),
(163,-84,cs),
(161,-98,o),
(165,-108,o),
(173,-117,c),
(180,-121,o),
(205,-114,o),
(208,-108,cs),
(216,-87,o),
(223,-70,o),
(226,-53,cs),
(254,61,o),
(279,172,o),
(303,278,cs),
(312,310,o),
(320,345,o),
(328,372,c),
(328,372,o),
(328,372,o),
(318,352,c),
(320,351,o),
(320,351,o),
(320,351,c),
(323,313,o),
(325,276,o),
(326,242,cs),
(328,203,o),
(328,165,o),
(329,130,cs),
(329,108,o),
(330,90,o),
(346,71,cs),
(356,60,o),
(386,58,o),
(397,82,cs),
(402,91,o),
(407,104,o),
(409,109,cs),
(425,166,o),
(440,218,o),
(453,265,c),
(453,265,o),
(453,265,o),
(451,248,c),
(448,254,o),
(448,254,o),
(448,254,c),
(459,195,o),
(470,134,o),
(480,74,cs),
(486,46,o),
(488,17,o),
(495,-11,cs),
(502,-36,o),
(513,-62,o),
(523,-86,c),
(527,-91,o),
(542,-89,o),
(560,-94,c)
);
}
);
width = 795;
}
);
unicode = 77;
},
{
glyphname = N;
lastChange = "2023-03-10 01:36:01 +0000";
layers = (
{
layerId = m01;
shapes = (
{
closed = 1;
nodes = (
(37,22,o),
(51,21,o),
(60,28,c),
(68,33,o),
(70,48,o),
(71,58,c),
(74,91,o),
(70,126,o),
(77,159,c),
(93,230,o),
(114,301,o),
(129,372,c),
(142,428,o),
(149,484,o),
(158,541,c),
(160,547,o),
(162,551,o),
(164,557,c),
(168,552,o),
(175,549,o),
(177,544,c),
(211,480,o),
(244,416,o),
(275,353,c),
(305,291,o),
(332,227,o),
(365,166,c),
(394,111,o),
(464,88,o),
(507,170,c),
(542,236,o),
(566,306,o),
(563,381,c),
(560,463,o),
(547,546,o),
(537,628,c),
(533,667,o),
(519,706,o),
(544,744,c),
(547,752,o),
(537,776,o),
(527,782,c),
(507,792,o),
(501,773,o),
(498,757,c),
(496,740,o),
(495,723,o),
(496,706,c),
(507,620,o),
(518,536,o),
(531,450,c),
(536,359,o),
(522,272,o),
(478,191,c),
(454,147,o),
(421,146,o),
(394,189,c),
(377,217,o),
(365,248,o),
(350,278,c),
(294,390,o),
(240,501,o),
(183,613,c),
(177,624,o),
(160,630,o),
(148,638,c),
(142,625,o),
(133,613,o),
(129,598,c),
(108,486,o),
(89,373,o),
(68,260,c),
(54,190,o),
(35,120,o),
(20,51,c),
(18,41,o),
(24,30,o),
(25,19,c)
);
}
);
width = 583;
},
{
layerId = "4FA42A6D-6079-488C-BBF5-0F13D00932C7";
shapes = (
{
closed = 1;
nodes = (
(110,247,o),
(140,250,o),
(148,254,c),
(165,263,o),
(174,277,o),
(181,288,cs),
(195,312,o),
(202,335,o),
(214,353,cs),
(245,399,o),
(280,445,o),
(311,492,cs),
(336,528,o),
(357,565,o),
(380,601,c),
(380,601,o),
(380,601,o),
(348,572,c),
(342,599,o),
(342,598,o),
(342,601,c),
(344,557,o),
(346,513,o),
(347,471,cs),
(348,429,o),
(347,385,o),
(349,342,cs),
(353,286,o),
(419,265,o),
(490,335,cs),
(533,378,o),
(573,427,o),
(595,481,cs),
(618,537,o),
(635,594,o),
(653,647,cs),
(664,678,o),
(664,696,o),
(687,714,c),
(699,726,o),
(701,757,o),
(689,768,cs),
(662,789,o),
(628,760,o),
(615,739,cs),
(609,728,o),
(601,715,o),
(596,700,cs),
(578,643,o),
(560,587,o),
(543,530,c),
(519,471,o),
(487,421,o),
(438,373,cs),
(432,367,o),
(432,367,o),
(431,372,cs),
(429,391,o),
(430,411,o),
(430,432,cs),
(427,509,o),
(425,584,o),
(422,662,cs),
(422,669,o),
(404,690,o),
(386,712,c),
(364,684,o),
(348,676,o),
(331,654,c),
(283,580,o),
(238,505,o),
(190,432,cs),
(160,387,o),
(128,342,o),
(96,296,cs),
(92,290,o),
(88,272,o),
(75,242,c)
);
}
);
width = 583;
},
{
layerId = "5563113E-3DD8-48BA-8230-66BC42B26329";
shapes = (
{
closed = 1;
nodes = (
(110,65,o),
(128,59,o),
(136,73,cs),
(140,80,o),
(140,98,o),
(138,110,cs),
(134,143,o),
(126,178,o),
(124,210,cs),
(121,280,o),
(120,351,o),
(117,423,cs),
(114,478,o),
(108,534,o),
(104,591,c),
(104,591,o),
(104,591,o),
(105,572,c),
(94,594,o),
(94,594,o),
(94,594,c),
(126,529,o),
(156,465,o),
(185,402,cs),
(214,340,o),
(240,276,o),
(270,215,cs),
(302,149,o),
(359,127,o),
(370,219,cs),
(380,285,o),
(382,357,o),
(366,433,cs),
(350,516,o),
(328,599,o),
(308,681,cs),
(298,721,o),
(284,757,o),
(292,792,cs),
(293,803,o),
(281,833,o),
(270,842,cs),
(247,859,o),
(241,839,o),
(242,810,cs),
(244,793,o),
(246,775,o),
(251,757,cs),
(272,671,o),
(293,587,o),
(315,501,cs),
(334,411,o),
(341,326,o),
(330,246,cs),
(325,210,o),
(320,209,o),
(301,245,cs),
(286,272,o),
(274,303,o),
(260,333,cs),
(208,445,o),
(157,556,o),
(105,668,cs),
(92,691,o),
(71,696,o),
(63,711,c),
(63,693,o),
(56,676,o),
(57,651,cs),
(65,539,o),
(74,426,o),
(80,313,cs),
(85,244,o),
(86,174,o),
(90,105,c),
(89,86,o),
(105,67,o),
(103,55,c)
);
}
);
width = 583;
},
{
layerId = "2CBB5782-2C08-483D-96E9-15912637AE76";
shapes = (
{
closed = 1;
nodes = (
(50,-195,o),
(65,-195,o),
(74,-185,c),
(83,-178,o),
(84,-157,o),
(84,-143,c),
(86,-98,o),
(78,-50,o),
(84,-5,c),
(96,93,o),
(113,191,o),
(125,289,c),
(135,367,o),
(139,444,o),
(145,522,c),
(147,530,o),
(149,536,o),
(150,544,c),
(155,538,o),
(163,534,o),
(166,527,c),
(208,442,o),
(248,356,o),
(287,272,c),
(324,189,o),
(358,103,o),
(399,21,c),
(435,-52,o),
(513,-80,o),
(554,35,c),
(589,127,o),
(609,224,o),
(601,327,c),
(591,439,o),
(571,551,o),
(554,663,c),
(548,716,o),
(529,768,o),
(554,822,c),
(557,833,o),
(544,865,o),
(532,873,c),
(510,885,o),
(505,859,o),
(502,837,c),
(501,814,o),
(502,790,o),
(504,767,c),
(522,650,o),
(540,536,o),
(561,419,c),
(573,295,o),
(564,175,o),
(521,62,c),
(498,0,o),
(462,-3,o),
(429,54,c),
(408,92,o),
(393,133,o),
(375,174,c),
(305,323,o),
(238,472,o),
(167,622,c),
(160,637,o),
(141,644,o),
(127,654,c),
(121,636,o),
(112,619,o),
(109,598,c),
(94,444,o),
(81,288,o),
(67,133,c),
(57,36,o),
(41,-61,o),
(29,-156,c),
(27,-170,o),
(35,-184,o),
(37,-199,c)
);
}
);
width = 583;
}
);
unicode = 78;
},
{
glyphname = O;
lastChange = "2023-03-09 22:17:57 +0000";
layers = (
{
layerId = m01;
shapes = (
{
closed = 1;
nodes = (
(330,40,o),
(364,51,o),
(397,67,cs),
(487,111,o),
(559,173,o),
(606,264,cs),
(638,327,o),
(654,395,o),
(630,464,cs),
(603,544,o),
(552,611,o),
(482,657,cs),
(434,688,o),
(378,708,o),
(321,723,cs),
(247,742,o),
(197,700,o),
(193,622,cs),
(192,610,o),
(186,595,o),
(178,585,cs),
(88,463,o),
(41,325,o),
(41,180,cs),
(41,164,o),
(39,147,o),
(42,133,cs),
(49,94,o),
(59,56,o),
(99,40,cs),
(162,15,o),
(228,-2,o),
(296,26,cs)
);
},
{
closed = 1;
nodes = (
(221,46,o),
(171,55,o),
(123,78,cs),
(77,101,o),
(71,146,o),
(77,188,c),
(96,311,o),
(123,434,o),
(195,542,cs),
(221,580,o),
(255,605,o),
(298,621,cs),
(339,637,o),
(365,620,o),
(364,574,cs),
(363,533,o),
(354,493,o),
(351,451,cs),
(350,444,o),
(350,429,o),
(358,429,cs),
(367,429,o),
(376,439,o),
(377,445,cs),
(392,517,o),
(448,602,o),
(385,659,cs),
(351,690,o),
(295,666,o),
(253,644,cs),
(247,641,o),
(238,644,o),
(229,644,cs),
(221,644,o),
(232,659,o),
(238,665,cs),
(246,673,o),
(259,683,o),
(269,682,cs),
(308,677,o),
(347,670,o),
(385,659,cs),
(482,631,o),
(552,563,o),
(588,469,cs),
(625,372,o),
(590,287,o),
(526,213,cs),
(458,134,o),
(369,87,o),
(271,60,cs)
);
}
);
width = 682;
},
{
layerId = "4FA42A6D-6079-488C-BBF5-0F13D00932C7";
shapes = (
{
closed = 1;
nodes = (
(325,27,o),
(359,34,o),
(394,47,cs),
(480,77,o),
(548,118,o),
(598,186,cs),
(627,227,o),
(645,280,o),
(621,328,cs),
(592,388,o),
(543,434,o),
(478,464,cs),
(428,487,o),
(374,500,o),
(319,511,cs),
(251,523,o),
(207,497,o),
(203,439,cs),
(202,431,o),
(194,422,o),
(185,413,cs),
(99,331,o),
(51,231,o),
(51,127,cs),
(51,116,o),
(49,102,o),
(52,93,cs),
(59,63,o),
(69,37,o),
(102,28,cs),
(167,9,o),
(227,-2,o),
(293,18,cs)
);
},
{
closed = 1;
nodes = (
(222,32,o),
(167,38,o),
(120,55,cs),
(66,74,o),
(61,102,o),
(67,132,cs),
(86,218,o),
(111,301,o),
(188,383,cs),
(211,407,o),
(248,426,o),
(295,439,cs),
(340,451,o),
(375,438,o),
(374,405,cs),
(373,378,o),
(364,350,o),
(361,318,c),
(360,314,o),
(362,303,o),
(358,303,cs),
(363,303,o),
(365,306,o),
(367,314,cs),
(381,361,o),
(441,426,o),
(380,465,cs),
(346,487,o),
(300,471,o),
(256,455,cs),
(248,452,o),
(236,455,o),
(229,455,cs),
(208,455,o),
(220,462,o),
(228,467,c),
(231,470,o),
(256,483,o),
(270,482,cs),
(311,478,o),
(350,473,o),
(387,465,cs),
(489,445,o),
(563,395,o),
(597,331,cs),
(635,260,o),
(600,205,o),
(532,150,cs),
(467,96,o),
(374,62,o),
(273,42,cs)
);
}
);
width = 682;
},
{
layerId = "5563113E-3DD8-48BA-8230-66BC42B26329";
shapes = (
{
closed = 1;
nodes = (
(292,276,o),
(309,288,o),
(326,304,cs),
(371,344,o),
(402,392,o),
(415,453,cs),
(423,494,o),
(422,537,o),
(396,573,cs),
(367,615,o),
(326,646,o),
(278,661,cs),
(245,670,o),
(209,674,o),
(173,673,cs),
(127,671,o),
(105,639,o),
(116,593,cs),
(117,585,o),
(115,576,o),
(113,569,cs),
(81,483,o),
(76,395,o),
(100,310,cs),
(103,301,o),
(104,291,o),
(108,283,cs),
(118,261,o),
(131,241,o),
(157,238,cs),
(198,234,o),
(239,235,o),
(274,263,cs)
);
},
{
closed = 1;
nodes = (
(231,300,o),
(206,298,o),
(180,302,cs),
(154,306,o),
(145,327,o),
(142,348,c),
(136,409,o),
(131,472,o),
(152,533,cs),
(159,555,o),
(171,570,o),
(190,584,cs),
(207,597,o),
(222,592,o),
(227,570,cs),
(232,551,o),
(233,530,o),
(238,510,cs),
(239,508,o),
(241,500,o),
(244,501,cs),
(249,502,o),
(251,508,o),
(251,511,cs),
(248,548,o),
(264,595,o),
(226,614,cs),
(205,625,o),
(182,605,o),
(165,589,cs),
(162,587,o),
(158,588,o),
(153,586,cs),
(150,585,o),
(153,593,o),
(155,597,cs),
(158,602,o),
(164,608,o),
(168,609,cs),
(186,612,o),
(206,615,o),
(226,614,cs),
(276,614,o),
(319,592,o),
(349,551,cs),
(379,510,o),
(373,465,o),
(353,420,cs),
(332,374,o),
(296,340,o),
(252,313,cs)
);
}
);
width = 682;
},
{
layerId = "2CBB5782-2C08-483D-96E9-15912637AE76";
shapes = (
{
closed = 1;
nodes = (
(539,203,o),
(558,211,o),
(574,222,cs),
(627,261,o),
(660,310,o),
(671,380,cs),
(678,430,o),
(675,481,o),
(643,540,cs),
(611,601,o),
(567,650,o),
(508,690,cs),
(474,713,o),
(432,729,o),
(391,742,cs),
(317,764,o),
(286,717,o),
(302,649,cs),
(303,643,o),
(302,632,o),
(301,628,cs),
(270,532,o),
(268,429,o),
(298,315,cs),
(301,302,o),
(301,295,o),
(307,282,cs),
(321,246,o),
(335,217,o),
(375,200,cs),
(416,182,o),
(475,164,o),
(519,190,cs)
);
},
{
closed = 1;
nodes = (
(454,234,o),
(437,238,o),
(403,255,cs),
(382,267,o),
(372,294,o),
(367,327,cs),
(354,419,o),
(346,510,o),
(367,587,cs),
(376,616,o),
(387,630,o),
(402,638,cs),
(407,641,o),
(407,641,o),
(415,612,cs),
(421,584,o),
(424,554,o),
(430,520,cs),
(433,509,o),
(439,491,o),
(464,491,cs),
(482,491,o),
(499,503,o),
(497,519,cs),
(492,572,o),
(513,637,o),
(451,691,cs),
(421,717,o),
(376,705,o),
(346,682,c),
(346,683,o),
(345,683,o),
(344,683,cs),
(339,683,o),
(367,678,o),
(367,677,c),
(370,683,o),
(350,683,o),
(356,682,cs),
(379,679,o),
(401,674,o),
(427,666,cs),
(482,647,o),
(531,601,o),
(573,529,cs),
(611,462,o),
(607,400,o),
(585,350,cs),
(559,290,o),
(522,260,o),
(475,243,cs)
);
}
);
width = 682;
}
);
unicode = 79;
},
{
glyphname = P;
lastChange = "2023-03-10 01:38:48 +0000";
layers = (
{
layerId = m01;
shapes = (
{
closed = 1;
nodes = (
(70,-78,o),
(79,-71,o),
(81,-61,c),
(103,37,o),
(110,137,o),
(106,235,c),
(104,258,o),
(112,268,o),
(136,269,c),
(243,274,o),
(332,316,o),
(403,398,c),
(466,471,o),
(487,582,o),
(446,661,c),
(409,735,o),
(345,777,o),
(264,788,c),
(183,800,o),
(117,764,o),
(82,689,c),
(69,661,o),
(56,630,o),
(52,599,c),
(40,509,o),
(30,416,o),
(27,324,c),
(22,233,o),
(25,141,o),
(25,51,c),
(23,50,o),
(22,50,o),
(20,50,c),
(28,11,o),
(33,-26,o),
(43,-64,c),
(45,-73,o),
(59,-79,o),
(66,-87,c)
);
},
{
closed = 1;
nodes = (
(59,21,o),
(56,26,o),
(56,32,c),
(56,107,o),
(56,183,o),
(57,259,c),
(57,265,o),
(63,272,o),
(67,276,c),
(70,272,o),
(75,266,o),
(75,260,c),
(76,226,o),
(76,194,o),
(76,160,c),
(77,160,o),
(78,160,o),
(79,160,c),
(75,117,o),
(72,74,o),
(69,32,c),
(68,27,o),
(63,21,o),
(60,16,c)
);
},
{
closed = 1;
nodes = (
(107,297,o),
(99,308,o),
(98,333,c),
(95,399,o),
(91,464,o),
(89,529,c),
(87,530,o),
(84,531,o),
(80,531,c),
(90,576,o),
(95,624,o),
(114,665,c),
(144,737,o),
(205,766,o),
(279,749,c),
(380,726,o),
(455,636,o),
(431,522,c),
(420,465,o),
(391,420,o),
(346,385,c),
(283,337,o),
(215,304,o),
(135,298,c)
);
}
);
width = 457;
},
{
layerId = "4FA42A6D-6079-488C-BBF5-0F13D00932C7";
shapes = (
{
closed = 1;
nodes = (
(122,152,o),
(129,156,o),
(131,163,c),
(159,233,o),
(176,304,o),
(184,377,c),
(186,395,o),
(192,400,o),
(211,399,c),
(288,390,o),
(359,410,o),
(420,463,c),
(475,508,o),
(504,587,o),
(482,650,c),
(464,708,o),
(423,746,o),
(365,763,c),
(307,783,o),
(253,764,o),
(219,712,c),
(206,693,o),
(193,672,o),
(187,650,c),
(169,586,o),
(150,519,o),
(137,451,c),
(122,386,o),
(114,317,o),
(104,252,c),
(102,251,o),
(100,251,o),
(99,252,c),
(101,222,o),
(101,195,o),
(104,166,c),
(104,159,o),
(113,153,o),
(117,145,c)
);
},
{
closed = 1;
nodes = (
(129,249,o),
(128,252,o),
(129,256,c),
(137,307,o),
(145,358,o),
(153,408,c),
(154,413,o),
(159,417,o),
(162,419,c),
(163,416,o),
(166,411,o),
(166,407,c),
(163,384,o),
(159,363,o),
(156,340,c),
(156,340,o),
(157,340,o),
(158,340,c),
(150,311,o),
(144,283,o),
(137,255,c),
(136,252,o),
(132,248,o),
(130,245,c)
);
},
{
closed = 1;
nodes = (
(203,432,o),
(199,440,o),
(201,457,c),
(206,501,o),
(210,545,o),
(216,589,c),
(214,590,o),
(212,591,o),
(210,591,c),
(221,621,o),
(230,652,o),
(247,678,c),
(274,723,o),
(318,736,o),
(366,716,c),
(432,690,o),
(472,622,o),
(444,548,c),
(431,511,o),
(406,484,o),
(373,465,c),
(325,440,o),
(276,425,o),
(222,429,c)
);
}
);
width = 457;
},
{
layerId = "5563113E-3DD8-48BA-8230-66BC42B26329";
shapes = (
{
closed = 1;
nodes = (
(43,-176,o),
(60,-173,o),
(71,-156,cs),
(122,-74,o),
(158,10,o),
(183,92,cs),
(187,106,o),
(188,107,o),
(208,108,cs),
(319,112,o),
(423,148,o),
(521,217,cs),
(609,280,o),
(665,378,o),
(646,448,cs),
(629,512,o),
(574,548,o),
(495,557,cs),
(414,567,o),
(333,536,o),
(272,470,cs),
(251,448,o),
(228,420,o),
(214,393,cs),
(176,318,o),
(139,241,o),
(109,165,cs),
(79,92,o),
(56,19,o),
(31,-53,c),
(31,-53,o),
(31,-53,o),
(24,-50,c),
(21,-86,o),
(14,-122,o),
(12,-158,cs),
(11,-177,o),
(33,-173,o),
(36,-191,c)
);
},
{
closed = 1;
nodes = (
(74,-76,o),
(74,-76,o),
(74,-76,c),
(96,-14,o),
(117,48,o),
(140,111,cs),
(140,110,o),
(140,110,o),
(139,109,c),
(138,110,o),
(138,111,o),
(139,112,cs),
(129,80,o),
(118,50,o),
(107,18,c),
(108,18,o),
(108,18,o),
(109,18,c),
(94,-13,o),
(81,-44,o),
(68,-74,c),
(68,-74,o),
(68,-74,o),
(76,-66,c)
);
},
{
closed = 1;
nodes = (
(199,153,o),
(198,156,o),
(203,173,cs),
(220,229,o),
(235,284,o),
(253,340,c),
(251,341,o),
(249,342,o),
(248,343,c),
(268,377,o),
(284,410,o),
(312,440,cs),
(359,495,o),
(422,517,o),
(488,503,cs),
(579,485,o),
(625,417,o),
(571,330,cs),
(545,285,o),
(508,252,o),
(454,223,cs),
(378,185,o),
(303,159,o),
(223,154,cs)
);
}
);
width = 457;
},
{
layerId = "2CBB5782-2C08-483D-96E9-15912637AE76";
shapes = (
{
closed = 1;
nodes = (
(193,-158,o),
(203,-145,o),
(202,-134,cs),
(193,-33,o),
(172,64,o),
(144,158,cs),
(136,181,o),
(137,186,o),
(147,190,cs),
(226,216,o),
(281,278,o),
(309,368,cs),
(337,458,o),
(324,563,o),
(272,636,cs),
(227,698,o),
(167,729,o),
(102,724,cs),
(36,719,o),
(-6,666,o),
(-12,589,cs),
(-13,555,o),
(-15,523,o),
(-10,495,cs),
(6,404,o),
(22,313,o),
(44,223,cs),
(63,135,o),
(90,46,o),
(114,-41,c),
(114,-41,o),
(114,-41,o),
(108,-39,c),
(124,-75,o),
(137,-111,o),
(156,-149,cs),
(161,-159,o),
(179,-157,o),
(197,-183,c)
);
},
{
closed = 1;
nodes = (
(161,-47,o),
(161,-47,o),
(161,-47,c),
(141,25,o),
(122,98,o),
(103,172,cs),
(99,187,o),
(109,195,o),
(98,176,c),
(78,187,o),
(90,185,o),
(94,171,cs),
(104,137,o),
(113,104,o),
(122,71,c),
(123,71,o),
(123,71,o),
(124,71,c),
(132,30,o),
(141,-11,o),
(149,-50,c),
(149,-50,o),
(149,-50,o),
(154,-29,c)
);
},
{
closed = 1;
nodes = (
(124,221,o),
(121,226,o),
(113,251,cs),
(94,314,o),
(74,376,o),
(56,438,c),
(53,439,o),
(51,440,o),
(49,440,c),
(44,486,o),
(35,534,o),
(38,573,cs),
(40,650,o),
(69,683,o),
(121,680,cs),
(191,677,o),
(265,607,o),
(277,492,cs),
(285,432,o),
(276,384,o),
(256,347,cs),
(223,286,o),
(186,245,o),
(135,225,cs)
);
}
);
width = 457;
}
);
unicode = 80;
},
{
glyphname = Q;
lastChange = "2023-03-10 01:40:08 +0000";
layers = (
{
layerId = m01;
shapes = (
{
closed = 1;
nodes = (
(775,-205,o),
(829,-194,o),
(878,-164,c),
(882,-162,o),
(883,-153,o),
(885,-149,c),
(880,-148,o),
(875,-145,o),
(870,-146,c),
(864,-147,o),
(860,-150,o),
(854,-151,c),
(772,-191,o),
(686,-148,o),
(646,-99,c),
(609,-58,o),
(580,-10,o),
(546,34,c),
(526,55,o),
(536,65,o),
(554,81,c),
(599,118,o),
(643,157,o),
(683,197,c),
(744,259,o),
(766,339,o),
(774,433,c),
(769,459,o),
(764,495,o),
(752,528,c),
(708,659,o),
(631,709,o),
(491,703,c),
(476,702,o),
(471,709,o),
(468,725,c),
(458,782,o),
(414,814,o),
(355,801,c),
(259,777,o),
(181,729,o),
(136,635,c),
(93,545,o),
(53,459,o),
(44,359,c),
(36,273,o),
(39,190,o),
(71,111,c),
(85,73,o),
(111,46,o),
(147,24,c),
(248,-36,o),
(353,-28,o),
(455,20,c),
(486,34,o),
(503,29,o),
(521,4,c),
(548,-34,o),
(577,-70,o),
(606,-108,c),
(635,-147,o),
(675,-171,o),
(720,-187,c)
);
},
{
closed = 1;
nodes = (
(213,15,o),
(150,45,o),
(111,111,c),
(88,150,o),
(77,201,o),
(72,248,c),
(64,308,o),
(74,369,o),
(90,427,c),
(117,513,o),
(151,594,o),
(202,666,c),
(246,729,o),
(313,755,o),
(388,757,c),
(406,759,o),
(430,759,o),
(435,735,c),
(443,710,o),
(439,685,o),
(416,670,c),
(338,618,o),
(307,535,o),
(275,451,c),
(272,449,o),
(272,444,o),
(272,441,c),
(272,436,o),
(273,430,o),
(274,426,c),
(278,429,o),
(282,432,o),
(286,436,c),
(309,475,o),
(331,515,o),
(355,554,c),
(368,573,o),
(385,589,o),
(400,606,c),
(394,583,o),
(389,560,o),
(378,539,c),
(354,493,o),
(326,449,o),
(302,403,c),
(297,397,o),
(292,391,o),
(291,385,c),
(290,378,o),
(292,370,o),
(292,362,c),
(299,365,o),
(306,367,o),
(310,371,c),
(316,378,o),
(322,386,o),
(325,394,c),
(368,475,o),
(411,556,o),
(453,637,c),
(465,660,o),
(480,670,o),
(507,674,c),
(569,677,o),
(629,665,o),
(668,613,c),
(726,535,o),
(754,451,o),
(726,348,c),
(696,232,o),
(607,170,o),
(526,97,c),
(511,85,o),
(498,88,o),
(484,103,c),
(445,139,o),
(407,174,o),
(367,207,c),
(353,219,o),
(333,222,o),
(315,227,c),
(311,230,o),
(301,222,o),
(300,219,c),
(297,215,o),
(303,206,o),
(307,203,c),
(330,186,o),
(355,171,o),
(377,153,c),
(405,129,o),
(431,105,o),
(456,81,c),
(470,68,o),
(468,59,o),
(449,54,c),
(398,36,o),
(347,13,o),
(295,19,c)
);
}
);
width = 865;
},
{
layerId = "4FA42A6D-6079-488C-BBF5-0F13D00932C7";
shapes = (
{
closed = 1;
nodes = (
(457,-177,o),
(489,-160,o),
(517,-128,c),
(519,-123,o),
(526,-105,o),
(533,-83,c),
(517,-82,o),
(508,-80,o),
(504,-82,cs),
(501,-84,o),
(496,-88,o),
(494,-90,c),
(457,-126,o),
(420,-109,o),
(400,-81,cs),
(382,-56,o),
(367,-24,o),
(349,5,c),
(347,8,o),
(351,13,o),
(357,22,cs),
(380,56,o),
(398,85,o),
(419,121,cs),
(454,181,o),
(466,250,o),
(469,325,c),
(467,343,o),
(464,372,o),
(457,398,cs),
(433,498,o),
(388,528,o),
(310,503,cs),
(309,503,o),
(313,497,o),
(312,504,cs),
(305,556,o),
(276,580,o),
(238,557,cs),
(185,524,o),
(141,474,o),
(115,391,cs),
(94,317,o),
(72,245,o),
(67,164,cs),
(63,97,o),
(64,31,o),
(82,-26,cs),
(90,-57,o),
(106,-76,o),
(127,-88,cs),
(183,-122,o),
(242,-100,o),
(297,-48,cs),
(309,-37,o),
(309,-37,o),
(316,-49,cs),
(330,-74,o),
(345,-97,o),
(360,-122,cs),
(376,-151,o),
(400,-163,o),
(424,-171,cs)
);
},
{
closed = 1;
nodes = (
(170,-50,o),
(144,-39,o),
(126,2,cs),
(115,26,o),
(110,58,o),
(107,93,cs),
(103,134,o),
(108,177,o),
(116,221,cs),
(130,288,o),
(147,351,o),
(172,410,cs),
(193,458,o),
(222,482,o),
(259,493,c),
(268,497,o),
(269,497,o),
(269,493,cs),
(272,478,o),
(272,472,o),
(265,463,cs),
(222,410,o),
(205,340,o),
(188,273,c),
(185,267,o),
(184,260,o),
(184,255,cs),
(184,248,o),
(187,237,o),
(191,214,c),
(206,236,o),
(211,240,o),
(215,248,c),
(228,281,o),
(239,314,o),
(251,346,c),
(251,346,o),
(251,346,o),
(238,322,c),
(241,353,o),
(241,353,o),
(241,353,c),
(229,316,o),
(214,280,o),
(202,242,c),
(199,235,o),
(196,227,o),
(195,219,cs),
(193,205,o),
(197,198,o),
(195,170,c),
(211,187,o),
(220,189,o),
(227,201,c),
(231,209,o),
(235,218,o),
(237,226,cs),
(259,292,o),
(280,358,o),
(302,424,cs),
(307,438,o),
(310,442,o),
(320,447,c),
(350,456,o),
(375,456,o),
(391,427,cs),
(421,379,o),
(433,327,o),
(420,252,cs),
(405,168,o),
(363,114,o),
(320,47,cs),
(319,45,o),
(319,46,o),
(316,50,c),
(295,71,o),
(276,93,o),
(255,113,cs),
(246,122,o),
(232,121,o),
(224,123,cs),
(216,125,o),
(205,114,o),
(201,102,cs),
(195,87,o),
(202,73,o),
(208,68,cs),
(220,57,o),
(233,50,o),
(244,41,cs),
(257,26,o),
(271,13,o),
(284,-2,cs),
(286,-4,o),
(288,13,o),
(286,10,c),
(257,-12,o),
(234,-34,o),
(210,-36,c)
);
}
);
width = 865;
},
{
layerId = "5563113E-3DD8-48BA-8230-66BC42B26329";
shapes = (
{
closed = 1;
nodes = (
(563,190,o),
(603,201,o),
(642,225,c),
(646,227,o),
(648,233,o),
(650,236,c),
(647,236,o),
(644,238,o),
(640,237,c),
(635,236,o),
(632,233,o),
(628,232,c),
(564,199,o),
(510,222,o),
(490,253,c),
(471,278,o),
(459,308,o),
(442,336,c),
(432,349,o),
(440,356,o),
(456,368,c),
(493,396,o),
(531,426,o),
(565,456,c),
(619,502,o),
(647,558,o),
(668,622,c),
(669,640,o),
(672,664,o),
(669,685,c),
(660,771,o),
(614,799,o),
(514,785,c),
(504,783,o),
(501,788,o),
(502,798,c),
(504,836,o),
(479,855,o),
(435,842,c),
(364,819,o),
(301,781,o),
(254,714,c),
(209,650,o),
(166,589,o),
(143,520,c),
(124,461,o),
(112,405,o),
(121,354,c),
(125,329,o),
(139,313,o),
(160,301,c),
(221,267,o),
(296,280,o),
(376,320,c),
(400,332,o),
(411,329,o),
(420,314,c),
(432,290,o),
(447,268,o),
(461,244,c),
(475,220,o),
(499,206,o),
(528,198,c)
);
},
{
closed = 1;
nodes = (
(205,299,o),
(166,315,o),
(149,357,c),
(140,382,o),
(140,416,o),
(145,447,c),
(149,487,o),
(166,529,o),
(187,570,c),
(220,630,o),
(258,687,o),
(305,739,c),
(347,785,o),
(398,808,o),
(451,814,c),
(464,817,o),
(481,819,o),
(480,803,c),
(482,786,o),
(475,769,o),
(456,757,c),
(393,717,o),
(357,658,o),
(321,599,c),
(319,597,o),
(318,594,o),
(317,592,c),
(316,589,o),
(316,585,o),
(316,582,c),
(319,584,o),
(323,587,o),
(326,590,c),
(349,618,o),
(371,646,o),
(394,674,c),
(407,688,o),
(421,700,o),
(434,713,c),
(426,697,o),
(419,681,o),
(408,666,c),
(383,633,o),
(356,601,o),
(332,568,c),
(327,564,o),
(323,560,o),
(321,555,c),
(319,551,o),
(319,545,o),
(318,540,c),
(324,542,o),
(329,544,o),
(332,547,c),
(338,552,o),
(343,558,o),
(347,564,c),
(390,622,o),
(434,680,o),
(477,738,c),
(489,754,o),
(501,762,o),
(521,767,c),
(565,773,o),
(605,769,o),
(624,737,c),
(652,688,o),
(657,633,o),
(621,561,c),
(580,481,o),
(508,432,o),
(439,377,c),
(426,368,o),
(417,369,o),
(410,378,c),
(389,400,o),
(368,421,o),
(345,440,c),
(337,447,o),
(324,448,o),
(312,450,c),
(310,452,o),
(301,446,o),
(300,444,c),
(297,441,o),
(300,435,o),
(302,433,c),
(316,423,o),
(331,415,o),
(343,404,c),
(359,390,o),
(373,376,o),
(387,361,c),
(394,353,o),
(392,347,o),
(377,342,c),
(339,327,o),
(299,307,o),
(263,308,c)
);
}
);
width = 865;
},
{
layerId = "2CBB5782-2C08-483D-96E9-15912637AE76";
shapes = (
{
closed = 1;
nodes = (
(899,-289,o),
(962,-296,o),
(1013,-284,c),
(1020,-281,o),
(1029,-271,o),
(1031,-270,c),
(1024,-266,o),
(1014,-261,o),
(1005,-259,c),
(993,-259,o),
(993,-260,o),
(987,-259,c),
(912,-270,o),
(833,-218,o),
(790,-164,cs),
(756,-126,o),
(727,-79,o),
(689,-30,c),
(672,-11,o),
(679,-7,o),
(692,-1,cs),
(741,19,o),
(786,39,o),
(822,60,cs),
(894,99,o),
(913,158,o),
(921,230,c),
(916,250,o),
(912,279,o),
(898,313,cs),
(855,430,o),
(774,492,o),
(626,526,cs),
(619,527,o),
(619,529,o),
(615,547,cs),
(605,594,o),
(556,635,o),
(488,641,cs),
(389,647,o),
(300,626,o),
(256,562,cs),
(210,497,o),
(170,438,o),
(161,361,cs),
(153,294,o),
(155,229,o),
(189,152,cs),
(202,121,o),
(228,92,o),
(270,61,cs),
(370,-14,o),
(484,-36,o),
(589,-24,cs),
(613,-22,o),
(621,-26,o),
(641,-53,cs),
(665,-86,o),
(694,-123,o),
(726,-165,cs),
(752,-202,o),
(795,-234,o),
(845,-261,cs)
);
},
{
closed = 1;
nodes = (
(356,40,o),
(297,78,o),
(256,145,cs),
(235,179,o),
(224,224,o),
(219,265,cs),
(211,315,o),
(221,364,o),
(236,403,cs),
(264,469,o),
(298,524,o),
(344,565,cs),
(393,608,o),
(453,607,o),
(541,583,c),
(546,579,o),
(550,573,o),
(553,562,cs),
(560,540,o),
(556,522,o),
(544,519,cs),
(454,495,o),
(423,431,o),
(393,376,c),
(389,374,o),
(389,372,o),
(389,368,cs),
(389,363,o),
(392,351,o),
(394,342,c),
(430,361,o),
(411,349,o),
(432,360,c),
(457,389,o),
(478,414,o),
(497,434,c),
(502,438,o),
(506,442,o),
(509,444,c),
(506,435,o),
(502,427,o),
(498,421,cs),
(470,385,o),
(442,358,o),
(420,329,c),
(415,325,o),
(409,322,o),
(408,319,c),
(407,311,o),
(410,305,o),
(409,295,c),
(421,295,o),
(451,293,o),
(454,300,c),
(462,306,o),
(471,312,o),
(471,316,c),
(513,369,o),
(559,427,o),
(597,477,cs),
(609,492,o),
(613,493,o),
(636,490,c),
(694,478,o),
(747,455,o),
(788,401,cs),
(843,327,o),
(871,249,o),
(844,175,cs),
(813,86,o),
(730,63,o),
(652,27,cs),
(644,23,o),
(643,23,o),
(627,42,c),
(592,77,o),
(553,116,o),
(509,157,cs),
(497,168,o),
(473,178,o),
(451,189,c),
(438,191,o),
(412,183,o),
(420,182,c),
(416,178,o),
(415,176,o),
(417,174,cs),
(437,156,o),
(467,134,o),
(499,105,cs),
(523,82,o),
(548,56,o),
(577,26,cs),
(588,15,o),
(587,13,o),
(581,13,cs),
(529,11,o),
(485,6,o),
(434,24,c)
);
}
);
width = 865;
}
);
unicode = 81;
},
{
glyphname = R;
lastChange = "2023-03-09 22:12:37 +0000";
layers = (
{
layerId = m01;
shapes = (
{
closed = 1;
nodes = (
(875,-19,o),
(882,-7,o),
(888,1,c),
(877,1,o),
(868,3,o),
(859,0,c),
(744,-38,o),
(643,-12,o),
(550,59,c),
(483,109,o),
(415,159,o),
(348,210,c),
(324,227,o),
(299,242,o),
(276,258,c),
(299,277,o),
(320,297,o),
(344,314,c),
(418,369,o),
(484,429,o),
(516,519,c),
(557,637,o),
(492,765,o),
(371,793,c),
(284,815,o),
(204,790,o),
(166,718,c),
(141,667,o),
(125,613,o),
(104,559,c),
(102,555,o),
(99,549,o),
(97,545,c),
(94,549,o),
(87,554,o),
(86,559,c),
(76,593,o),
(70,627,o),
(60,660,c),
(58,668,o),
(47,675,o),
(40,681,c),
(35,672,o),
(22,662,o),
(23,655,c),
(28,617,o),
(1,571,o),
(51,545,c),
(54,543,o),
(55,531,o),
(58,525,c),
(74,405,o),
(82,285,o),
(63,165,c),
(59,131,o),
(59,97,o),
(61,61,c),
(62,53,o),
(76,43,o),
(84,35,c),
(90,44,o),
(97,54,o),
(98,64,c),
(108,169,o),
(117,273,o),
(126,377,c),
(121,378,o),
(119,378,o),
(117,378,c),
(119,421,o),
(117,466,o),
(129,508,c),
(144,568,o),
(164,629,o),
(192,685,c),
(216,735,o),
(263,768,o),
(319,762,c),
(395,753,o),
(458,714,o),
(484,638,c),
(508,571,o),
(484,513,o),
(443,461,c),
(381,384,o),
(313,311,o),
(208,289,c),
(184,284,o),
(184,268,o),
(201,254,c),
(213,244,o),
(227,237,o),
(240,228,c),
(293,192,o),
(348,157,o),
(399,121,c),
(462,77,o),
(522,28,o),
(588,-10,c),
(677,-62,o),
(772,-58,o),
(867,-22,c)
);
}
);
width = 868;
},
{
layerId = "4FA42A6D-6079-488C-BBF5-0F13D00932C7";
shapes = (
{
closed = 1;
nodes = (
(899,187,o),
(924,318,o),
(895,262,c),
(893,263,o),
(887,263,o),
(874,254,c),
(816,203,o),
(754,203,o),
(706,240,cs),
(662,273,o),
(624,300,o),
(592,324,c),
(603,319,o),
(585,330,o),
(569,340,c),
(572,345,o),
(575,350,o),
(582,358,c),
(626,419,o),
(670,483,o),
(692,582,cs),
(718,699,o),
(673,814,o),
(596,813,cs),
(547,815,o),
(495,775,o),
(465,695,c),
(455,660,o),
(449,631,o),
(443,601,c),
(443,541,o),
(443,541,o),
(443,541,c),
(432,514,o),
(434,514,o),
(458,498,c),
(436,574,o),
(441,579,o),
(430,626,cs),
(424,653,o),
(413,655,o),
(394,677,c),
(390,639,o),
(379,608,o),
(381,595,c),
(382,570,o),
(366,510,o),
(401,492,c),
(401,491,o),
(401,490,o),
(402,489,c),
(410,397,o),
(414,308,o),
(403,211,c),
(402,181,o),
(402,150,o),
(403,120,cs),
(404,104,o),
(427,80,o),
(435,69,c),
(441,91,o),
(451,113,o),
(453,132,cs),
(459,227,o),
(465,321,o),
(470,414,c),
(468,415,o),
(466,417,o),
(464,419,c),
(465,446,o),
(465,473,o),
(470,500,cs),
(478,549,o),
(489,601,o),
(506,653,cs),
(518,695,o),
(528,711,o),
(565,716,c),
(606,725,o),
(634,708,o),
(645,667,cs),
(657,623,o),
(647,587,o),
(623,535,cs),
(591,469,o),
(566,408,o),
(495,363,cs),
(465,345,o),
(473,280,o),
(497,276,c),
(506,271,o),
(518,265,o),
(507,270,c),
(546,247,o),
(578,227,o),
(602,211,cs),
(644,183,o),
(678,154,o),
(711,137,cs),
(771,108,o),
(819,128,o),
(883,185,c)
);
}
);
width = 868;
},
{
layerId = "5563113E-3DD8-48BA-8230-66BC42B26329";
shapes = (
{
closed = 1;
nodes = (
(675,-1,o),
(683,20,o),
(686,23,c),
(676,21,o),
(664,24,o),
(654,20,cs),
(571,-13,o),
(499,1,o),
(427,49,cs),
(376,84,o),
(323,118,o),
(272,153,cs),
(254,163,o),
(237,173,o),
(222,182,c),
(236,196,o),
(249,209,o),
(264,221,cs),
(316,266,o),
(363,315,o),
(383,385,cs),
(409,477,o),
(353,573,o),
(260,589,cs),
(192,601,o),
(131,577,o),
(106,521,cs),
(90,480,o),
(81,439,o),
(68,398,c),
(67,397,o),
(66,396,o),
(66,395,c),
(65,396,o),
(64,396,o),
(64,397,c),
(54,422,o),
(49,447,o),
(40,471,cs),
(36,481,o),
(19,490,o),
(18,492,c),
(18,484,o),
(2,474,o),
(3,464,c),
(8,437,o),
(-10,399,o),
(31,380,c),
(31,378,o),
(33,372,o),
(35,367,c),
(52,279,o),
(64,191,o),
(56,102,cs),
(55,77,o),
(56,50,o),
(58,23,c),
(61,12,o),
(83,0,o),
(82,-3,c),
(87,5,o),
(95,17,o),
(96,28,c),
(99,107,o),
(101,187,o),
(102,265,c),
(99,266,o),
(97,267,o),
(95,267,c),
(94,298,o),
(92,330,o),
(98,359,cs),
(106,404,o),
(119,450,o),
(136,492,cs),
(151,530,o),
(181,555,o),
(221,553,cs),
(277,549,o),
(322,525,o),
(344,471,cs),
(364,424,o),
(350,382,o),
(323,343,cs),
(281,283,o),
(235,226,o),
(160,206,cs),
(138,199,o),
(139,182,o),
(155,171,cs),
(165,163,o),
(176,158,o),
(186,152,cs),
(227,127,o),
(269,104,o),
(308,80,cs),
(356,51,o),
(403,16,o),
(454,-8,cs),
(523,-44,o),
(595,-36,o),
(664,-4,cs)
);
}
);
width = 868;
},
{
layerId = "2CBB5782-2C08-483D-96E9-15912637AE76";
shapes = (
{
closed = 1;
nodes = (
(626,225,o),
(622,236,o),
(634,243,c),
(619,241,o),
(603,252,o),
(596,249,cs),
(525,235,o),
(474,257,o),
(425,308,cs),
(391,344,o),
(354,382,o),
(315,423,cs),
(306,431,o),
(295,442,o),
(283,451,c),
(300,464,o),
(313,473,o),
(325,479,cs),
(375,511,o),
(420,543,o),
(444,596,cs),
(481,673,o),
(449,764,o),
(370,796,cs),
(316,818,o),
(263,809,o),
(234,767,cs),
(214,734,o),
(201,701,o),
(186,670,c),
(186,670,o),
(186,670,o),
(189,677,c),
(192,661,o),
(192,661,o),
(192,661,c),
(189,685,o),
(191,697,o),
(185,725,c),
(186,734,o),
(165,750,o),
(159,760,c),
(155,747,o),
(144,744,o),
(144,737,cs),
(143,712,o),
(121,685,o),
(159,656,c),
(165,653,o),
(158,649,o),
(155,651,c),
(155,576,o),
(150,497,o),
(130,422,c),
(124,399,o),
(122,377,o),
(120,355,c),
(120,346,o),
(142,326,o),
(145,320,c),
(152,326,o),
(160,335,o),
(161,341,cs),
(176,411,o),
(191,479,o),
(205,546,c),
(201,548,o),
(201,548,o),
(198,548,c),
(201,574,o),
(205,601,o),
(214,622,cs),
(228,660,o),
(245,697,o),
(265,730,cs),
(284,761,o),
(311,778,o),
(339,770,cs),
(382,758,o),
(407,735,o),
(417,685,cs),
(426,643,o),
(407,607,o),
(381,579,cs),
(335,532,o),
(290,495,o),
(231,488,cs),
(206,486,o),
(209,476,o),
(222,461,c),
(227,453,o),
(238,446,o),
(246,439,cs),
(273,413,o),
(304,386,o),
(333,357,cs),
(365,325,o),
(397,288,o),
(437,256,cs),
(489,212,o),
(551,206,o),
(608,221,cs)
);
}
);
width = 868;
}
);
unicode = 82;
},
{
glyphname = S;
lastChange = "2023-03-10 01:46:53 +0000";
layers = (
{
layerId = m01;
shapes = (
{
closed = 1;
nodes = (
(436,3,o),
(550,8,o),
(661,40,c),
(705,53,o),
(726,82,o),
(725,128,c),
(723,176,o),
(700,212,o),
(669,242,c),
(644,267,o),
(612,288,o),
(586,313,c),
(528,364,o),
(471,415,o),
(438,486,c),
(407,554,o),
(417,626,o),
(472,675,c),
(506,704,o),
(543,729,o),
(583,749,c),
(632,772,o),
(683,763,o),
(731,739,c),
(754,727,o),
(761,710,o),
(750,684,c),
(745,668,o),
(738,650,o),
(734,632,c),
(733,626,o),
(736,612,o),
(742,612,cs),
(749,612,o),
(758,618,o),
(761,622,c),
(813,696,o),
(790,765,o),
(707,792,c),
(690,797,o),
(670,797,o),
(652,799,c),
(568,800,o),
(502,762,o),
(446,705,c),
(371,634,o),
(361,546,o),
(406,455,c),
(441,385,o),
(494,331,o),
(555,284,c),
(603,248,o),
(649,211,o),
(678,155,c),
(693,127,o),
(689,107,o),
(664,90,c),
(653,82,o),
(639,73,o),
(625,69,c),
(558,55,o),
(489,39,o),
(420,53,c),
(371,64,o),
(322,71,o),
(275,88,c),
(209,110,o),
(145,136,o),
(82,165,c),
(61,176,o),
(48,200,o),
(33,218,c),
(51,233,o),
(69,249,o),
(89,262,c),
(99,267,o),
(115,267,o),
(126,273,c),
(133,276,o),
(144,282,o),
(144,289,cs),
(144,299,o),
(126,298,o),
(120,296,c),
(90,286,o),
(60,279,o),
(33,265,c),
(-3,249,o),
(-11,216,o),
(14,186,c),
(30,164,o),
(53,143,o),
(77,133,c),
(157,99,o),
(240,66,o),
(323,39,c)
);
}
);
width = 789;
},
{
layerId = "4FA42A6D-6079-488C-BBF5-0F13D00932C7";
shapes = (
{
closed = 1;
nodes = (
(520,142,o),
(580,157,o),
(637,194,cs),
(668,215,o),
(683,251,o),
(687,297,cs),
(691,343,o),
(680,375,o),
(667,400,cs),
(656,420,o),
(643,434,o),
(634,452,cs),
(610,490,o),
(590,522,o),
(580,573,cs),
(571,621,o),
(578,667,o),
(603,703,cs),
(620,728,o),
(637,749,o),
(655,766,cs),
(670,782,o),
(682,780,o),
(699,768,cs),
(704,765,o),
(703,763,o),
(699,751,cs),
(696,738,o),
(692,721,o),
(687,704,cs),
(684,687,o),
(687,659,o),
(707,663,cs),
(717,665,o),
(730,676,o),
(735,689,cs),
(770,767,o),
(764,838,o),
(716,857,cs),
(704,861,o),
(695,860,o),
(685,860,cs),
(637,853,o),
(597,807,o),
(565,753,cs),
(521,681,o),
(508,598,o),
(525,521,cs),
(536,464,o),
(558,421,o),
(584,385,cs),
(604,361,o),
(619,339,o),
(628,299,cs),
(631,284,o),
(631,284,o),
(625,274,c),
(620,268,o),
(616,263,o),
(612,261,cs),
(581,244,o),
(555,229,o),
(529,234,cs),
(507,239,o),
(487,242,o),
(469,250,cs),
(439,262,o),
(413,277,o),
(387,296,cs),
(384,298,o),
(382,303,o),
(380,313,c),
(384,318,o),
(388,324,o),
(393,330,c),
(396,332,o),
(404,337,o),
(410,342,cs),
(420,350,o),
(430,365,o),
(432,381,cs),
(434,413,o),
(409,412,o),
(395,405,cs),
(382,395,o),
(366,384,o),
(350,370,cs),
(324,345,o),
(311,303,o),
(325,267,cs),
(332,248,o),
(344,230,o),
(358,221,cs),
(392,200,o),
(429,179,o),
(466,164,cs)
);
}
);
width = 789;
},
{
layerId = "5563113E-3DD8-48BA-8230-66BC42B26329";
shapes = (
{
closed = 1;
nodes = (
(279,-101,o),
(333,-88,o),
(382,-56,cs),
(404,-42,o),
(410,-14,o),
(405,22,cs),
(398,59,o),
(382,87,o),
(363,105,c),
(348,124,o),
(331,135,o),
(318,150,c),
(286,184,o),
(256,214,o),
(234,262,cs),
(213,306,o),
(209,353,o),
(227,390,cs),
(239,411,o),
(252,431,o),
(267,447,cs),
(284,464,o),
(301,463,o),
(323,450,cs),
(332,444,o),
(335,438,o),
(332,421,cs),
(332,410,o),
(331,396,o),
(331,382,cs),
(332,371,o),
(343,363,o),
(348,343,c),
(357,362,o),
(363,369,o),
(364,374,cs),
(381,436,o),
(361,491,o),
(314,506,c),
(302,508,o),
(292,507,o),
(285,508,c),
(242,502,o),
(214,466,o),
(195,419,cs),
(167,360,o),
(174,291,o),
(204,227,cs),
(229,178,o),
(261,141,o),
(293,112,cs),
(320,90,o),
(343,67,o),
(362,32,cs),
(370,15,o),
(371,6,o),
(363,-5,cs),
(359,-11,o),
(356,-16,o),
(350,-20,c),
(323,-34,o),
(296,-49,o),
(267,-45,c),
(243,-40,o),
(222,-39,o),
(200,-29,c),
(167,-18,o),
(136,-5,o),
(105,11,cs),
(98,15,o),
(92,26,o),
(84,36,c),
(90,46,o),
(95,56,o),
(101,64,cs),
(102,65,o),
(112,69,o),
(116,74,cs),
(122,80,o),
(119,92,o),
(133,102,c),
(116,105,o),
(99,110,o),
(98,107,c),
(86,98,o),
(72,90,o),
(60,77,cs),
(42,60,o),
(42,29,o),
(59,5,cs),
(71,-10,o),
(84,-25,o),
(97,-32,cs),
(139,-51,o),
(180,-69,o),
(220,-83,cs)
);
}
);
width = 789;
},
{
layerId = "2CBB5782-2C08-483D-96E9-15912637AE76";
shapes = (
{
closed = 1;
nodes = (
(348,244,o),
(467,261,o),
(573,294,cs),
(625,310,o),
(646,332,o),
(642,365,cs),
(636,397,o),
(610,419,o),
(570,441,cs),
(546,453,o),
(513,465,o),
(482,481,cs),
(425,507,o),
(368,532,o),
(327,583,cs),
(295,622,o),
(300,674,o),
(345,710,cs),
(380,735,o),
(413,756,o),
(447,771,cs),
(494,792,o),
(535,791,o),
(586,779,cs),
(600,776,o),
(607,768,o),
(598,749,c),
(593,734,o),
(587,721,o),
(584,710,c),
(584,701,o),
(597,692,o),
(611,694,cs),
(618,695,o),
(635,703,o),
(641,707,c),
(690,768,o),
(656,810,o),
(563,821,cs),
(544,823,o),
(522,821,o),
(505,820,cs),
(414,811,o),
(347,776,o),
(298,734,cs),
(221,671,o),
(218,616,o),
(275,552,cs),
(312,510,o),
(372,477,o),
(441,450,cs),
(487,432,o),
(528,417,o),
(567,375,cs),
(580,362,o),
(577,345,o),
(562,335,c),
(546,327,o),
(535,320,o),
(527,318,cs),
(460,300,o),
(395,283,o),
(330,285,cs),
(280,287,o),
(232,287,o),
(184,294,cs),
(119,302,o),
(54,313,o),
(-13,327,cs),
(-24,330,o),
(-36,341,o),
(-55,353,c),
(-34,369,o),
(-20,380,o),
(-6,388,c),
(4,391,o),
(18,393,o),
(27,397,cs),
(34,400,o),
(53,408,o),
(52,414,c),
(52,424,o),
(17,423,o),
(8,420,cs),
(-23,409,o),
(-55,401,o),
(-77,390,cs),
(-123,370,o),
(-130,351,o),
(-94,326,cs),
(-78,315,o),
(-51,302,o),
(-21,296,cs),
(60,282,o),
(145,268,o),
(231,257,cs)
);
}
);
width = 789;
}
);
unicode = 83;
},
{
glyphname = T;
lastChange = "2023-03-09 23:01:59 +0000";
layers = (
{
layerId = m01;
shapes = (
{
closed = 1;
nodes = (
(463,15,o),
(457,41,o),
(459,56,cs),
(460,63,o),
(459,73,o),
(459,82,cs),
(459,246,o),
(453,408,o),
(451,571,cs),
(450,627,o),
(452,628,o),
(511,629,cs),
(638,631,o),
(765,638,o),
(891,638,cs),
(898,638,o),
(907,639,o),
(914,640,cs),
(917,641,o),
(928,644,o),
(925,647,cs),
(921,651,o),
(918,657,o),
(913,659,cs),
(907,661,o),
(898,662,o),
(892,662,cs),
(810,662,o),
(729,667,o),
(648,671,cs),
(424,681,o),
(200,645,o),
(-20,703,cs),
(-30,706,o),
(-47,697,o),
(-49,690,cs),
(-52,682,o),
(-44,667,o),
(-37,661,cs),
(-24,652,o),
(-8,648,o),
(9,641,cs),
(27,634,o),
(44,590,o),
(66,638,cs),
(68,641,o),
(83,639,o),
(93,638,cs),
(152,635,o),
(212,631,o),
(273,629,cs),
(312,627,o),
(349,629,o),
(387,629,cs),
(406,629,o),
(416,625,o),
(416,602,cs),
(416,537,o),
(415,474,o),
(415,411,cs),
(415,407,o),
(427,415,o),
(427,411,cs),
(416,314,o),
(427,175,o),
(427,58,cs),
(427,43,o),
(434,15,o),
(450,15,cs)
);
}
);
width = 876;
},
{
layerId = "4FA42A6D-6079-488C-BBF5-0F13D00932C7";
shapes = (
{
closed = 1;
nodes = (
(555,-68,o),
(561,-32,o),
(562,-16,cs),
(562,-10,o),
(562,0,o),
(562,6,cs),
(562,138,o),
(558,268,o),
(557,399,cs),
(556,426,o),
(556,426,o),
(575,426,cs),
(654,427,o),
(733,433,o),
(810,433,cs),
(818,433,o),
(828,435,o),
(831,435,cs),
(834,436,o),
(852,473,o),
(847,473,c),
(846,475,o),
(837,486,o),
(833,488,c),
(828,491,o),
(819,492,o),
(811,492,cs),
(761,492,o),
(711,496,o),
(661,500,cs),
(517,508,o),
(383,479,o),
(251,525,cs),
(234,531,o),
(211,517,o),
(206,500,cs),
(203,486,o),
(210,467,o),
(220,457,cs),
(231,447,o),
(243,443,o),
(252,438,cs),
(257,435,o),
(291,407,o),
(310,434,c),
(310,433,o),
(311,433,o),
(312,433,cs),
(349,431,o),
(386,427,o),
(425,426,cs),
(451,424,o),
(474,426,o),
(497,426,cs),
(508,426,o),
(495,484,o),
(495,424,cs),
(495,372,o),
(494,321,o),
(494,271,cs),
(494,267,o),
(501,273,o),
(501,271,c),
(495,192,o),
(501,80,o),
(501,-13,cs),
(501,-35,o),
(510,-68,o),
(536,-68,cs)
);
}
);
width = 876;
},
{
layerId = "5563113E-3DD8-48BA-8230-66BC42B26329";
shapes = (
{
closed = 1;
nodes = (
(407,164,o),
(406,181,o),
(410,191,cs),
(412,196,o),
(413,203,o),
(415,209,cs),
(444,319,o),
(467,427,o),
(494,537,cs),
(503,574,o),
(505,575,o),
(559,575,cs),
(677,577,o),
(795,581,o),
(911,581,cs),
(918,581,o),
(927,582,o),
(933,583,cs),
(936,583,o),
(946,585,o),
(944,587,cs),
(942,590,o),
(940,594,o),
(935,596,cs),
(931,597,o),
(923,598,o),
(917,598,cs),
(841,598,o),
(768,601,o),
(693,604,cs),
(488,610,o),
(276,586,o),
(83,625,cs),
(74,627,o),
(57,621,o),
(54,616,cs),
(49,611,o),
(54,601,o),
(60,597,cs),
(70,591,o),
(84,588,o),
(98,583,cs),
(114,579,o),
(122,549,o),
(150,581,cs),
(153,583,o),
(167,582,o),
(175,581,cs),
(229,579,o),
(284,577,o),
(340,575,cs),
(376,574,o),
(410,575,o),
(445,575,cs),
(463,575,o),
(471,573,o),
(467,557,cs),
(456,514,o),
(444,472,o),
(433,429,cs),
(432,427,o),
(444,432,o),
(444,429,cs),
(416,364,o),
(402,271,o),
(382,193,cs),
(379,183,o),
(380,164,o),
(395,164,cs)
);
}
);
width = 876;
},
{
layerId = "2CBB5782-2C08-483D-96E9-15912637AE76";
shapes = (
{
closed = 1;
nodes = (
(750,-51,o),
(731,-20,o),
(725,7,cs),
(724,17,o),
(719,30,o),
(716,42,cs),
(659,260,o),
(598,475,o),
(540,691,cs),
(521,763,o),
(521,763,o),
(551,764,cs),
(644,766,o),
(733,776,o),
(824,776,cs),
(830,776,o),
(844,778,o),
(849,779,c),
(852,782,o),
(859,791,o),
(856,794,c),
(855,795,o),
(849,804,o),
(844,809,c),
(839,811,o),
(824,816,o),
(814,816,cs),
(755,816,o),
(695,822,o),
(634,828,cs),
(459,842,o),
(323,792,o),
(142,870,cs),
(126,876,o),
(103,863,o),
(104,850,cs),
(104,837,o),
(113,823,o),
(122,812,cs),
(133,799,o),
(150,793,o),
(170,781,c),
(169,781,o),
(235,700,o),
(237,779,cs),
(236,776,o),
(236,776,o),
(239,776,cs),
(282,772,o),
(329,766,o),
(376,764,cs),
(405,761,o),
(433,764,o),
(460,764,cs),
(465,764,o),
(466,763,o),
(474,732,cs),
(497,646,o),
(518,562,o),
(539,479,cs),
(541,473,o),
(547,484,o),
(548,479,cs),
(574,350,o),
(631,165,o),
(671,10,cs),
(678,-16,o),
(689,-51,o),
(719,-51,cs)
);
}
);
width = 876;
}
);
unicode = 84;
},
{
glyphname = U;
lastChange = "2023-03-10 01:48:30 +0000";
layers = (
{
layerId = m01;
shapes = (
{
closed = 1;
nodes = (
(450,-7,o),
(525,50,o),
(586,127,c),
(664,228,o),
(721,338,o),
(717,469,c),
(713,544,o),
(697,612,o),
(649,671,c),
(623,703,o),
(596,703,o),
(571,670,c),
(560,656,o),
(554,639,o),
(548,623,c),
(545,613,o),
(544,598,o),
(550,591,cs),
(560,580,o),
(565,606,o),
(572,612,c),
(582,622,o),
(595,639,o),
(603,639,c),
(616,638,o),
(633,623,o),
(638,611,c),
(672,529,o),
(684,446,o),
(662,358,c),
(637,271,o),
(592,195,o),
(533,130,c),
(478,70,o),
(413,23,o),
(313,28,c),
(148,22,o),
(51,159,o),
(63,308,c),
(69,394,o),
(63,483,o),
(99,566,c),
(103,572,o),
(100,594,o),
(91,594,cs),
(82,594,o),
(67,592,o),
(63,586,c),
(52,570,o),
(41,552,o),
(40,535,c),
(30,439,o),
(15,343,o),
(22,249,c),
(34,67,o),
(180,-29,o),
(351,-16,c)
);
}
);
width = 737;
},
{
layerId = "4FA42A6D-6079-488C-BBF5-0F13D00932C7";
shapes = (
{
closed = 1;
nodes = (
(371,-71,o),
(421,-2,o),
(459,90,cs),
(505,207,o),
(535,337,o),
(519,490,cs),
(508,578,o),
(490,659,o),
(448,729,cs),
(421,773,o),
(392,773,o),
(374,727,cs),
(367,710,o),
(364,689,o),
(361,670,cs),
(360,658,o),
(361,637,o),
(368,626,cs),
(379,611,o),
(393,642,o),
(398,650,cs),
(402,657,o),
(413,670,o),
(413,675,c),
(418,671,o),
(425,661,o),
(428,653,cs),
(461,557,o),
(477,463,o),
(470,363,cs),
(461,264,o),
(437,176,o),
(401,102,cs),
(367,34,o),
(330,-17,o),
(261,-11,c),
(149,-18,o),
(69,132,o),
(63,303,cs),
(58,403,o),
(46,505,o),
(63,599,cs),
(66,613,o),
(59,645,o),
(43,645,cs),
(32,645,o),
(18,640,o),
(15,630,cs),
(9,611,o),
(2,588,o),
(3,567,cs),
(6,456,o),
(5,344,o),
(19,235,cs),
(47,18,o),
(167,-98,o),
(296,-82,cs)
);
}
);
width = 737;
},
{
layerId = "5563113E-3DD8-48BA-8230-66BC42B26329";
shapes = (
{
closed = 1;
nodes = (
(407,247,o),
(448,307,o),
(476,380,cs),
(510,473,o),
(531,575,o),
(510,688,cs),
(498,752,o),
(478,810,o),
(439,857,cs),
(414,888,o),
(389,884,o),
(374,845,c),
(370,832,o),
(368,815,o),
(366,801,cs),
(365,781,o),
(378,766,o),
(376,739,c),
(389,766,o),
(396,777,o),
(401,787,cs),
(406,796,o),
(410,805,o),
(410,807,c),
(415,806,o),
(421,800,o),
(424,793,cs),
(455,728,o),
(474,662,o),
(472,587,cs),
(468,512,o),
(451,446,o),
(424,386,cs),
(398,331,o),
(368,289,o),
(310,284,c),
(215,264,o),
(143,362,o),
(130,487,cs),
(122,561,o),
(107,634,o),
(118,706,c),
(119,711,o),
(108,737,o),
(104,745,c),
(96,741,o),
(76,732,o),
(73,725,cs),
(68,710,o),
(63,691,o),
(66,674,c),
(73,593,o),
(76,510,o),
(93,430,cs),
(126,271,o),
(234,200,o),
(343,230,cs)
);
}
);
width = 737;
},
{
layerId = "2CBB5782-2C08-483D-96E9-15912637AE76";
shapes = (
{
closed = 1;
nodes = (
(527,-106,o),
(616,-22,o),
(683,69,cs),
(777,200,o),
(841,326,o),
(836,455,cs),
(832,524,o),
(817,587,o),
(755,638,cs),
(723,664,o),
(675,651,o),
(644,608,cs),
(626,582,o),
(620,566,o),
(615,552,cs),
(609,530,o),
(624,535,o),
(617,494,c),
(638,519,o),
(675,560,o),
(666,549,c),
(681,567,o),
(697,584,o),
(692,583,cs),
(698,584,o),
(711,577,o),
(717,563,cs),
(755,495,o),
(769,414,o),
(745,321,c),
(715,223,o),
(664,133,o),
(602,57,cs),
(536,-23,o),
(469,-84,o),
(363,-107,c),
(185,-159,o),
(80,-56,o),
(94,99,cs),
(101,188,o),
(94,278,o),
(135,370,c),
(138,383,o),
(123,392,o),
(122,398,c),
(113,391,o),
(73,383,o),
(67,372,c),
(50,347,o),
(39,327,o),
(38,311,cs),
(26,211,o),
(9,112,o),
(17,20,cs),
(31,-159,o),
(205,-214,o),
(407,-147,cs)
);
}
);
width = 737;
}
);
unicode = 85;
},
{
glyphname = V;
lastChange = "2023-03-09 22:18:53 +0000";
layers = (
{
layerId = m01;
shapes = (
{
closed = 1;
nodes = (
(276,-22,o),
(294,-2,o),
(310,11,cs),
(317,17,o),
(320,25,o),
(323,33,cs),
(370,154,o),
(418,275,o),
(462,396,cs),
(503,511,o),
(561,619,o),
(622,724,cs),
(639,753,o),
(658,767,o),
(699,767,cs),
(709,767,o),
(726,769,o),
(726,778,cs),
(726,790,o),
(710,800,o),
(697,803,cs),
(685,806,o),
(667,806,o),
(656,798,cs),
(630,779,o),
(604,757,o),
(586,731,cs),
(489,589,o),
(435,428,o),
(377,269,cs),
(349,193,o),
(319,118,o),
(287,44,cs),
(283,35,o),
(277,21,o),
(264,21,cs),
(255,21,o),
(250,36,o),
(245,44,cs),
(241,49,o),
(238,57,o),
(237,63,cs),
(218,166,o),
(176,261,o),
(119,348,cs),
(89,394,o),
(56,443,o),
(17,482,cs),
(10,489,o),
(-10,495,o),
(-20,486,cs),
(-28,478,o),
(-20,462,o),
(-13,454,cs),
(-1,440,o),
(18,430,o),
(30,414,cs),
(103,317,o),
(165,211,o),
(195,91,cs),
(202,65,o),
(206,39,o),
(218,16,cs),
(226,0,o),
(245,-25,o),
(256,-24,cs)
);
}
);
width = 706;
},
{
layerId = "4FA42A6D-6079-488C-BBF5-0F13D00932C7";
shapes = (
{
closed = 1;
nodes = (
(479,-103,o),
(498,-86,o),
(513,-74,c),
(514,-74,o),
(521,-57,o),
(523,-51,cs),
(554,23,o),
(589,107,o),
(624,197,cs),
(650,266,o),
(695,340,o),
(750,423,cs),
(758,436,o),
(779,449,o),
(823,456,cs),
(842,459,o),
(850,458,o),
(846,486,cs),
(841,514,o),
(828,517,o),
(811,517,cs),
(798,517,o),
(789,518,o),
(772,506,cs),
(756,496,o),
(735,482,o),
(710,451,cs),
(633,352,o),
(594,240,o),
(550,125,cs),
(533,81,o),
(511,30,o),
(483,-28,cs),
(480,-35,o),
(474,-36,o),
(461,-38,cs),
(457,-39,o),
(441,-32,o),
(433,-26,c),
(432,-28,o),
(432,-29,o),
(432,-30,c),
(398,44,o),
(347,96,o),
(286,138,cs),
(244,168,o),
(206,194,o),
(172,207,cs),
(157,214,o),
(154,221,o),
(135,205,cs),
(128,199,o),
(150,153,o),
(150,153,c),
(163,147,o),
(191,138,o),
(197,135,cs),
(286,82,o),
(355,28,o),
(390,-33,cs),
(402,-52,o),
(410,-72,o),
(421,-81,cs),
(440,-97,o),
(456,-109,o),
(464,-107,cs)
);
}
);
width = 706;
},
{
layerId = "5563113E-3DD8-48BA-8230-66BC42B26329";
shapes = (
{
closed = 1;
nodes = (
(275,196,o),
(300,213,o),
(303,216,cs),
(313,224,o),
(313,225,o),
(315,230,cs),
(348,302,o),
(379,371,o),
(406,435,cs),
(435,505,o),
(472,564,o),
(509,619,cs),
(522,638,o),
(522,638,o),
(538,638,cs),
(554,638,o),
(581,643,o),
(581,655,cs),
(581,668,o),
(559,676,o),
(545,679,c),
(537,682,o),
(501,683,o),
(494,673,c),
(471,660,o),
(454,647,o),
(445,636,cs),
(374,546,o),
(340,456,o),
(304,371,cs),
(283,322,o),
(263,279,o),
(244,241,cs),
(243,239,o),
(245,238,o),
(253,238,cs),
(246,238,o),
(269,241,o),
(261,247,c),
(261,248,o),
(261,249,o),
(261,251,c),
(248,310,o),
(223,360,o),
(178,419,cs),
(164,438,o),
(143,466,o),
(108,496,cs),
(100,503,o),
(62,507,o),
(52,498,cs),
(38,487,o),
(49,470,o),
(54,464,c),
(61,458,o),
(66,459,o),
(81,442,cs),
(124,393,o),
(164,334,o),
(184,264,cs),
(191,243,o),
(186,243,o),
(202,218,cs),
(212,204,o),
(232,186,o),
(255,192,cs)
);
}
);
width = 706;
},
{
layerId = "2CBB5782-2C08-483D-96E9-15912637AE76";
shapes = (
{
closed = 1;
nodes = (
(242,-198,o),
(260,-178,o),
(276,-165,cs),
(283,-159,o),
(286,-151,o),
(289,-143,cs),
(336,-22,o),
(412,272,o),
(475,384,cs),
(535,491,o),
(610,587,o),
(688,681,cs),
(709,706,o),
(730,717,o),
(771,710,cs),
(781,708,o),
(798,707,o),
(799,716,cs),
(801,728,o),
(787,741,o),
(775,746,cs),
(764,751,o),
(746,754,o),
(734,748,cs),
(705,733,o),
(676,716,o),
(653,693,cs),
(532,572,o),
(440,427,o),
(369,273,cs),
(335,198,o),
(285,-58,o),
(253,-132,cs),
(249,-141,o),
(243,-155,o),
(230,-155,cs),
(221,-155,o),
(216,-140,o),
(211,-132,cs),
(207,-127,o),
(204,-119,o),
(203,-113,cs),
(184,-10,o),
(199,390,o),
(142,477,cs),
(112,523,o),
(79,572,o),
(40,611,cs),
(33,618,o),
(13,625,o),
(3,615,cs),
(-5,607,o),
(3,591,o),
(10,583,cs),
(22,569,o),
(41,559,o),
(53,543,cs),
(126,446,o),
(151,164,o),
(161,-85,cs),
(162,-111,o),
(172,-137,o),
(184,-160,cs),
(192,-176,o),
(211,-201,o),
(222,-200,cs)
);
}
);
width = 706;
}
);
unicode = 86;
},
{
glyphname = W;
lastChange = "2023-03-10 01:54:48 +0000";
layers = (
{
layerId = m01;
shapes = (
{
closed = 1;
nodes = (
(153,-73,o),
(169,-63,o),
(182,-48,c),
(216,-14,o),
(246,22,o),
(279,56,c),
(336,111,o),
(400,134,o),
(478,109,c),
(563,81,o),
(644,111,o),
(691,185,c),
(720,229,o),
(741,276,o),
(761,323,c),
(805,429,o),
(845,538,o),
(845,656,c),
(841,696,o),
(838,737,o),
(833,777,c),
(833,785,o),
(823,792,o),
(817,802,c),
(814,792,o),
(805,784,o),
(805,774,c),
(805,745,o),
(811,716,o),
(811,686,c),
(817,554,o),
(770,432,o),
(720,312,c),
(705,277,o),
(688,243,o),
(668,211,c),
(632,157,o),
(569,116,o),
(494,146,c),
(478,154,o),
(460,156,o),
(442,157,c),
(358,163,o),
(295,124,o),
(240,64,c),
(207,28,o),
(175,-8,o),
(138,-42,c),
(114,-65,o),
(93,-55,o),
(85,-24,c),
(83,-9,o),
(79,4,o),
(78,17,c),
(68,162,o),
(61,305,o),
(53,449,c),
(53,458,o),
(44,467,o),
(39,475,c),
(35,467,o),
(24,461,o),
(21,452,c),
(19,440,o),
(20,426,o),
(21,415,c),
(23,396,o),
(30,376,o),
(30,357,c),
(35,273,o),
(36,189,o),
(41,104,c),
(43,56,o),
(48,7,o),
(56,-42,c),
(65,-90,o),
(89,-102,o),
(135,-82,c)
);
}
);
width = 835;
},
{
layerId = "4FA42A6D-6079-488C-BBF5-0F13D00932C7";
shapes = (
{
closed = 1;
nodes = (
(290,132,o),
(305,132,o),
(316,141,c),
(344,155,o),
(369,173,o),
(397,188,cs),
(443,209,o),
(492,195,o),
(555,127,cs),
(629,46,o),
(701,28,o),
(742,77,cs),
(768,103,o),
(785,139,o),
(802,174,cs),
(839,255,o),
(873,341,o),
(873,461,c),
(870,505,o),
(867,548,o),
(863,591,cs),
(862,608,o),
(841,635,o),
(839,657,c),
(839,627,o),
(823,636,o),
(823,615,cs),
(823,585,o),
(828,552,o),
(828,523,cs),
(833,390,o),
(794,297,o),
(753,206,cs),
(740,180,o),
(726,157,o),
(710,136,cs),
(681,104,o),
(633,101,o),
(574,170,c),
(560,189,o),
(543,202,o),
(528,214,cs),
(455,271,o),
(399,269,o),
(352,241,cs),
(325,224,o),
(298,207,o),
(267,195,cs),
(251,188,o),
(243,199,o),
(237,229,c),
(235,245,o),
(232,260,o),
(231,273,cs),
(223,424,o),
(217,571,o),
(210,718,cs),
(210,736,o),
(191,765,o),
(189,779,c),
(188,760,o),
(171,769,o),
(167,754,c),
(165,742,o),
(166,726,o),
(167,714,cs),
(168,693,o),
(174,669,o),
(174,652,cs),
(178,565,o),
(179,480,o),
(183,391,cs),
(185,342,o),
(189,290,o),
(196,235,cs),
(204,176,o),
(230,141,o),
(274,134,cs)
);
}
);
width = 835;
},
{
layerId = "5563113E-3DD8-48BA-8230-66BC42B26329";
shapes = (
{
closed = 1;
nodes = (
(423,-92,o),
(434,-92,o),
(445,-84,cs),
(467,-70,o),
(486,-53,o),
(508,-39,cs),
(542,-20,o),
(581,-35,o),
(630,-106,cs),
(688,-188,o),
(744,-212,o),
(778,-160,cs),
(797,-133,o),
(811,-98,o),
(825,-62,cs),
(854,17,o),
(881,104,o),
(881,225,c),
(878,268,o),
(876,311,o),
(873,354,cs),
(872,372,o),
(856,393,o),
(855,413,c),
(856,387,o),
(841,388,o),
(841,367,cs),
(841,337,o),
(845,304,o),
(845,275,cs),
(849,142,o),
(819,52,o),
(787,-38,cs),
(778,-63,o),
(767,-85,o),
(754,-104,cs),
(733,-133,o),
(697,-136,o),
(650,-63,cs),
(639,-44,o),
(626,-31,o),
(615,-19,cs),
(558,42,o),
(515,40,o),
(477,13,cs),
(456,-3,o),
(436,-19,o),
(412,-31,cs),
(400,-37,o),
(390,-21,o),
(385,12,c),
(384,29,o),
(382,43,o),
(381,56,cs),
(374,207,o),
(370,354,o),
(365,502,cs),
(365,519,o),
(351,547,o),
(350,558,c),
(346,541,o),
(335,543,o),
(331,528,c),
(329,516,o),
(330,500,o),
(331,487,cs),
(332,466,o),
(337,441,o),
(337,424,cs),
(340,337,o),
(341,253,o),
(344,164,cs),
(345,114,o),
(348,62,o),
(354,8,cs),
(360,-50,o),
(378,-81,o),
(411,-90,cs)
);
}
);
width = 835;
},
{
layerId = "2CBB5782-2C08-483D-96E9-15912637AE76";
shapes = (
{
closed = 1;
nodes = (
(202,116,o),
(215,127,o),
(223,137,cs),
(253,172,o),
(275,203,o),
(296,229,cs),
(340,279,o),
(378,299,o),
(431,291,cs),
(501,281,o),
(574,319,o),
(610,381,cs),
(635,425,o),
(649,461,o),
(664,496,cs),
(698,586,o),
(728,672,o),
(728,760,c),
(725,789,o),
(723,820,o),
(719,851,c),
(719,858,o),
(704,855,o),
(687,897,c),
(680,847,o),
(668,850,o),
(668,839,cs),
(668,817,o),
(672,797,o),
(672,773,cs),
(677,673,o),
(641,574,o),
(605,480,cs),
(592,448,o),
(579,420,o),
(566,398,cs),
(538,349,o),
(505,321,o),
(457,330,c),
(445,335,o),
(425,333,o),
(410,332,cs),
(339,325,o),
(284,280,o),
(245,231,cs),
(216,195,o),
(192,164,o),
(169,138,cs),
(159,127,o),
(159,127,o),
(154,147,cs),
(152,156,o),
(149,166,o),
(149,176,cs),
(141,284,o),
(136,391,o),
(130,500,cs),
(130,507,o),
(112,520,o),
(102,538,c),
(88,493,o),
(80,509,o),
(75,489,c),
(74,481,o),
(75,471,o),
(75,464,c),
(77,452,o),
(82,437,o),
(82,421,cs),
(86,359,o),
(87,295,o),
(91,232,cs),
(92,196,o),
(96,160,o),
(102,123,cs),
(110,87,o),
(140,78,o),
(183,104,cs)
);
}
);
width = 835;
}
);
unicode = 87;
},
{
glyphname = X;
lastChange = "2023-03-10 01:52:28 +0000";
layers = (
{
layerId = m01;
shapes = (
{
closed = 1;
nodes = (
(471,-27,o),
(471,-19,o),
(468,-15,c),
(451,8,o),
(431,27,o),
(417,51,c),
(383,110,o),
(356,172,o),
(321,231,c),
(304,260,o),
(307,278,o),
(331,298,c),
(434,386,o),
(535,476,o),
(640,564,c),
(738,645,o),
(845,714,o),
(954,776,c),
(963,780,o),
(969,790,o),
(976,796,c),
(966,796,o),
(954,795,o),
(945,794,c),
(944,794,o),
(943,793,o),
(942,791,c),
(806,728,o),
(685,641,o),
(568,548,c),
(477,477,o),
(392,397,o),
(306,320,c),
(289,304,o),
(282,309,o),
(275,325,c),
(259,361,o),
(244,397,o),
(227,433,c),
(221,448,o),
(213,465,o),
(205,478,c),
(202,482,o),
(190,486,o),
(185,484,c),
(180,481,o),
(175,472,o),
(175,466,c),
(174,458,o),
(177,450,o),
(182,442,c),
(204,397,o),
(226,352,o),
(248,306,c),
(251,299,o),
(256,291,o),
(260,284,c),
(251,273,o),
(246,264,o),
(237,258,c),
(149,193,o),
(90,97,o),
(-6,44,c),
(-14,39,o),
(-15,22,o),
(-20,11,c),
(-9,10,o),
(1,4,o),
(13,5,c),
(48,8,o),
(62,37,o),
(84,59,c),
(140,116,o),
(200,170,o),
(256,226,c),
(275,245,o),
(283,242,o),
(294,219,c),
(324,158,o),
(354,100,o),
(389,42,c),
(404,15,o),
(431,-6,o),
(452,-31,c),
(456,-34,o),
(467,-33,o),
(472,-34,c)
);
}
);
width = 876;
},
{
layerId = "4FA42A6D-6079-488C-BBF5-0F13D00932C7";
shapes = (
{
closed = 1;
nodes = (
(660,66,o),
(660,81,o),
(654,92,cs),
(638,119,o),
(622,140,o),
(609,166,cs),
(577,232,o),
(548,300,o),
(515,366,cs),
(500,395,o),
(500,407,o),
(511,422,cs),
(569,500,o),
(625,580,o),
(682,658,cs),
(737,730,o),
(799,787,o),
(865,837,c),
(875,843,o),
(876,864,o),
(889,872,c),
(874,876,o),
(859,878,o),
(849,877,cs),
(846,878,o),
(844,876,o),
(843,873,c),
(759,826,o),
(690,750,o),
(625,669,cs),
(572,607,o),
(527,534,o),
(479,465,cs),
(474,457,o),
(474,457,o),
(469,469,cs),
(452,509,o),
(436,548,o),
(419,588,cs),
(412,605,o),
(404,624,o),
(396,640,cs),
(390,649,o),
(377,657,o),
(372,654,cs),
(367,650,o),
(364,638,o),
(365,629,cs),
(366,617,o),
(371,606,o),
(376,596,cs),
(398,547,o),
(420,497,o),
(442,447,c),
(444,441,o),
(448,434,o),
(451,428,c),
(448,420,o),
(446,414,o),
(442,411,cs),
(391,354,o),
(366,262,o),
(309,220,c),
(300,211,o),
(307,177,o),
(301,170,c),
(309,174,o),
(321,157,o),
(335,157,cs),
(363,155,o),
(368,187,o),
(379,206,cs),
(409,258,o),
(442,306,o),
(472,357,cs),
(479,369,o),
(479,369,o),
(487,350,cs),
(518,282,o),
(547,217,o),
(581,152,cs),
(596,120,o),
(619,93,o),
(637,65,cs),
(645,55,o),
(657,60,o),
(665,51,c)
);
}
);
width = 876;
},
{
layerId = "5563113E-3DD8-48BA-8230-66BC42B26329";
shapes = (
{
closed = 1;
nodes = (
(502,-140,o),
(476,-83,o),
(467,-64,cs),
(455,-38,o),
(444,-21,o),
(436,0,cs),
(415,58,o),
(398,120,o),
(377,181,cs),
(368,203,o),
(368,204,o),
(379,220,cs),
(443,306,o),
(506,396,o),
(572,486,cs),
(632,565,o),
(697,632,o),
(765,694,c),
(785,708,o),
(784,748,o),
(820,754,c),
(798,758,o),
(769,757,o),
(753,754,cs),
(750,754,o),
(748,751,o),
(745,747,c),
(660,684,o),
(585,597,o),
(512,504,cs),
(455,433,o),
(402,351,o),
(347,274,c),
(329,244,o),
(358,235,o),
(348,271,cs),
(338,309,o),
(329,345,o),
(318,380,c),
(314,396,o),
(309,415,o),
(303,428,cs),
(297,442,o),
(285,448,o),
(276,442,cs),
(267,436,o),
(262,418,o),
(262,405,cs),
(261,392,o),
(264,378,o),
(267,369,cs),
(281,325,o),
(295,280,o),
(309,235,c),
(309,231,o),
(310,227,o),
(312,224,c),
(309,220,o),
(308,216,o),
(305,214,c),
(247,145,o),
(215,53,o),
(155,1,cs),
(138,-15,o),
(95,-55,o),
(111,-88,cs),
(135,-137,o),
(148,-83,o),
(174,-79,cs),
(203,-74,o),
(214,-39,o),
(226,-19,cs),
(261,38,o),
(299,92,o),
(334,148,cs),
(336,152,o),
(336,152,o),
(337,147,cs),
(356,86,o),
(375,26,o),
(397,-32,cs),
(408,-63,o),
(427,-86,o),
(438,-109,c),
(451,-125,o),
(447,-140,o),
(482,-140,cs)
);
}
);
width = 876;
},
{
layerId = "2CBB5782-2C08-483D-96E9-15912637AE76";
shapes = (
{
closed = 1;
nodes = (
(296,147,o),
(299,146,o),
(296,151,c),
(288,179,o),
(282,178,o),
(275,211,cs),
(264,256,o),
(260,298,o),
(245,352,cs),
(241,372,o),
(247,387,o),
(260,393,cs),
(348,440,o),
(431,484,o),
(511,525,cs),
(595,566,o),
(678,595,o),
(756,618,cs),
(766,621,o),
(774,626,o),
(783,631,c),
(769,634,o),
(744,642,o),
(738,641,c),
(734,641,o),
(729,640,o),
(733,639,c),
(627,617,o),
(534,578,o),
(444,536,cs),
(366,500,o),
(296,459,o),
(230,424,cs),
(219,418,o),
(236,408,o),
(234,426,cs),
(230,450,o),
(227,476,o),
(223,508,cs),
(222,515,o),
(219,529,o),
(217,540,c),
(219,547,o),
(188,562,o),
(181,558,c),
(172,555,o),
(168,552,o),
(167,546,cs),
(164,540,o),
(166,535,o),
(167,527,cs),
(173,495,o),
(179,460,o),
(185,420,cs),
(185,418,o),
(187,412,o),
(189,405,c),
(185,401,o),
(180,397,o),
(178,395,cs),
(100,362,o),
(43,305,o),
(-22,286,cs),
(-30,284,o),
(-43,264,o),
(-46,263,c),
(-34,257,o),
(-21,249,o),
(-10,247,cs),
(23,241,o),
(32,256,o),
(56,271,cs),
(107,304,o),
(157,329,o),
(199,357,cs),
(214,366,o),
(195,377,o),
(199,352,cs),
(207,309,o),
(215,263,o),
(228,212,cs),
(232,195,o),
(245,178,o),
(255,154,c),
(256,146,o),
(281,140,o),
(296,136,c)
);
}
);
width = 876;
}
);
unicode = 88;
},
{
glyphname = Y;
lastChange = "2023-03-10 01:53:03 +0000";
layers = (
{
layerId = m01;
shapes = (
{
closed = 1;
nodes = (
(35,-83,o),
(39,-76,o),
(40,-68,c),
(48,-3,o),
(54,61,o),
(66,126,c),
(77,190,o),
(99,255,o),
(113,320,c),
(120,365,o),
(144,399,o),
(180,432,c),
(261,507,o),
(337,586,o),
(418,664,c),
(467,708,o),
(505,763,o),
(578,787,c),
(584,789,o),
(586,795,o),
(591,799,c),
(584,804,o),
(577,811,o),
(571,811,c),
(560,810,o),
(549,807,o),
(541,799,c),
(494,765,o),
(447,733,o),
(406,693,c),
(337,631,o),
(274,562,o),
(206,496,c),
(183,474,o),
(155,456,o),
(127,437,c),
(106,422,o),
(90,429,o),
(82,451,c),
(80,458,o),
(76,467,o),
(75,475,c),
(62,542,o),
(53,609,o),
(39,674,c),
(37,684,o),
(26,691,o),
(19,700,c),
(15,691,o),
(5,685,o),
(3,675,c),
(-2,668,o),
(0,658,o),
(3,650,c),
(15,591,o),
(26,531,o),
(39,472,c),
(46,448,o),
(52,419,o),
(68,401,c),
(85,384,o),
(89,369,o),
(85,351,c),
(70,290,o),
(54,226,o),
(39,165,c),
(26,106,o),
(16,46,o),
(3,-13,c),
(5,-13,o),
(7,-13,o),
(8,-13,c),
(10,-33,o),
(10,-52,o),
(15,-73,c),
(16,-79,o),
(26,-84,o),
(33,-90,c)
);
}
);
width = 551;
},
{
layerId = "4FA42A6D-6079-488C-BBF5-0F13D00932C7";
shapes = (
{
closed = 1;
nodes = (
(290,-55,o),
(298,-44,o),
(298,-32,cs),
(298,19,o),
(296,68,o),
(300,119,cs),
(303,169,o),
(317,222,o),
(323,275,c),
(324,308,o),
(342,334,o),
(372,365,cs),
(443,435,o),
(509,507,o),
(579,579,cs),
(623,621,o),
(653,668,o),
(720,696,c),
(734,703,o),
(727,712,o),
(746,720,c),
(731,723,o),
(717,734,o),
(704,732,cs),
(692,729,o),
(679,725,o),
(671,716,c),
(629,683,o),
(586,651,o),
(550,614,cs),
(489,555,o),
(435,492,o),
(376,431,cs),
(357,412,o),
(332,394,o),
(306,375,cs),
(291,363,o),
(283,364,o),
(275,376,cs),
(272,382,o),
(267,387,o),
(266,392,cs),
(245,441,o),
(228,491,o),
(206,539,cs),
(199,554,o),
(177,555,o),
(169,567,c),
(171,552,o),
(154,548,o),
(151,533,c),
(147,523,o),
(150,514,o),
(155,505,c),
(174,463,o),
(192,419,o),
(212,376,cs),
(222,358,o),
(233,335,o),
(253,322,cs),
(270,313,o),
(273,307,o),
(271,296,cs),
(264,248,o),
(256,196,o),
(249,147,cs),
(242,95,o),
(240,43,o),
(233,-8,c),
(237,-7,o),
(240,-6,o),
(242,-6,c),
(245,-18,o),
(248,-31,o),
(254,-44,cs),
(260,-57,o),
(278,-53,o),
(290,-65,c)
);
}
);
width = 551;
},
{
layerId = "5563113E-3DD8-48BA-8230-66BC42B26329";
shapes = (
{
closed = 1;
nodes = (
(95,-133,o),
(105,-131,o),
(109,-119,cs),
(128,-71,o),
(144,-22,o),
(166,25,cs),
(187,70,o),
(219,115,o),
(244,164,c),
(257,195,o),
(283,213,o),
(323,230,cs),
(414,271,o),
(501,316,o),
(593,359,cs),
(649,383,o),
(694,416,o),
(767,419,c),
(779,421,o),
(785,432,o),
(802,436,c),
(784,442,o),
(779,458,o),
(765,461,cs),
(754,463,o),
(740,463,o),
(729,458,cs),
(678,442,o),
(626,427,o),
(578,404,c),
(501,371,o),
(428,330,o),
(351,294,cs),
(326,282,o),
(296,275,o),
(265,266,cs),
(247,260,o),
(239,264,o),
(236,278,c),
(235,285,o),
(233,291,o),
(233,295,c),
(231,350,o),
(234,403,o),
(230,456,cs),
(230,474,o),
(208,486,o),
(207,497,c),
(202,482,o),
(187,484,o),
(178,472,c),
(170,465,o),
(169,454,o),
(171,442,c),
(173,395,o),
(174,347,o),
(178,299,c),
(180,279,o),
(182,253,o),
(196,233,cs),
(208,218,o),
(209,213,o),
(204,203,cs),
(180,160,o),
(153,113,o),
(128,69,cs),
(104,22,o),
(83,-26,o),
(58,-72,c),
(61,-73,o),
(65,-74,o),
(67,-74,c),
(65,-87,o),
(64,-100,o),
(65,-115,cs),
(65,-119,o),
(84,-140,o),
(91,-148,c)
);
}
);
width = 551;
},
{
layerId = "2CBB5782-2C08-483D-96E9-15912637AE76";
shapes = (
{
closed = 1;
nodes = (
(19,82,o),
(27,98,o),
(28,106,cs),
(34,157,o),
(38,206,o),
(47,256,cs),
(55,309,o),
(72,363,o),
(82,413,c),
(87,451,o),
(105,482,o),
(128,512,cs),
(192,592,o),
(248,671,o),
(306,746,cs),
(346,796,o),
(373,845,o),
(421,878,cs),
(432,885,o),
(437,893,o),
(437,895,c),
(430,895,o),
(426,904,o),
(412,898,cs),
(400,892,o),
(385,883,o),
(381,876,c),
(344,836,o),
(309,800,o),
(282,764,cs),
(227,696,o),
(180,628,o),
(133,565,cs),
(111,538,o),
(93,519,o),
(75,501,cs),
(64,490,o),
(64,490,o),
(58,504,cs),
(58,507,o),
(55,512,o),
(54,520,c),
(44,565,o),
(37,613,o),
(27,659,cs),
(25,667,o),
(6,669,o),
(-2,685,c),
(-9,653,o),
(-22,652,o),
(-22,641,c),
(-26,632,o),
(-24,630,o),
(-21,623,c),
(-13,583,o),
(-5,542,o),
(5,500,c),
(10,486,o),
(13,466,o),
(29,454,c),
(39,448,o),
(42,436,o),
(39,422,cs),
(28,372,o),
(16,319,o),
(5,272,cs),
(-5,222,o),
(-13,173,o),
(-23,126,c),
(-21,127,o),
(-19,127,o),
(-18,128,c),
(-17,115,o),
(-17,102,o),
(-13,87,cs),
(-12,82,o),
(11,82,o),
(18,71,c)
);
}
);
width = 551;
}
);
unicode = 89;
},
{
glyphname = Z;
lastChange = "2023-03-09 22:20:41 +0000";
layers = (
{
layerId = m01;
shapes = (
{
closed = 1;
nodes = (
(59,17,o),
(99,38,o),
(140,57,cs),
(256,111,o),
(378,141,o),
(494,141,cs),
(535,141,o),
(563,141,o),
(592,141,cs),
(598,141,o),
(607,148,o),
(607,153,cs),
(607,159,o),
(599,164,o),
(594,165,cs),
(495,182,o),
(393,188,o),
(293,160,cs),
(228,142,o),
(166,111,o),
(101,86,cs),
(95,84,o),
(86,78,o),
(83,82,cs),
(80,86,o),
(86,95,o),
(91,101,cs),
(126,140,o),
(161,180,o),
(197,218,cs),
(271,298,o),
(345,376,o),
(419,461,cs),
(457,504,o),
(494,552,o),
(524,603,cs),
(551,647,o),
(537,675,o),
(489,684,cs),
(471,687,o),
(453,686,o),
(433,684,cs),
(383,679,o),
(333,676,o),
(282,667,cs),
(240,659,o),
(198,648,o),
(156,636,cs),
(147,634,o),
(134,630,o),
(130,622,cs),
(125,614,o),
(129,590,o),
(129,590,cs),
(161,590,o),
(193,582,o),
(224,588,cs),
(251,594,o),
(276,615,o),
(303,622,cs),
(342,632,o),
(383,634,o),
(423,639,cs),
(445,642,o),
(489,656,o),
(489,634,cs),
(489,610,o),
(474,588,o),
(459,573,cs),
(350,464,o),
(255,339,o),
(153,223,cs),
(100,162,o),
(46,104,o),
(-6,42,cs),
(-14,33,o),
(-20,18,o),
(-20,6,cs),
(-20,-8,o),
(7,-3,o),
(18,1,cs)
);
}
);
width = 607;
},
{
layerId = "4FA42A6D-6079-488C-BBF5-0F13D00932C7";
shapes = (
{
closed = 1;
nodes = (
(413,-102,o),
(434,-85,o),
(454,-69,c),
(513,-24,o),
(576,10,o),
(644,28,c),
(668,34,o),
(685,40,o),
(702,45,c),
(716,48,o),
(727,62,o),
(722,75,c),
(718,86,o),
(703,92,o),
(689,89,cs),
(626,81,o),
(558,67,o),
(502,34,c),
(465,14,o),
(433,-12,o),
(401,-35,c),
(391,-42,o),
(403,-40,o),
(405,-47,cs),
(408,-54,o),
(414,-65,o),
(421,-49,c),
(434,-23,o),
(448,3,o),
(462,27,c),
(491,80,o),
(520,132,o),
(548,188,c),
(563,216,o),
(577,249,o),
(584,281,c),
(596,319,o),
(569,341,o),
(526,337,c),
(512,335,o),
(498,330,o),
(487,326,c),
(457,316,o),
(427,306,o),
(397,292,c),
(373,280,o),
(348,268,o),
(325,254,cs),
(318,250,o),
(306,244,o),
(305,231,c),
(303,219,o),
(305,187,o),
(319,192,cs),
(341,197,o),
(370,199,o),
(397,212,c),
(416,223,o),
(428,237,o),
(439,244,c),
(459,253,o),
(482,261,o),
(506,270,c),
(521,277,o),
(526,270,o),
(519,289,c),
(522,282,o),
(519,274,o),
(514,267,c),
(469,192,o),
(437,112,o),
(398,36,c),
(378,-3,o),
(357,-42,o),
(338,-81,c),
(333,-93,o),
(332,-106,o),
(335,-114,c),
(344,-137,o),
(375,-130,o),
(392,-118,c)
);
}
);
width = 607;
},
{
layerId = "5563113E-3DD8-48BA-8230-66BC42B26329";
shapes = (
{
closed = 1;
nodes = (
(-41,101,o),
(8,109,o),
(63,115,cs),
(198,132,o),
(343,128,o),
(473,98,cs),
(518,88,o),
(549,81,o),
(581,74,cs),
(585,73,o),
(589,76,o),
(593,83,c),
(601,89,o),
(582,115,o),
(582,115,c),
(475,156,o),
(370,184,o),
(252,185,cs),
(182,186,o),
(107,175,o),
(24,169,c),
(23,169,o),
(16,167,o),
(10,166,cs),
(12,166,o),
(15,166,o),
(17,167,c),
(59,189,o),
(105,215,o),
(160,241,cs),
(253,288,o),
(352,337,o),
(458,394,cs),
(505,419,o),
(555,450,o),
(605,491,cs),
(644,521,o),
(628,569,o),
(583,586,cs),
(563,594,o),
(546,597,o),
(523,600,cs),
(468,608,o),
(412,618,o),
(352,623,cs),
(308,626,o),
(260,627,o),
(207,627,cs),
(196,628,o),
(191,629,o),
(180,618,c),
(177,626,o),
(172,580,o),
(173,574,c),
(214,564,o),
(238,552,o),
(275,549,cs),
(300,548,o),
(332,559,o),
(369,559,cs),
(412,558,o),
(459,549,o),
(506,543,cs),
(528,541,o),
(581,542,o),
(579,536,cs),
(576,522,o),
(555,508,o),
(529,496,cs),
(391,432,o),
(258,349,o),
(114,272,cs),
(48,235,o),
(-25,199,o),
(-101,156,cs),
(-107,153,o),
(-117,140,o),
(-122,124,cs),
(-127,102,o),
(-104,96,o),
(-84,97,cs)
);
}
);
width = 607;
},
{
layerId = "2CBB5782-2C08-483D-96E9-15912637AE76";
shapes = (
{
closed = 1;
nodes = (
(111,222,o),
(135,238,o),
(154,249,cs),
(226,291,o),
(292,311,o),
(358,311,cs),
(383,311,o),
(400,311,o),
(418,311,cs),
(431,311,o),
(452,321,o),
(452,335,cs),
(452,348,o),
(439,354,o),
(428,358,c),
(366,371,o),
(293,378,o),
(227,354,cs),
(181,339,o),
(142,314,o),
(107,297,cs),
(84,288,o),
(138,274,o),
(128,289,cs),
(118,305,o),
(126,273,o),
(134,290,c),
(157,322,o),
(178,352,o),
(197,375,cs),
(245,440,o),
(290,499,o),
(332,560,cs),
(358,596,o),
(382,634,o),
(398,669,cs),
(425,722,o),
(401,743,o),
(362,752,cs),
(347,756,o),
(329,754,o),
(317,753,cs),
(286,749,o),
(255,747,o),
(222,740,cs),
(193,733,o),
(164,723,o),
(142,715,cs),
(129,711,o),
(113,704,o),
(112,693,c),
(106,679,o),
(106,667,o),
(111,651,cs),
(118,630,o),
(162,641,o),
(199,650,cs),
(227,657,o),
(234,672,o),
(252,678,cs),
(274,684,o),
(296,685,o),
(318,689,cs),
(330,691,o),
(330,691,o),
(330,700,cs),
(330,681,o),
(321,666,o),
(316,662,c),
(246,575,o),
(188,480,o),
(130,397,cs),
(95,347,o),
(62,303,o),
(32,260,cs),
(25,250,o),
(19,238,o),
(19,224,cs),
(19,194,o),
(75,201,o),
(82,208,c)
);
}
);
width = 607;
}
);
unicode = 90;
},
{
glyphname = a;
lastChange = "2023-03-09 22:23:33 +0000";
layers = (
{
layerId = m01;
shapes = (
{
closed = 1;
nodes = (
(350,18,o),
(366,21,o),
(366,30,cs),
(366,38,o),
(353,43,o),
(347,44,cs),
(299,52,o),
(274,85,o),
(254,125,cs),
(236,161,o),
(241,192,o),
(246,223,cs),
(255,275,o),
(224,292,o),
(174,275,cs),
(90,247,o),
(31,192,o),
(5,105,cs),
(-3,80,o),
(-3,60,o),
(17,40,cs),
(39,19,o),
(65,14,o),
(90,29,cs),
(119,46,o),
(148,67,o),
(170,91,c),
(197,120,o),
(202,130,o),
(231,87,c),
(257,47,o),
(292,18,o),
(342,18,cs)
);
},
{
closed = 1;
nodes = (
(73,60,o),
(53,61,o),
(45,69,cs),
(39,74,o),
(41,95,o),
(45,106,cs),
(64,159,o),
(97,200,o),
(148,224,cs),
(180,240,o),
(191,232,o),
(191,196,cs),
(191,158,o),
(124,71,o),
(85,63,cs)
);
}
);
width = 366;
},
{
layerId = "4FA42A6D-6079-488C-BBF5-0F13D00932C7";
shapes = (
{
closed = 1;
nodes = (
(410,-12,o),
(424,-12,o),
(424,0,cs),
(424,9,o),
(413,20,o),
(409,23,cs),
(378,46,o),
(362,83,o),
(349,124,cs),
(337,161,o),
(340,186,o),
(344,212,cs),
(350,258,o),
(327,287,o),
(290,289,cs),
(232,294,o),
(191,264,o),
(172,194,cs),
(167,175,o),
(167,155,o),
(181,129,cs),
(196,101,o),
(217,85,o),
(235,91,cs),
(256,96,o),
(276,105,o),
(291,119,cs),
(308,134,o),
(308,134,o),
(324,96,cs),
(341,51,o),
(365,11,o),
(401,-6,c)
);
},
{
closed = 1;
nodes = (
(225,134,o),
(213,141,o),
(208,149,cs),
(205,155,o),
(206,171,o),
(209,178,cs),
(221,217,o),
(241,240,o),
(274,243,cs),
(292,246,o),
(297,238,o),
(297,208,cs),
(297,177,o),
(255,127,o),
(232,133,cs)
);
}
);
width = 366;
},
{
layerId = "5563113E-3DD8-48BA-8230-66BC42B26329";
shapes = (
{
closed = 1;
nodes = (
(268,-19,o),
(284,6,o),
(278,11,c),
(276,21,o),
(276,24,o),
(269,23,cs),
(226,21,o),
(201,44,o),
(185,64,cs),
(162,92,o),
(163,105,o),
(163,127,cs),
(160,178,o),
(144,183,o),
(111,162,cs),
(60,134,o),
(24,80,o),
(18,5,cs),
(16,-17,o),
(21,-42,o),
(35,-51,cs),
(57,-65,o),
(60,-67,o),
(82,-47,cs),
(94,-35,o),
(110,-19,o),
(129,13,cs),
(141,34,o),
(147,51,o),
(181,17,cs),
(213,-13,o),
(234,-25,o),
(268,-19,c)
);
},
{
closed = 1;
nodes = (
(75,-7,o),
(49,-11,o),
(44,-7,cs),
(36,-2,o),
(35,-2,o),
(36,10,cs),
(41,48,o),
(51,72,o),
(94,103,c),
(115,121,o),
(134,113,o),
(138,97,cs),
(143,74,o),
(111,10,o),
(79,-5,cs)
);
}
);
width = 366;
},
{
layerId = "2CBB5782-2C08-483D-96E9-15912637AE76";
shapes = (
{
closed = 1;
nodes = (
(275,29,o),
(303,56,o),
(311,62,c),
(301,75,o),
(297,88,o),
(277,94,cs),
(252,101,o),
(237,133,o),
(224,185,cs),
(212,226,o),
(213,267,o),
(225,298,c),
(231,397,o),
(171,393,o),
(135,378,cs),
(52,340,o),
(1,273,o),
(-24,172,cs),
(-32,141,o),
(-37,117,o),
(-18,86,c),
(3,43,o),
(54,41,o),
(79,61,cs),
(108,86,o),
(114,102,o),
(138,122,cs),
(153,135,o),
(162,116,o),
(171,107,c),
(187,61,o),
(202,42,o),
(255,36,c)
);
},
{
closed = 1;
nodes = (
(53,129,o),
(53,129,o),
(52,129,c),
(51,132,o),
(53,153,o),
(56,164,cs),
(74,227,o),
(101,271,o),
(134,292,cs),
(160,308,o),
(137,439,o),
(129,270,cs),
(126,227,o),
(74,137,o),
(54,129,c)
);
}
);
width = 366;
}
);
unicode = 97;
},
{
glyphname = b;
lastChange = "2023-03-09 22:24:28 +0000";
layers = (
{
layerId = m01;
shapes = (
{
closed = 1;
nodes = (
(178,10,o),
(209,31,o),
(246,40,cs),
(265,44,o),
(284,50,o),
(301,57,cs),
(340,72,o),
(368,95,o),
(371,139,cs),
(374,190,o),
(367,241,o),
(322,273,cs),
(277,306,o),
(215,298,o),
(173,253,cs),
(154,233,o),
(138,210,o),
(120,189,cs),
(117,185,o),
(103,176,o),
(103,183,cs),
(103,188,o),
(100,197,o),
(102,199,cs),
(111,211,o),
(126,220,o),
(131,232,cs),
(134,240,o),
(115,253,o),
(115,264,cs),
(117,339,o),
(122,415,o),
(126,491,cs),
(128,526,o),
(135,560,o),
(140,593,cs),
(142,606,o),
(138,630,o),
(151,630,cs),
(164,630,o),
(164,608,o),
(173,597,cs),
(176,593,o),
(182,584,o),
(190,584,cs),
(197,584,o),
(197,600,o),
(196,605,cs),
(192,621,o),
(187,638,o),
(177,651,cs),
(168,664,o),
(155,681,o),
(138,681,cs),
(123,681,o),
(115,655,o),
(113,640,cs),
(100,524,o),
(90,408,o),
(80,291,cs),
(77,252,o),
(68,217,o),
(38,187,cs),
(8,157,o),
(3,122,o),
(19,84,cs),
(35,44,o),
(67,25,o),
(108,23,cs),
(116,23,o),
(125,22,o),
(133,22,cs),
(134,22,o),
(142,16,o),
(144,16,cs)
);
},
{
closed = 1;
nodes = (
(110,47,o),
(85,61,o),
(67,73,cs),
(42,90,o),
(30,131,o),
(47,148,cs),
(49,150,o),
(61,150,o),
(61,150,cs),
(90,150,o),
(87,129,o),
(103,139,cs),
(122,152,o),
(140,167,o),
(157,183,cs),
(179,202,o),
(198,228,o),
(222,244,cs),
(270,275,o),
(330,242,o),
(335,186,cs),
(341,129,o),
(332,106,o),
(277,85,cs),
(232,68,o),
(185,47,o),
(134,47,cs)
);
}
);
width = 392;
},
{
layerId = "4FA42A6D-6079-488C-BBF5-0F13D00932C7";
shapes = (
{
closed = 1;
nodes = (
(235,62,o),
(256,81,o),
(285,90,c),
(300,93,o),
(317,99,o),
(331,107,c),
(365,122,o),
(394,149,o),
(397,200,cs),
(399,248,o),
(394,304,o),
(351,339,cs),
(307,378,o),
(245,368,o),
(205,317,cs),
(190,298,o),
(178,278,o),
(165,259,cs),
(166,260,o),
(198,234,o),
(198,240,cs),
(198,247,o),
(170,219,o),
(194,239,c),
(200,253,o),
(211,258,o),
(218,276,cs),
(223,290,o),
(207,324,o),
(207,312,cs),
(209,377,o),
(212,445,o),
(215,512,cs),
(217,541,o),
(222,571,o),
(226,600,cs),
(228,616,o),
(199,611,o),
(209,611,cs),
(258,611,o),
(182,628,o),
(203,595,cs),
(210,582,o),
(222,570,o),
(238,570,cs),
(268,570,o),
(269,605,o),
(266,619,cs),
(264,633,o),
(260,652,o),
(249,668,cs),
(237,689,o),
(222,706,o),
(199,706,cs),
(169,706,o),
(158,671,o),
(156,647,cs),
(146,544,o),
(139,441,o),
(131,338,cs),
(129,304,o),
(124,281,o),
(106,260,cs),
(78,226,o),
(73,185,o),
(87,145,cs),
(103,99,o),
(136,75,o),
(177,74,cs),
(179,74,o),
(183,74,o),
(186,73,c),
(191,70,o),
(196,68,o),
(202,67,cs)
);
},
{
closed = 1;
nodes = (
(186,145,o),
(175,152,o),
(163,162,cs),
(148,174,o),
(146,192,o),
(153,195,c),
(163,208,o),
(132,186,o),
(142,186,cs),
(135,186,o),
(172,168,o),
(189,182,cs),
(203,194,o),
(219,208,o),
(231,223,c),
(250,242,o),
(263,264,o),
(277,274,cs),
(298,291,o),
(317,278,o),
(320,241,cs),
(325,195,o),
(323,190,o),
(292,176,cs),
(258,161,o),
(228,145,o),
(196,145,cs)
);
}
);
width = 392;
},
{
layerId = "5563113E-3DD8-48BA-8230-66BC42B26329";
shapes = (
{
closed = 1;
nodes = (
(244,-1,o),
(259,21,o),
(278,30,cs),
(288,34,o),
(300,40,o),
(309,48,cs),
(331,64,o),
(343,90,o),
(328,139,cs),
(312,190,o),
(289,246,o),
(244,280,cs),
(195,319,o),
(152,310,o),
(138,259,cs),
(132,239,o),
(130,215,o),
(125,194,cs),
(125,192,o),
(139,176,o),
(137,183,cs),
(135,189,o),
(132,201,o),
(131,194,c),
(132,204,o),
(140,214,o),
(138,229,cs),
(137,243,o),
(119,256,o),
(116,264,cs),
(91,339,o),
(68,415,o),
(44,491,cs),
(33,525,o),
(26,559,o),
(18,592,cs),
(14,606,o),
(12,619,o),
(5,619,cs),
(0,619,o),
(9,605,o),
(21,592,cs),
(26,586,o),
(36,573,o),
(47,573,cs),
(62,573,o),
(55,596,o),
(49,607,cs),
(41,623,o),
(31,642,o),
(19,656,cs),
(5,674,o),
(-13,692,o),
(-28,692,cs),
(-46,692,o),
(-42,663,o),
(-38,641,c),
(-5,525,o),
(29,409,o),
(64,292,cs),
(75,253,o),
(81,221,o),
(72,193,cs),
(62,161,o),
(72,121,o),
(98,81,cs),
(124,37,o),
(157,14,o),
(189,12,cs),
(193,12,o),
(198,11,o),
(203,11,c),
(207,8,o),
(211,6,o),
(215,5,cs)
);
},
{
closed = 1;
nodes = (
(178,58,o),
(161,69,o),
(146,81,cs),
(127,95,o),
(109,127,o),
(112,141,c),
(112,140,o),
(113,139,o),
(114,139,cs),
(125,139,o),
(139,114,o),
(152,131,cs),
(159,144,o),
(167,160,o),
(172,176,cs),
(181,196,o),
(183,221,o),
(193,236,cs),
(210,261,o),
(247,236,o),
(269,185,cs),
(291,130,o),
(293,113,o),
(267,95,cs),
(244,78,o),
(222,58,o),
(190,58,cs)
);
}
);
width = 392;
},
{
layerId = "2CBB5782-2C08-483D-96E9-15912637AE76";
shapes = (
{
closed = 1;
nodes = (
(257,8,o),
(281,32,o),
(298,40,cs),
(314,46,o),
(327,53,o),
(333,58,c),
(364,77,o),
(380,97,o),
(382,134,cs),
(384,179,o),
(382,220,o),
(348,251,cs),
(318,280,o),
(265,265,o),
(240,225,cs),
(225,202,o),
(215,181,o),
(206,165,cs),
(201,156,o),
(215,147,o),
(215,159,cs),
(215,162,o),
(212,172,o),
(213,173,c),
(221,188,o),
(230,197,o),
(232,204,cs),
(234,211,o),
(222,216,o),
(222,231,cs),
(223,298,o),
(226,366,o),
(229,434,cs),
(230,466,o),
(235,496,o),
(238,525,cs),
(238,527,o),
(238,529,o),
(238,532,cs),
(238,531,o),
(239,531,o),
(239,530,c),
(238,532,o),
(254,518,o),
(261,520,c),
(275,521,o),
(273,527,o),
(273,539,c),
(270,550,o),
(268,563,o),
(260,579,cs),
(252,592,o),
(243,605,o),
(225,603,cs),
(204,601,o),
(202,583,o),
(201,565,cs),
(193,461,o),
(186,357,o),
(180,254,cs),
(178,218,o),
(173,184,o),
(156,159,cs),
(134,127,o),
(132,101,o),
(142,66,cs),
(152,35,o),
(175,17,o),
(208,17,cs),
(215,17,o),
(223,17,o),
(230,17,c),
(231,18,o),
(230,14,o),
(228,13,c)
);
},
{
closed = 1;
nodes = (
(214,39,o),
(203,47,o),
(188,59,cs),
(176,70,o),
(168,111,o),
(179,125,cs),
(180,126,o),
(176,127,o),
(179,127,cs),
(186,128,o),
(202,110,o),
(212,120,cs),
(227,136,o),
(239,151,o),
(246,162,cs),
(263,184,o),
(275,208,o),
(286,220,cs),
(311,245,o),
(336,227,o),
(340,174,cs),
(343,123,o),
(337,100,o),
(308,81,cs),
(276,61,o),
(249,42,o),
(223,40,cs)
);
}
);
width = 392;
}
);
unicode = 98;
},
{
glyphname = c;
lastChange = "2023-03-13 00:26:26 +0000";
layers = (
{
layerId = m01;
shapes = (
{
closed = 1;
nodes = (
(345,21,o),
(436,78,o),
(533,121,cs),
(541,125,o),
(544,135,o),
(551,142,cs),
(558,149,o),
(532,146,o),
(525,143,cs),
(477,124,o),
(434,103,o),
(388,84,cs),
(327,60,o),
(266,39,o),
(200,39,cs),
(185,39,o),
(167,39,o),
(151,41,cs),
(102,47,o),
(46,107,o),
(54,148,cs),
(67,213,o),
(92,273,o),
(145,315,cs),
(161,327,o),
(176,344,o),
(200,329,cs),
(203,327,o),
(218,330,o),
(220,333,cs),
(223,340,o),
(225,351,o),
(222,357,cs),
(211,378,o),
(190,385,o),
(169,375,cs),
(149,366,o),
(127,357,o),
(115,340,cs),
(84,297,o),
(56,253,o),
(31,204,cs),
(1,144,o),
(31,58,o),
(92,25,cs),
(139,-1,o),
(186,1,o),
(235,7,cs)
);
}
);
width = 531;
},
{
layerId = "4FA42A6D-6079-488C-BBF5-0F13D00932C7";
shapes = (
{
closed = 1;
nodes = (
(408,60,o),
(480,94,o),
(548,113,cs),
(568,120,o),
(558,120,o),
(569,128,cs),
(577,134,o),
(544,140,o),
(540,139,cs),
(501,131,o),
(468,120,o),
(440,113,cs),
(391,104,o),
(352,98,o),
(318,110,cs),
(309,114,o),
(300,117,o),
(292,123,cs),
(271,136,o),
(260,203,o),
(279,242,cs),
(310,302,o),
(348,353,o),
(390,379,cs),
(410,390,o),
(407,397,o),
(413,383,c),
(421,380,o),
(440,377,o),
(441,378,c),
(447,387,o),
(450,392,o),
(450,401,cs),
(451,419,o),
(431,441,o),
(411,435,cs),
(392,429,o),
(375,426,o),
(364,415,cs),
(329,379,o),
(297,344,o),
(266,306,cs),
(232,261,o),
(211,181,o),
(243,124,cs),
(263,89,o),
(300,77,o),
(330,72,cs)
);
}
);
width = 531;
},
{
layerId = "5563113E-3DD8-48BA-8230-66BC42B26329";
shapes = (
{
closed = 1;
nodes = (
(439,-81,o),
(508,-25,o),
(578,16,cs),
(587,21,o),
(588,31,o),
(594,38,cs),
(608,56,o),
(578,59,o),
(565,52,cs),
(529,34,o),
(498,14,o),
(464,-5,cs),
(420,-28,o),
(377,-47,o),
(330,-47,cs),
(319,-47,o),
(307,-47,o),
(296,-45,cs),
(263,-40,o),
(226,12,o),
(231,48,cs),
(240,110,o),
(258,164,o),
(295,203,cs),
(308,215,o),
(314,225,o),
(325,217,cs),
(332,210,o),
(348,215,o),
(352,223,cs),
(355,231,o),
(356,246,o),
(354,253,cs),
(344,278,o),
(324,287,o),
(304,274,cs),
(289,267,o),
(271,256,o),
(261,237,cs),
(238,196,o),
(217,154,o),
(199,106,cs),
(175,45,o),
(199,-42,o),
(246,-76,cs),
(283,-102,o),
(321,-101,o),
(358,-95,cs)
);
}
);
width = 531;
},
{
layerId = "2CBB5782-2C08-483D-96E9-15912637AE76";
shapes = (
{
closed = 1;
nodes = (
(286,115,o),
(338,172,o),
(404,220,cs),
(411,226,o),
(408,260,o),
(414,253,c),
(422,273,o),
(410,287,o),
(393,274,c),
(371,261,o),
(345,240,o),
(309,216,cs),
(277,197,o),
(235,174,o),
(183,174,cs),
(172,174,o),
(157,174,o),
(148,176,cs),
(104,183,o),
(53,237,o),
(50,265,cs),
(44,323,o),
(39,367,o),
(74,418,cs),
(79,425,o),
(86,445,o),
(110,428,cs),
(124,418,o),
(118,425,o),
(122,439,c),
(126,444,o),
(120,482,o),
(115,489,cs),
(102,511,o),
(96,522,o),
(76,506,cs),
(63,496,o),
(53,491,o),
(46,460,cs),
(35,421,o),
(25,374,o),
(20,321,cs),
(12,252,o),
(62,152,o),
(109,123,cs),
(157,92,o),
(180,96,o),
(217,102,cs)
);
}
);
width = 531;
}
);
unicode = 99;
},
{
glyphname = d;
lastChange = "2023-03-13 00:25:30 +0000";
layers = (
{
layerId = m01;
shapes = (
{
closed = 1;
nodes = (
(130,-15,o),
(158,4,o),
(181,33,c),
(190,43,o),
(198,53,o),
(202,65,c),
(215,113,o),
(226,162,o),
(239,212,c),
(241,219,o),
(245,225,o),
(248,232,c),
(250,226,o),
(256,221,o),
(257,215,c),
(270,167,o),
(296,127,o),
(329,91,c),
(403,12,o),
(498,-4,o),
(590,50,c),
(605,59,o),
(616,75,o),
(628,87,c),
(612,83,o),
(596,81,o),
(580,73,c),
(520,42,o),
(460,37,o),
(402,79,c),
(353,112,o),
(318,155,o),
(297,208,c),
(266,287,o),
(265,369,o),
(265,453,c),
(261,511,o),
(259,569,o),
(255,626,c),
(253,666,o),
(244,705,o),
(237,744,c),
(233,768,o),
(227,793,o),
(221,816,c),
(217,824,o),
(208,833,o),
(204,833,c),
(197,830,o),
(187,822,o),
(186,815,c),
(181,793,o),
(177,770,o),
(176,745,c),
(169,650,o),
(186,556,o),
(204,464,c),
(217,399,o),
(235,334,o),
(217,267,c),
(215,260,o),
(222,244,o),
(201,251,c),
(79,282,o),
(21,189,o),
(20,92,c),
(20,45,o),
(42,13,o),
(88,-1,c)
);
},
{
closed = 1;
nodes = (
(83,32,o),
(49,72,o),
(51,107,c),
(54,182,o),
(112,230,o),
(185,218,c),
(205,215,o),
(212,204,o),
(207,187,c),
(194,148,o),
(184,107,o),
(166,71,c),
(158,53,o),
(134,41,o),
(127,33,c)
);
},
{
closed = 1;
nodes = (
(217,598,o),
(212,648,o),
(205,696,c),
(209,696,o),
(213,697,o),
(216,697,c),
(222,648,o),
(225,601,o),
(230,552,c),
(227,552,o),
(225,551,o),
(224,551,c)
);
}
);
width = 608;
},
{
layerId = "4FA42A6D-6079-488C-BBF5-0F13D00932C7";
shapes = (
{
closed = 1;
nodes = (
(241,66,o),
(283,80,o),
(309,96,cs),
(326,107,o),
(337,115,o),
(342,120,cs),
(343,121,o),
(350,142,o),
(370,175,c),
(372,182,o),
(367,182,o),
(371,192,c),
(338,305,o),
(405,160,o),
(389,206,c),
(399,163,o),
(399,150,o),
(431,117,cs),
(497,47,o),
(603,18,o),
(708,43,cs),
(748,52,o),
(908,93,o),
(858,92,cs),
(751,89,o),
(723,95,o),
(690,90,cs),
(631,78,o),
(585,82,o),
(534,119,cs),
(493,148,o),
(469,176,o),
(453,220,cs),
(433,275,o),
(442,331,o),
(451,389,c),
(453,430,o),
(458,470,o),
(460,511,cs),
(463,540,o),
(458,569,o),
(455,598,cs),
(454,615,o),
(451,634,o),
(448,652,c),
(441,664,o),
(427,680,o),
(406,679,cs),
(385,677,o),
(369,668,o),
(366,661,cs),
(355,642,o),
(350,628,o),
(346,611,cs),
(328,542,o),
(334,473,o),
(342,405,cs),
(347,356,o),
(358,310,o),
(335,271,c),
(338,270,o),
(348,273,o),
(348,274,c),
(212,320,o),
(133,251,o),
(119,178,cs),
(113,139,o),
(135,109,o),
(192,86,cs)
);
},
{
closed = 1;
nodes = (
(209,141,o),
(197,162,o),
(200,177,cs),
(211,227,o),
(250,242,o),
(314,224,cs),
(373,208,o),
(312,199,o),
(305,221,c),
(290,195,o),
(285,167,o),
(268,148,cs),
(258,138,o),
(251,139,o),
(240,134,c)
);
},
{
closed = 1;
nodes = (
(415,510,o),
(419,517,o),
(420,528,c),
(408,532,o),
(404,534,o),
(402,534,c),
(390,521,o),
(385,513,o),
(382,505,c),
(392,500,o),
(396,498,o),
(396,498,c)
);
}
);
width = 608;
},
{
layerId = "5563113E-3DD8-48BA-8230-66BC42B26329";
shapes = (
{
closed = 1;
nodes = (
(43,-27,o),
(68,-12,o),
(88,9,cs),
(95,16,o),
(102,23,o),
(108,33,cs),
(122,65,o),
(134,97,o),
(149,130,c),
(149,130,o),
(149,130,o),
(140,113,c),
(142,132,o),
(142,132,o),
(142,132,c),
(145,99,o),
(158,71,o),
(175,47,cs),
(218,-8,o),
(283,-20,o),
(354,18,cs),
(373,29,o),
(390,53,o),
(415,73,c),
(381,59,o),
(366,63,o),
(343,52,cs),
(303,33,o),
(269,30,o),
(238,55,cs),
(211,77,o),
(194,102,o),
(187,134,cs),
(176,184,o),
(185,235,o),
(195,290,c),
(198,329,o),
(204,367,o),
(207,404,cs),
(211,431,o),
(209,457,o),
(209,482,cs),
(210,499,o),
(208,516,o),
(207,532,c),
(203,541,o),
(196,551,o),
(187,549,cs),
(177,546,o),
(167,537,o),
(164,528,cs),
(159,514,o),
(153,498,o),
(150,481,c),
(134,418,o),
(134,355,o),
(135,295,cs),
(136,252,o),
(141,213,o),
(122,172,c),
(121,169,o),
(121,169,o),
(124,169,c),
(39,192,o),
(-14,123,o),
(-27,55,cs),
(-33,19,o),
(-20,-6,o),
(12,-17,cs)
);
},
{
closed = 1;
nodes = (
(23,29,o),
(11,47,o),
(15,65,cs),
(24,107,o),
(60,133,o),
(102,126,cs),
(109,125,o),
(109,125,o),
(107,120,cs),
(94,94,o),
(83,69,o),
(68,46,cs),
(64,40,o),
(53,33,o),
(45,27,c)
);
},
{
closed = 1;
nodes = (
(180,389,o),
(181,413,o),
(183,438,c),
(178,438,o),
(178,438,o),
(178,438,c),
(169,413,o),
(166,390,o),
(164,366,c),
(168,366,o),
(175,365,o),
(179,365,c)
);
}
);
width = 608;
},
{
layerId = "2CBB5782-2C08-483D-96E9-15912637AE76";
shapes = (
{
closed = 1;
nodes = (
(74,8,o),
(90,13,o),
(126,34,c),
(135,38,o),
(136,39,o),
(145,50,cs),
(161,73,o),
(179,106,o),
(204,148,c),
(210,154,o),
(221,165,o),
(223,167,c),
(225,167,o),
(226,167,o),
(226,167,c),
(234,115,o),
(255,78,o),
(279,49,cs),
(350,-33,o),
(431,-59,o),
(528,-41,cs),
(543,-38,o),
(580,-13,o),
(644,12,c),
(573,16,o),
(550,20,o),
(522,17,cs),
(459,8,o),
(393,18,o),
(349,54,cs),
(299,93,o),
(275,126,o),
(266,158,cs),
(247,219,o),
(259,269,o),
(271,326,c),
(275,366,o),
(282,409,o),
(288,454,cs),
(292,485,o),
(289,519,o),
(288,546,cs),
(287,568,o),
(284,590,o),
(283,605,c),
(289,601,o),
(265,635,o),
(269,635,c),
(260,633,o),
(258,632,o),
(252,621,cs),
(244,609,o),
(235,589,o),
(228,564,cs),
(207,498,o),
(209,420,o),
(213,352,cs),
(216,302,o),
(224,271,o),
(201,228,c),
(186,208,o),
(189,215,o),
(178,220,cs),
(51,274,o),
(-5,209,o),
(-23,131,cs),
(-32,87,o),
(-9,46,o),
(30,29,cs)
);
},
{
closed = 1;
nodes = (
(30,90,o),
(11,108,o),
(8,120,c),
(13,161,o),
(85,188,o),
(157,163,cs),
(191,153,o),
(175,169,o),
(174,168,cs),
(159,148,o),
(150,128,o),
(117,96,cs),
(113,92,o),
(87,86,o),
(76,82,c)
);
},
{
closed = 1;
nodes = (
(247,452,o),
(248,475,o),
(249,498,c),
(255,496,o),
(255,496,o),
(259,496,c),
(258,475,o),
(255,453,o),
(253,430,c),
(250,430,o),
(248,430,o),
(246,430,c)
);
}
);
width = 608;
}
);
unicode = 100;
},
{
glyphname = e;
lastChange = "2023-03-10 03:25:24 +0000";
layers = (
{
layerId = m01;
shapes = (
{
closed = 1;
nodes = (
(353,-1,o),
(441,26,o),
(525,58,cs),
(538,63,o),
(579,85,o),
(563,85,cs),
(548,85,o),
(532,87,o),
(517,82,cs),
(433,52,o),
(346,28,o),
(257,28,cs),
(208,28,o),
(163,41,o),
(119,53,cs),
(69,67,o),
(45,103,o),
(56,152,cs),
(76,238,o),
(119,308,o),
(207,340,cs),
(238,352,o),
(273,347,o),
(280,326,cs),
(292,293,o),
(261,283,o),
(241,270,cs),
(207,248,o),
(168,238,o),
(127,242,cs),
(117,243,o),
(98,233,o),
(98,221,cs),
(98,209,o),
(115,198,o),
(125,198,cs),
(192,198,o),
(251,219,o),
(299,266,cs),
(332,297,o),
(327,352,o),
(293,365,cs),
(271,373,o),
(247,375,o),
(224,372,cs),
(112,355,o),
(34,247,o),
(21,143,cs),
(15,91,o),
(39,39,o),
(87,26,cs),
(144,10,o),
(204,-1,o),
(262,-1,cs)
);
}
);
width = 507;
},
{
layerId = "4FA42A6D-6079-488C-BBF5-0F13D00932C7";
shapes = (
{
closed = 1;
nodes = (
(421,57,o),
(478,87,o),
(528,120,cs),
(558,139,o),
(584,193,o),
(534,193,cs),
(521,193,o),
(508,195,o),
(492,187,c),
(444,157,o),
(399,136,o),
(347,136,cs),
(321,136,o),
(294,147,o),
(263,159,cs),
(236,170,o),
(223,193,o),
(222,236,cs),
(220,319,o),
(231,375,o),
(274,402,cs),
(283,408,o),
(283,408,o),
(287,399,cs),
(293,385,o),
(291,387,o),
(276,369,cs),
(261,352,o),
(251,347,o),
(231,350,cs),
(206,353,o),
(181,328,o),
(188,299,cs),
(192,275,o),
(215,256,o),
(233,256,cs),
(285,256,o),
(328,283,o),
(355,338,cs),
(376,381,o),
(360,451,o),
(323,470,cs),
(303,481,o),
(281,484,o),
(261,479,cs),
(174,459,o),
(140,336,o),
(151,224,cs),
(157,165,o),
(185,103,o),
(230,86,cs),
(270,69,o),
(315,57,o),
(355,57,cs)
);
}
);
width = 507;
},
{
layerId = "5563113E-3DD8-48BA-8230-66BC42B26329";
shapes = (
{
closed = 1;
nodes = (
(160,86,o),
(208,89,o),
(253,96,cs),
(267,97,o),
(287,116,o),
(303,117,c),
(281,121,o),
(279,140,o),
(259,137,cs),
(218,132,o),
(181,137,o),
(147,150,c),
(133,166,o),
(119,179,o),
(110,194,cs),
(99,213,o),
(105,239,o),
(129,271,cs),
(173,331,o),
(217,372,o),
(260,378,cs),
(271,379,o),
(274,376,o),
(270,366,cs),
(262,344,o),
(252,343,o),
(238,338,cs),
(218,328,o),
(206,330,o),
(194,339,c),
(185,351,o),
(175,334,o),
(158,329,c),
(156,314,o),
(150,294,o),
(161,288,cs),
(190,273,o),
(225,276,o),
(266,304,cs),
(294,322,o),
(321,371,o),
(312,393,cs),
(306,409,o),
(295,417,o),
(282,420,cs),
(229,432,o),
(147,362,o),
(96,284,cs),
(69,244,o),
(54,193,o),
(68,170,cs),
(83,145,o),
(102,121,o),
(125,108,cs)
);
}
);
width = 507;
},
{
layerId = "2CBB5782-2C08-483D-96E9-15912637AE76";
shapes = (
{
closed = 1;
nodes = (
(460,-91,o),
(536,-72,o),
(616,-48,cs),
(624,-45,o),
(624,-33,o),
(707,10,c),
(635,4,o),
(629,16,o),
(600,7,cs),
(530,-13,o),
(446,-26,o),
(357,-30,c),
(304,-24,o),
(257,-21,o),
(211,-12,cs),
(151,-2,o),
(120,20,o),
(118,39,cs),
(113,91,o),
(127,125,o),
(211,150,cs),
(237,157,o),
(280,154,o),
(289,145,c),
(287,148,o),
(287,148,o),
(267,138,cs),
(246,125,o),
(204,118,o),
(161,120,cs),
(153,121,o),
(139,92,o),
(110,84,c),
(131,76,o),
(165,49,o),
(173,49,cs),
(236,50,o),
(282,60,o),
(326,103,cs),
(358,133,o),
(321,199,o),
(290,205,cs),
(261,213,o),
(242,214,o),
(219,211,cs),
(115,200,o),
(62,113,o),
(86,26,cs),
(100,-33,o),
(145,-63,o),
(187,-71,cs),
(253,-83,o),
(314,-90,o),
(371,-90,cs)
);
}
);
width = 507;
}
);
unicode = 101;
},
{
glyphname = f;
lastChange = "2023-03-13 00:26:48 +0000";
layers = (
{
layerId = m01;
shapes = (
{
closed = 1;
nodes = (
(341,-165,o),
(347,-142,o),
(346,-129,cs),
(335,-26,o),
(325,78,o),
(282,173,cs),
(271,196,o),
(277,203,o),
(299,204,cs),
(353,208,o),
(405,214,o),
(459,219,cs),
(466,220,o),
(477,224,o),
(477,233,cs),
(477,239,o),
(466,240,o),
(459,240,cs),
(426,240,o),
(393,240,o),
(360,240,cs),
(360,240,o),
(360,240,o),
(360,239,cs),
(360,210,o),
(303,240,o),
(274,239,cs),
(253,238,o),
(240,246,o),
(231,263,cs),
(189,344,o),
(145,421,o),
(105,503,cs),
(73,570,o),
(49,639,o),
(49,717,cs),
(49,784,o),
(106,860,o),
(193,859,cs),
(320,858,o),
(422,804,o),
(502,709,cs),
(538,665,o),
(562,615,o),
(545,556,cs),
(543,550,o),
(541,537,o),
(548,537,cs),
(555,537,o),
(563,542,o),
(566,548,cs),
(572,560,o),
(581,572,o),
(579,582,cs),
(572,622,o),
(569,665,o),
(549,697,cs),
(465,833,o),
(340,902,o),
(179,897,cs),
(84,894,o),
(23,821,o),
(19,729,cs),
(15,648,o),
(39,577,o),
(73,506,cs),
(112,424,o),
(157,345,o),
(199,263,cs),
(202,257,o),
(207,247,o),
(207,238,cs),
(207,230,o),
(191,236,o),
(183,236,cs),
(129,236,o),
(76,243,o),
(23,248,cs),
(4,250,o),
(-17,243,o),
(-20,225,cs),
(-25,199,o),
(-1,196,o),
(17,195,cs),
(26,194,o),
(33,196,o),
(42,196,cs),
(95,196,o),
(149,200,o),
(203,203,cs),
(220,204,o),
(233,200,o),
(243,182,cs),
(286,100,o),
(309,12,o),
(309,-78,cs),
(309,-82,o),
(310,-92,o),
(305,-92,cs),
(299,-92,o),
(295,-86,o),
(293,-81,cs),
(287,-68,o),
(285,-52,o),
(278,-38,cs),
(275,-31,o),
(268,-21,o),
(260,-21,cs),
(250,-21,o),
(245,-37,o),
(245,-46,cs),
(245,-56,o),
(250,-68,o),
(254,-78,cs),
(265,-101,o),
(277,-124,o),
(289,-147,cs),
(298,-165,o),
(311,-181,o),
(331,-170,cs)
);
}
);
width = 539;
},
{
layerId = "4FA42A6D-6079-488C-BBF5-0F13D00932C7";
shapes = (
{
closed = 1;
nodes = (
(220,2,o),
(235,21,o),
(240,39,cs),
(270,125,o),
(300,214,o),
(298,295,c),
(300,278,o),
(352,309,o),
(309,307,c),
(357,310,o),
(403,315,o),
(450,319,c),
(465,322,o),
(477,327,o),
(482,340,cs),
(489,358,o),
(471,365,o),
(455,365,cs),
(426,365,o),
(397,365,o),
(367,365,c),
(356,354,o),
(370,370,o),
(344,339,c),
(338,362,o),
(355,366,o),
(300,364,cs),
(292,364,o),
(289,368,o),
(289,372,cs),
(283,439,o),
(275,502,o),
(271,570,cs),
(269,624,o),
(274,680,o),
(301,742,cs),
(324,797,o),
(392,853,o),
(459,852,cs),
(561,851,o),
(618,812,o),
(648,736,cs),
(661,702,o),
(664,668,o),
(630,622,cs),
(617,606,o),
(615,584,o),
(638,584,cs),
(649,584,o),
(661,589,o),
(667,598,c),
(679,610,o),
(691,620,o),
(694,632,cs),
(704,666,o),
(718,704,o),
(712,734,cs),
(689,855,o),
(605,916,o),
(460,912,cs),
(373,909,o),
(293,846,o),
(253,764,cs),
(219,694,o),
(213,632,o),
(216,571,cs),
(218,503,o),
(227,437,o),
(232,369,cs),
(232,365,o),
(232,363,o),
(232,361,c),
(231,361,o),
(228,361,o),
(224,361,cs),
(180,361,o),
(139,367,o),
(97,371,cs),
(73,374,o),
(50,364,o),
(38,345,cs),
(19,316,o),
(37,302,o),
(70,299,cs),
(77,298,o),
(84,300,o),
(92,300,cs),
(137,300,o),
(183,303,o),
(230,306,cs),
(231,306,o),
(214,278,o),
(240,292,c),
(244,229,o),
(231,162,o),
(201,92,cs),
(207,105,o),
(132,88,o),
(206,88,cs),
(203,88,o),
(215,79,o),
(215,83,cs),
(215,92,o),
(219,105,o),
(218,120,cs),
(218,133,o),
(212,147,o),
(195,147,cs),
(179,147,o),
(165,133,o),
(159,117,cs),
(154,107,o),
(154,96,o),
(154,85,cs),
(155,67,o),
(156,46,o),
(157,27,cs),
(162,-10,o),
(182,-14,o),
(205,-4,cs)
);
}
);
width = 539;
},
{
layerId = "5563113E-3DD8-48BA-8230-66BC42B26329";
shapes = (
{
closed = 1;
nodes = (
(403,-213,o),
(412,-186,o),
(412,-173,cs),
(408,-90,o),
(406,-1,o),
(371,63,c),
(366,70,o),
(367,72,o),
(385,83,cs),
(436,113,o),
(485,143,o),
(536,176,cs),
(548,185,o),
(556,203,o),
(566,213,c),
(553,215,o),
(543,222,o),
(527,214,cs),
(495,196,o),
(463,179,o),
(430,161,c),
(430,161,o),
(430,160,o),
(430,160,c),
(405,147,o),
(381,135,o),
(355,120,cs),
(338,110,o),
(334,110,o),
(329,116,c),
(296,165,o),
(260,210,o),
(229,260,cs),
(204,301,o),
(186,346,o),
(192,410,cs),
(197,465,o),
(252,555,o),
(331,597,cs),
(448,659,o),
(535,665,o),
(599,623,c),
(629,606,o),
(643,579,o),
(625,525,cs),
(622,518,o),
(626,504,o),
(630,485,c),
(638,496,o),
(658,509,o),
(662,519,cs),
(669,533,o),
(679,550,o),
(678,562,cs),
(673,592,o),
(674,633,o),
(654,653,cs),
(581,733,o),
(466,731,o),
(311,643,cs),
(220,589,o),
(156,494,o),
(145,408,cs),
(136,334,o),
(155,281,o),
(181,235,cs),
(215,181,o),
(252,134,o),
(285,82,c),
(285,82,o),
(285,81,o),
(285,80,c),
(280,77,o),
(275,75,o),
(270,72,cs),
(220,47,o),
(171,23,o),
(122,2,cs),
(102,-8,o),
(81,-25,o),
(74,-47,c),
(68,-82,o),
(94,-81,o),
(121,-67,c),
(130,-64,o),
(137,-59,o),
(145,-55,cs),
(195,-25,o),
(245,4,o),
(296,34,cs),
(311,43,o),
(315,44,o),
(319,39,cs),
(351,-9,o),
(353,-78,o),
(360,-148,c),
(360,-148,o),
(360,-149,o),
(358,-149,c),
(363,-151,o),
(363,-152,o),
(364,-153,c),
(360,-145,o),
(360,-133,o),
(353,-123,cs),
(348,-117,o),
(333,-113,o),
(326,-109,c),
(321,-118,o),
(305,-136,o),
(303,-151,cs),
(302,-163,o),
(307,-172,o),
(310,-180,c),
(320,-196,o),
(330,-210,o),
(339,-223,cs),
(349,-237,o),
(365,-249,o),
(392,-224,cs)
);
}
);
width = 539;
},
{
layerId = "2CBB5782-2C08-483D-96E9-15912637AE76";
shapes = (
{
closed = 1;
nodes = (
(280,50,o),
(277,104,o),
(272,109,c),
(244,194,o),
(217,276,o),
(178,345,cs),
(164,368,o),
(167,338,o),
(180,339,cs),
(205,342,o),
(232,347,o),
(262,351,c),
(267,353,o),
(266,375,o),
(283,389,c),
(271,398,o),
(254,407,o),
(258,407,cs),
(230,409,o),
(206,405,o),
(171,407,c),
(171,407,o),
(171,407,o),
(171,406,c),
(168,406,o),
(164,406,o),
(160,406,cs),
(138,406,o),
(134,411,o),
(127,424,cs),
(86,491,o),
(48,548,o),
(16,602,cs),
(-18,661,o),
(-44,710,o),
(-57,763,cs),
(-70,811,o),
(-60,849,o),
(-10,849,cs),
(63,848,o),
(130,806,o),
(185,739,cs),
(220,697,o),
(237,670,o),
(239,631,cs),
(240,618,o),
(245,606,o),
(247,606,c),
(253,613,o),
(252,615,o),
(252,625,cs),
(253,633,o),
(255,658,o),
(250,665,c),
(236,699,o),
(227,734,o),
(212,754,cs),
(133,870,o),
(56,922,o),
(-25,918,cs),
(-70,914,o),
(-93,841,o),
(-76,763,cs),
(-58,688,o),
(-30,634,o),
(-1,584,cs),
(42,512,o),
(81,451,o),
(115,395,c),
(115,395,o),
(115,395,o),
(113,403,cs),
(113,404,o),
(112,404,o),
(112,404,c),
(81,406,o),
(52,409,o),
(25,413,cs),
(9,414,o),
(5,391,o),
(7,370,cs),
(12,343,o),
(17,334,o),
(32,332,cs),
(41,331,o),
(35,333,o),
(45,333,cs),
(72,335,o),
(100,336,o),
(129,338,cs),
(141,339,o),
(151,338,o),
(155,331,cs),
(200,259,o),
(219,198,o),
(243,133,c),
(243,135,o),
(242,135,o),
(238,150,c),
(237,148,o),
(237,145,o),
(237,143,c),
(225,164,o),
(227,168,o),
(219,181,cs),
(211,195,o),
(196,210,o),
(207,193,c),
(206,191,o),
(201,167,o),
(203,160,cs),
(205,152,o),
(214,130,o),
(214,130,c),
(233,96,o),
(232,102,o),
(247,76,cs),
(254,64,o),
(258,47,o),
(267,47,c)
);
}
);
width = 539;
}
);
unicode = 102;
},
{
glyphname = g;
lastChange = "2023-03-13 00:25:59 +0000";
layers = (
{
layerId = m01;
shapes = (
{
closed = 1;
nodes = (
(-79,-706,o),
(-17,-694,o),
(31,-648,cs),
(166,-517,o),
(238,-351,o),
(288,-173,cs),
(297,-142,o),
(311,-122,o),
(338,-109,cs),
(409,-77,o),
(481,-44,o),
(550,-10,cs),
(604,16,o),
(657,41,o),
(711,70,cs),
(718,74,o),
(733,82,o),
(728,90,cs),
(723,98,o),
(710,89,o),
(702,86,cs),
(652,65,o),
(601,45,o),
(553,23,cs),
(481,-10,o),
(409,-42,o),
(338,-73,cs),
(323,-80,o),
(312,-80,o),
(316,-56,cs),
(322,-23,o),
(325,10,o),
(325,47,cs),
(325,104,o),
(318,163,o),
(312,222,cs),
(311,232,o),
(302,252,o),
(289,252,cs),
(277,252,o),
(272,233,o),
(270,223,cs),
(259,160,o),
(219,116,o),
(176,74,cs),
(165,64,o),
(151,57,o),
(135,53,cs),
(104,44,o),
(90,58,o),
(93,91,cs),
(98,157,o),
(140,203,o),
(185,248,cs),
(197,260,o),
(219,280,o),
(235,271,cs),
(248,263,o),
(229,242,o),
(227,228,cs),
(226,221,o),
(227,212,o),
(232,209,cs),
(236,207,o),
(248,208,o),
(249,210,cs),
(258,239,o),
(269,267,o),
(272,297,cs),
(274,316,o),
(255,320,o),
(235,317,cs),
(197,310,o),
(170,287,o),
(145,260,cs),
(98,210,o),
(58,155,o),
(58,81,cs),
(58,33,o),
(90,5,o),
(139,19,cs),
(155,24,o),
(175,33,o),
(188,47,cs),
(212,72,o),
(236,96,o),
(259,122,cs),
(262,126,o),
(265,133,o),
(270,133,cs),
(276,133,o),
(280,122,o),
(280,117,cs),
(281,70,o),
(282,22,o),
(284,-24,cs),
(287,-77,o),
(270,-117,o),
(215,-133,cs),
(202,-137,o),
(188,-147,o),
(175,-154,cs),
(54,-222,o),
(-66,-284,o),
(-146,-406,cs),
(-198,-486,o),
(-211,-569,o),
(-191,-660,cs),
(-186,-685,o),
(-169,-703,o),
(-143,-704,cs)
);
},
{
closed = 1;
nodes = (
(-144,-685,o),
(-162,-674,o),
(-164,-603,cs),
(-164,-599,o),
(-164,-592,o),
(-164,-590,cs),
(-164,-490,o),
(-119,-419,o),
(-59,-355,cs),
(-21,-315,o),
(26,-284,o),
(72,-255,cs),
(123,-222,o),
(178,-193,o),
(231,-164,cs),
(238,-160,o),
(255,-151,o),
(255,-159,cs),
(255,-167,o),
(254,-175,o),
(252,-182,cs),
(216,-319,o),
(151,-441,o),
(70,-555,cs),
(33,-606,o),
(-10,-650,o),
(-75,-667,cs)
);
}
);
width = 688;
},
{
layerId = "4FA42A6D-6079-488C-BBF5-0F13D00932C7";
shapes = (
{
closed = 1;
nodes = (
(322,-555,o),
(367,-523,o),
(402,-464,cs),
(502,-296,o),
(559,-115,o),
(599,69,cs),
(607,102,o),
(617,125,o),
(636,146,cs),
(689,200,o),
(741,255,o),
(791,310,cs),
(831,353,o),
(869,394,o),
(908,439,cs),
(914,445,o),
(925,458,o),
(921,464,cs),
(918,469,o),
(909,457,o),
(902,451,cs),
(866,415,o),
(830,379,o),
(794,342,cs),
(741,287,o),
(689,233,o),
(637,180,cs),
(626,169,o),
(619,165,o),
(622,189,cs),
(627,222,o),
(630,254,o),
(631,289,cs),
(633,343,o),
(629,396,o),
(626,450,cs),
(625,459,o),
(620,475,o),
(610,470,cs),
(601,466,o),
(598,447,o),
(596,437,cs),
(587,374,o),
(557,319,o),
(525,265,cs),
(517,252,o),
(506,241,o),
(495,232,cs),
(473,213,o),
(463,221,o),
(465,253,cs),
(471,317,o),
(502,375,o),
(536,432,cs),
(544,447,o),
(561,474,o),
(572,470,cs),
(582,467,o),
(567,441,o),
(565,427,cs),
(564,420,o),
(565,412,o),
(569,411,cs),
(572,410,o),
(580,415,o),
(581,418,cs),
(589,448,o),
(596,478,o),
(600,507,cs),
(601,526,o),
(588,523,o),
(574,514,cs),
(547,495,o),
(527,464,o),
(508,430,cs),
(472,367,o),
(442,302,o),
(441,232,cs),
(440,187,o),
(462,171,o),
(498,201,cs),
(508,211,o),
(523,226,o),
(533,244,cs),
(551,275,o),
(568,306,o),
(586,338,cs),
(588,343,o),
(591,350,o),
(593,352,cs),
(598,354,o),
(601,345,o),
(600,340,cs),
(601,296,o),
(599,251,o),
(600,208,cs),
(601,160,o),
(587,116,o),
(548,83,cs),
(539,75,o),
(528,61,o),
(518,50,cs),
(431,-55,o),
(343,-153,o),
(282,-295,cs),
(242,-387,o),
(231,-470,o),
(243,-549,cs),
(246,-571,o),
(258,-582,o),
(276,-575,cs)
);
},
{
closed = 1;
nodes = (
(277,-557,o),
(264,-553,o),
(264,-486,cs),
(264,-483,o),
(264,-476,o),
(265,-474,cs),
(266,-380,o),
(301,-298,o),
(346,-218,cs),
(374,-167,o),
(409,-122,o),
(442,-80,cs),
(480,-32,o),
(520,14,o),
(559,59,cs),
(563,65,o),
(576,79,o),
(576,72,cs),
(576,64,o),
(575,56,o),
(573,49,cs),
(544,-92,o),
(494,-229,o),
(433,-363,cs),
(405,-424,o),
(373,-480,o),
(326,-517,cs)
);
}
);
width = 688;
},
{
layerId = "5563113E-3DD8-48BA-8230-66BC42B26329";
shapes = (
{
closed = 1;
nodes = (
(82,-463,o),
(132,-465,o),
(179,-434,cs),
(307,-351,o),
(398,-229,o),
(477,-95,c),
(488,-73,o),
(500,-63,o),
(520,-58,cs),
(577,-45,o),
(636,-31,o),
(694,-15,cs),
(737,-4,o),
(780,7,o),
(825,21,cs),
(833,23,o),
(850,41,o),
(865,56,c),
(835,49,o),
(834,61,o),
(818,57,cs),
(778,49,o),
(738,43,o),
(698,33,cs),
(640,19,o),
(582,6,o),
(524,-8,cs),
(523,-8,o),
(523,-8,o),
(524,-6,cs),
(537,20,o),
(545,47,o),
(556,77,c),
(566,123,o),
(578,171,o),
(588,220,cs),
(592,237,o),
(572,257,o),
(572,269,c),
(565,252,o),
(546,250,o),
(540,235,cs),
(518,189,o),
(482,162,o),
(441,136,cs),
(433,131,o),
(424,129,o),
(413,128,cs),
(395,128,o),
(394,129,o),
(402,150,cs),
(420,199,o),
(457,229,o),
(500,255,c),
(505,257,o),
(511,259,o),
(517,260,c),
(515,255,o),
(513,250,o),
(511,245,cs),
(505,234,o),
(505,220,o),
(514,214,cs),
(522,209,o),
(534,209,o),
(539,215,c),
(551,237,o),
(567,258,o),
(577,283,cs),
(585,304,o),
(571,319,o),
(547,321,cs),
(516,322,o),
(488,307,o),
(463,289,cs),
(419,255,o),
(374,218,o),
(356,155,cs),
(344,111,o),
(364,76,o),
(409,78,cs),
(422,79,o),
(440,84,o),
(454,94,cs),
(478,108,o),
(501,125,o),
(524,142,c),
(524,142,o),
(524,142,o),
(521,140,c),
(521,143,o),
(521,143,o),
(521,143,c),
(510,106,o),
(499,69,o),
(490,33,cs),
(481,-9,o),
(463,-32,o),
(425,-34,c),
(413,-36,o),
(400,-41,o),
(390,-45,cs),
(288,-78,o),
(186,-108,o),
(100,-194,cs),
(43,-250,o),
(12,-318,o),
(5,-396,c),
(1,-421,o),
(13,-444,o),
(36,-451,cs)
);
},
{
closed = 1;
nodes = (
(46,-414,o),
(43,-410,o),
(58,-357,c),
(57,-355,o),
(59,-351,o),
(60,-349,c),
(76,-271,o),
(128,-227,o),
(186,-185,cs),
(220,-161,o),
(260,-144,o),
(300,-128,cs),
(343,-111,o),
(388,-98,o),
(433,-83,c),
(434,-83,o),
(434,-83,o),
(434,-82,c),
(433,-83,o),
(433,-84,o),
(432,-84,c),
(375,-187,o),
(301,-272,o),
(217,-350,cs),
(180,-383,o),
(142,-408,o),
(94,-411,cs)
);
}
);
width = 688;
},
{
layerId = "2CBB5782-2C08-483D-96E9-15912637AE76";
shapes = (
{
closed = 1;
nodes = (
(13,-233,o),
(69,-241,o),
(98,-222,cs),
(185,-164,o),
(215,-73,o),
(226,31,c),
(230,51,o),
(235,58,o),
(245,60,cs),
(294,65,o),
(343,69,o),
(387,74,cs),
(422,78,o),
(460,83,o),
(493,89,cs),
(502,90,o),
(519,90,o),
(512,101,cs),
(505,110,o),
(480,110,o),
(473,110,cs),
(438,108,o),
(403,108,o),
(373,104,cs),
(323,99,o),
(277,96,o),
(230,92,cs),
(221,91,o),
(232,83,o),
(233,100,cs),
(231,126,o),
(229,146,o),
(225,167,cs),
(218,207,o),
(205,247,o),
(194,285,cs),
(189,299,o),
(185,309,o),
(159,317,cs),
(141,323,o),
(132,315,o),
(131,303,cs),
(131,259,o),
(111,245,o),
(88,228,cs),
(78,223,o),
(78,223,o),
(67,224,cs),
(60,224,o),
(53,230,o),
(51,252,cs),
(46,297,o),
(66,316,o),
(92,332,cs),
(99,337,o),
(102,339,o),
(103,337,c),
(110,332,o),
(99,322,o),
(98,316,cs),
(99,309,o),
(98,308,o),
(104,303,cs),
(111,295,o),
(147,287,o),
(149,294,c),
(151,314,o),
(156,329,o),
(153,345,c),
(152,363,o),
(126,370,o),
(108,373,cs),
(73,380,o),
(51,368,o),
(40,357,cs),
(9,333,o),
(-13,306,o),
(-4,260,cs),
(3,222,o),
(33,194,o),
(82,191,cs),
(95,191,o),
(115,193,o),
(121,199,cs),
(138,213,o),
(156,223,o),
(166,234,c),
(165,241,o),
(136,244,o),
(155,237,c),
(162,236,o),
(151,232,o),
(151,230,c),
(159,196,o),
(165,165,o),
(174,135,cs),
(183,97,o),
(177,80,o),
(149,82,cs),
(133,82,o),
(131,79,o),
(119,78,cs),
(37,62,o),
(-44,48,o),
(-86,-11,cs),
(-115,-56,o),
(-114,-107,o),
(-87,-170,cs),
(-79,-194,o),
(-60,-207,o),
(-34,-217,cs)
);
},
{
closed = 1;
nodes = (
(-26,-197,o),
(-33,-191,o),
(-43,-143,c),
(-45,-138,o),
(-45,-132,o),
(-45,-137,c),
(-58,-67,o),
(-36,-33,o),
(-5,-8,cs),
(20,12,o),
(45,19,o),
(74,27,cs),
(109,37,o),
(145,43,o),
(176,50,c),
(203,53,o),
(159,92,o),
(170,55,c),
(170,51,o),
(171,46,o),
(172,43,c),
(164,-44,o),
(133,-108,o),
(92,-162,cs),
(70,-188,o),
(48,-203,o),
(11,-201,cs)
);
}
);
width = 688;
}
);
unicode = 103;
},
{
glyphname = h;
lastChange = "2023-03-09 23:00:24 +0000";
layers = (
{
layerId = m01;
shapes = (
{
closed = 1;
nodes = (
(277,-80,o),
(281,-65,o),
(281,-57,cs),
(281,-16,o),
(274,25,o),
(272,65,cs),
(269,116,o),
(251,133,o),
(201,128,cs),
(187,127,o),
(172,123,o),
(158,116,cs),
(133,103,o),
(109,88,o),
(83,74,cs),
(76,71,o),
(68,69,o),
(61,69,cs),
(54,69,o),
(55,83,o),
(56,91,cs),
(60,116,o),
(65,142,o),
(72,167,cs),
(104,281,o),
(141,394,o),
(172,508,cs),
(203,624,o),
(228,742,o),
(257,858,cs),
(258,862,o),
(249,858,o),
(249,860,cs),
(249,870,o),
(252,880,o),
(252,888,cs),
(252,895,o),
(249,909,o),
(247,909,cs),
(238,909,o),
(225,908,o),
(221,902,cs),
(214,892,o),
(213,880,o),
(211,868,cs),
(208,847,o),
(210,826,o),
(206,805,cs),
(164,584,o),
(97,370,o),
(32,154,cs),
(24,127,o),
(20,97,o),
(20,70,cs),
(20,34,o),
(41,22,o),
(75,33,cs),
(90,38,o),
(107,47,o),
(122,54,cs),
(143,64,o),
(163,79,o),
(184,86,cs),
(220,99,o),
(236,90,o),
(236,50,cs),
(236,30,o),
(235,11,o),
(237,-7,cs),
(239,-27,o),
(243,-46,o),
(249,-65,cs),
(251,-70,o),
(261,-80,o),
(270,-80,cs)
);
}
);
width = 301;
},
{
layerId = "4FA42A6D-6079-488C-BBF5-0F13D00932C7";
shapes = (
{
closed = 1;
nodes = (
(431,36,o),
(434,72,o),
(430,88,cs),
(418,125,o),
(400,159,o),
(388,190,cs),
(369,241,o),
(337,263,o),
(279,267,cs),
(264,268,o),
(244,267,o),
(229,262,cs),
(207,254,o),
(193,231,o),
(170,231,c),
(169,231,o),
(162,234,o),
(157,238,cs),
(152,242,o),
(156,246,o),
(158,249,cs),
(168,264,o),
(163,273,o),
(163,291,cs),
(165,378,o),
(173,465,o),
(173,555,cs),
(174,645,o),
(168,738,o),
(167,827,cs),
(167,830,o),
(159,837,o),
(156,840,c),
(155,844,o),
(155,854,o),
(153,860,cs),
(147,876,o),
(136,893,o),
(121,895,cs),
(100,899,o),
(81,895,o),
(73,881,cs),
(64,867,o),
(67,853,o),
(68,838,cs),
(71,817,o),
(79,802,o),
(80,788,cs),
(96,618,o),
(85,454,o),
(76,287,cs),
(75,264,o),
(80,235,o),
(87,211,cs),
(102,170,o),
(138,152,o),
(179,157,cs),
(196,160,o),
(213,165,o),
(225,169,cs),
(245,175,o),
(261,183,o),
(275,185,cs),
(299,190,o),
(301,189,o),
(309,166,cs),
(314,150,o),
(318,134,o),
(326,118,cs),
(334,100,o),
(344,82,o),
(355,65,cs),
(363,54,o),
(383,40,o),
(398,38,cs)
);
}
);
width = 301;
},
{
layerId = "5563113E-3DD8-48BA-8230-66BC42B26329";
shapes = (
{
closed = 1;
nodes = (
(159,95,o),
(172,117,o),
(172,136,cs),
(172,166,o),
(166,193,o),
(166,219,cs),
(164,268,o),
(140,291,o),
(93,287,cs),
(83,285,o),
(68,283,o),
(57,276,cs),
(40,268,o),
(23,257,o),
(6,246,c),
(4,246,o),
(4,246,o),
(0,246,cs),
(-19,246,o),
(15,221,o),
(17,236,cs),
(19,251,o),
(23,268,o),
(28,283,cs),
(49,361,o),
(74,440,o),
(96,519,cs),
(117,598,o),
(136,683,o),
(155,764,c),
(159,770,o),
(149,766,o),
(149,768,cs),
(149,770,o),
(151,781,o),
(151,787,cs),
(151,791,o),
(149,811,o),
(145,825,c),
(128,830,o),
(87,823,o),
(85,796,c),
(83,789,o),
(83,783,o),
(81,776,c),
(79,757,o),
(81,747,o),
(76,736,c),
(49,583,o),
(4,438,o),
(-43,287,c),
(-47,266,o),
(-51,244,o),
(-51,223,cs),
(-51,187,o),
(-28,159,o),
(17,176,cs),
(28,180,o),
(38,187,o),
(49,191,cs),
(66,197,o),
(79,208,o),
(89,212,cs),
(98,214,o),
(98,214,o),
(98,210,cs),
(98,195,o),
(98,180,o),
(98,168,cs),
(100,153,o),
(102,131,o),
(108,117,c),
(113,112,o),
(130,95,o),
(142,95,cs)
);
}
);
width = 301;
},
{
layerId = "2CBB5782-2C08-483D-96E9-15912637AE76";
shapes = (
{
closed = 1;
nodes = (
(358,-43,o),
(361,-33,o),
(361,-24,cs),
(361,6,o),
(354,33,o),
(352,63,cs),
(349,103,o),
(313,109,o),
(258,72,cs),
(239,59,o),
(223,46,o),
(213,37,cs),
(183,8,o),
(159,-18,o),
(137,-40,cs),
(127,-51,o),
(119,-58,o),
(119,-55,c),
(103,-65,o),
(134,-59,o),
(136,-47,cs),
(140,-24,o),
(145,0,o),
(151,20,cs),
(184,128,o),
(221,236,o),
(251,338,cs),
(283,447,o),
(308,552,o),
(337,654,cs),
(338,658,o),
(329,650,o),
(329,652,cs),
(329,660,o),
(332,669,o),
(332,675,cs),
(332,686,o),
(311,704,o),
(299,688,c),
(289,682,o),
(275,673,o),
(273,669,cs),
(263,652,o),
(263,645,o),
(261,636,cs),
(258,617,o),
(260,603,o),
(256,585,cs),
(214,390,o),
(147,188,o),
(83,-12,cs),
(74,-39,o),
(70,-64,o),
(70,-84,cs),
(70,-118,o),
(116,-109,o),
(150,-81,cs),
(169,-65,o),
(183,-52,o),
(197,-37,c),
(223,-14,o),
(242,10,o),
(259,23,cs),
(286,47,o),
(286,47,o),
(286,30,cs),
(286,15,o),
(285,0,o),
(287,-14,cs),
(289,-25,o),
(292,-35,o),
(301,-51,cs),
(304,-55,o),
(331,-58,o),
(342,-51,cs)
);
}
);
width = 301;
}
);
unicode = 104;
},
{
glyphname = i;
lastChange = "2023-03-09 22:27:26 +0000";
layers = (
{
layerId = m01;
shapes = (
{
closed = 1;
nodes = (
(167,495,o),
(159,508,o),
(155,514,cs),
(146,531,o),
(133,547,o),
(125,565,cs),
(114,591,o),
(71,639,o),
(99,646,cs),
(103,647,ls),
(114,650,o),
(107,671,o),
(102,680,cs),
(97,688,o),
(88,704,o),
(74,704,cs),
(62,704,o),
(57,683,o),
(59,675,cs),
(71,631,o),
(86,588,o),
(103,544,cs),
(110,527,o),
(125,515,o),
(138,502,cs),
(144,497,o),
(154,488,o),
(161,492,cs)
);
},
{
closed = 1;
nodes = (
(26,-41,o),
(30,-26,o),
(31,-17,cs),
(44,75,o),
(57,166,o),
(71,266,cs),
(72,270,o),
(66,301,o),
(57,292,cs),
(47,282,o),
(37,273,o),
(28,263,cs),
(27,261,o),
(28,260,o),
(28,259,cs),
(28,167,o),
(14,75,o),
(10,-17,cs),
(10,-26,o),
(10,-41,o),
(18,-41,cs)
);
}
);
width = 141;
},
{
layerId = "4FA42A6D-6079-488C-BBF5-0F13D00932C7";
shapes = (
{
closed = 1;
nodes = (
(116,447,o),
(120,468,o),
(117,482,cs),
(116,492,o),
(113,500,o),
(112,506,c),
(114,519,o),
(114,528,o),
(106,528,c),
(111,530,l),
(138,534,o),
(151,560,o),
(146,579,cs),
(143,594,o),
(131,611,o),
(105,611,cs),
(83,611,o),
(58,592,o),
(53,580,cs),
(43,553,o),
(36,526,o),
(30,499,cs),
(27,479,o),
(40,467,o),
(52,454,cs),
(61,445,o),
(76,438,o),
(93,442,cs)
);
},
{
closed = 1;
nodes = (
(103,42,o),
(118,60,o),
(124,79,cs),
(144,153,o),
(163,226,o),
(183,307,c),
(194,332,o),
(163,378,o),
(128,360,cs),
(111,352,o),
(95,343,o),
(80,334,cs),
(77,332,o),
(70,312,o),
(70,311,cs),
(70,239,o),
(49,165,o),
(43,87,c),
(43,69,o),
(50,42,o),
(80,42,cs)
);
}
);
width = 141;
},
{
layerId = "5563113E-3DD8-48BA-8230-66BC42B26329";
shapes = (
{
closed = 1;
nodes = (
(121,457,o),
(113,466,o),
(105,473,cs),
(95,482,o),
(83,490,o),
(76,498,cs),
(64,513,o),
(33,533,o),
(43,533,cs),
(48,533,ls),
(66,533,o),
(62,550,o),
(53,559,c),
(47,563,o),
(36,574,o),
(16,574,cs),
(-3,574,o),
(-12,560,o),
(-9,552,cs),
(4,529,o),
(19,506,o),
(36,483,cs),
(44,473,o),
(61,466,o),
(73,460,cs),
(83,455,o),
(95,450,o),
(108,453,cs)
);
},
{
closed = 1;
nodes = (
(-8,-150,o),
(3,-122,o),
(9,-98,cs),
(47,43,o),
(86,185,o),
(128,341,cs),
(134,360,o),
(133,430,o),
(108,402,cs),
(95,388,o),
(83,376,o),
(70,360,c),
(68,360,o),
(65,345,o),
(65,344,cs),
(39,200,o),
(-1,57,o),
(-31,-89,cs),
(-36,-115,o),
(-39,-145,o),
(-23,-147,cs)
);
}
);
width = 141;
},
{
layerId = "2CBB5782-2C08-483D-96E9-15912637AE76";
shapes = (
{
closed = 1;
nodes = (
(107,438,o),
(97,445,o),
(93,449,cs),
(83,460,o),
(68,467,o),
(60,481,cs),
(49,501,o),
(-5,519,o),
(40,552,cs),
(46,556,ls),
(63,569,o),
(59,587,o),
(52,593,cs),
(46,598,o),
(37,609,o),
(15,596,cs),
(-3,586,o),
(-16,557,o),
(-14,550,cs),
(-6,510,o),
(6,473,o),
(22,438,cs),
(28,424,o),
(48,424,o),
(65,420,cs),
(73,420,o),
(85,418,o),
(97,429,cs)
);
},
{
closed = 1;
nodes = (
(97,-42,o),
(96,-23,o),
(93,-13,cs),
(73,95,o),
(52,203,o),
(30,321,cs),
(30,326,o),
(13,360,o),
(7,348,cs),
(2,334,o),
(-5,321,o),
(-9,308,cs),
(-9,305,o),
(-8,304,o),
(-8,303,cs),
(25,197,o),
(45,90,o),
(74,-17,cs),
(77,-28,o),
(82,-45,o),
(90,-43,cs)
);
}
);
width = 141;
}
);
unicode = 105;
},
{
glyphname = j;
lastChange = "2023-03-13 00:14:33 +0000";
layers = (
{
layerId = m01;
shapes = (
{
closed = 1;
nodes = (
(357,-170,o),
(307,-253,o),
(221,-317,c),
(193,-335,o),
(163,-350,o),
(134,-367,c),
(105,-383,o),
(72,-385,o),
(46,-366,c),
(16,-342,o),
(-11,-307,o),
(-37,-276,c),
(-42,-272,o),
(-39,-262,o),
(-39,-254,c),
(-32,-259,o),
(-24,-262,o),
(-21,-267,c),
(-3,-304,o),
(21,-333,o),
(63,-342,c),
(77,-345,o),
(96,-345,o),
(109,-339,c),
(211,-294,o),
(285,-225,o),
(320,-116,c),
(325,-105,o),
(328,-94,o),
(328,-84,c),
(322,-2,o),
(304,77,o),
(259,148,c),
(254,158,o),
(246,171,o),
(246,182,c),
(246,190,o),
(255,204,o),
(265,208,c),
(268,210,o),
(285,200,o),
(289,193,c),
(323,112,o),
(361,31,o),
(360,-61,c)
);
},
{
closed = 1;
nodes = (
(123,677,o),
(131,676,o),
(135,672,c),
(159,640,o),
(182,607,o),
(205,573,c),
(210,569,o),
(208,560,o),
(209,552,c),
(201,556,o),
(191,556,o),
(187,560,c),
(171,572,o),
(157,587,o),
(146,602,cs),
(123,633,o),
(112,627,o),
(98,594,c),
(90,577,o),
(82,560,o),
(72,545,c),
(67,539,o),
(59,536,o),
(54,538,c),
(50,540,o),
(44,550,o),
(45,554,c),
(63,596,o),
(82,634,o),
(101,675,c),
(102,677,o),
(110,678,o),
(117,679,c)
);
}
);
width = 380;
},
{
layerId = "4FA42A6D-6079-488C-BBF5-0F13D00932C7";
shapes = (
{
closed = 1;
nodes = (
(416,62,o),
(393,-11,o),
(344,-73,c),
(327,-92,o),
(308,-107,o),
(292,-124,cs),
(272,-142,o),
(245,-150,o),
(220,-137,cs),
(195,-123,o),
(171,-100,o),
(148,-82,c),
(136,-74,o),
(145,-54,o),
(135,-39,c),
(152,-51,o),
(164,-50,o),
(172,-58,c),
(189,-82,o),
(207,-97,o),
(233,-98,cs),
(242,-98,o),
(252,-96,o),
(258,-91,cs),
(318,-44,o),
(355,14,o),
(362,98,cs),
(363,108,o),
(364,114,o),
(362,121,cs),
(346,180,o),
(321,234,o),
(280,279,c),
(276,286,o),
(267,296,o),
(264,307,cs),
(261,322,o),
(275,352,o),
(296,339,c),
(301,337,o),
(306,334,o),
(310,330,cs),
(346,274,o),
(386,217,o),
(400,146,cs)
);
},
{
closed = 1;
nodes = (
(110,667,o),
(121,672,o),
(130,662,cs),
(155,624,o),
(180,586,o),
(204,548,c),
(213,537,o),
(212,510,o),
(218,494,c),
(203,511,o),
(188,506,o),
(180,515,cs),
(166,528,o),
(151,546,o),
(140,563,cs),
(128,581,o),
(128,581,o),
(127,551,cs),
(127,529,o),
(125,506,o),
(122,487,cs),
(120,468,o),
(105,460,o),
(94,470,cs),
(88,476,o),
(82,488,o),
(81,494,cs),
(83,550,o),
(86,600,o),
(88,654,cs),
(89,665,o),
(104,667,o),
(105,672,c)
);
}
);
width = 380;
},
{
layerId = "5563113E-3DD8-48BA-8230-66BC42B26329";
shapes = (
{
closed = 1;
nodes = (
(357,-111,o),
(299,-176,o),
(222,-217,c),
(170,-241,o),
(170,-238,o),
(135,-253,cs),
(98,-267,o),
(84,-270,o),
(47,-251,cs),
(27,-240,o),
(-12,-204,o),
(-38,-182,c),
(-40,-170,o),
(-38,-147,o),
(-38,-120,c),
(-44,-118,o),
(-8,-142,o),
(-22,-136,c),
(-14,-150,o),
(5,-171,o),
(64,-180,cs),
(76,-182,o),
(102,-182,o),
(110,-179,cs),
(228,-142,o),
(302,-92,o),
(325,-28,c),
(327,-27,o),
(328,-26,o),
(329,-27,c),
(324,20,o),
(317,50,o),
(269,106,c),
(263,117,o),
(247,150,o),
(247,159,cs),
(247,164,o),
(270,206,o),
(266,205,c),
(270,206,o),
(277,199,o),
(284,192,c),
(309,147,o),
(362,76,o),
(361,-13,cs)
);
},
{
closed = 1;
nodes = (
(141,741,o),
(144,740,o),
(146,739,c),
(158,728,o),
(197,690,o),
(228,657,c),
(230,646,o),
(229,632,o),
(236,596,c),
(229,599,o),
(213,602,o),
(207,605,cs),
(196,612,o),
(190,617,o),
(166,640,cs),
(146,658,o),
(118,645,o),
(117,638,c),
(109,625,o),
(92,600,o),
(81,590,c),
(81,587,o),
(78,587,o),
(74,588,cs),
(66,590,o),
(62,638,o),
(69,649,cs),
(101,702,o),
(104,701,o),
(128,739,c),
(130,741,o),
(133,742,o),
(135,743,c)
);
}
);
width = 380;
},
{
layerId = "2CBB5782-2C08-483D-96E9-15912637AE76";
shapes = (
{
closed = 1;
nodes = (
(176,-27,o),
(146,-99,o),
(95,-138,c),
(78,-148,o),
(62,-155,o),
(46,-163,cs),
(24,-173,o),
(-5,-162,o),
(-26,-122,cs),
(-44,-89,o),
(-60,-44,o),
(-74,-6,c),
(-83,13,o),
(-71,27,o),
(-77,69,c),
(-51,19,o),
(-43,14,o),
(-38,-2,cs),
(-28,-43,o),
(-18,-71,o),
(0,-88,cs),
(6,-93,o),
(9,-94,o),
(12,-93,cs),
(68,-79,o),
(106,-35,o),
(125,61,c),
(128,71,o),
(130,79,o),
(130,87,cs),
(126,170,o),
(116,251,o),
(92,334,cs),
(89,345,o),
(83,364,o),
(83,378,cs),
(83,392,o),
(91,407,o),
(101,408,c),
(115,411,o),
(132,382,o),
(137,366,c),
(156,274,o),
(178,180,o),
(178,85,cs)
);
},
{
closed = 1;
nodes = (
(75,644,o),
(88,630,o),
(91,622,cs),
(103,584,o),
(116,545,o),
(129,504,c),
(137,487,o),
(130,470,o),
(133,436,c),
(109,472,o),
(98,483,o),
(93,493,cs),
(84,510,o),
(75,532,o),
(69,551,cs),
(34,652,o),
(108,677,o),
(70,544,cs),
(65,529,o),
(61,513,o),
(55,500,c),
(47,489,o),
(33,490,o),
(22,505,cs),
(16,512,o),
(9,534,o),
(11,543,cs),
(21,580,o),
(32,612,o),
(43,646,c),
(45,658,o),
(58,654,o),
(70,650,c)
);
}
);
width = 380;
}
);
unicode = 106;
},
{
glyphname = k;
lastChange = "2023-03-13 00:15:13 +0000";
layers = (
{
layerId = m01;
shapes = (
{
closed = 1;
nodes = (
(147,395,o),
(125,218,o),
(73,45,c),
(70,39,o),
(46,16,o),
(81,16,c),
(81,16,o),
(84,6,o),
(82,4,c),
(69,-24,o),
(56,-52,o),
(41,-77,c),
(36,-85,o),
(23,-87,o),
(15,-91,c),
(12,-81,o),
(8,-70,o),
(11,-61,c),
(53,69,o),
(92,199,o),
(106,335,c),
(115,433,o),
(113,530,o),
(118,628,c),
(118,632,o),
(119,639,o),
(115,641,c),
(75,673,o),
(104,716,o),
(94,752,c),
(93,757,o),
(103,767,o),
(109,769,c),
(111,770,o),
(121,765,o),
(125,758,c),
(129,752,o),
(134,743,o),
(135,735,c),
(141,682,o),
(148,630,o),
(154,576,c)
);
},
{
closed = 1;
nodes = (
(323,314,o),
(331,302,o),
(322,284,c),
(314,272,o),
(305,261,o),
(294,251,c),
(287,245,o),
(278,243,o),
(269,240,c),
(270,246,o),
(275,254,o),
(273,261,c),
(273,265,o),
(264,273,o),
(261,272,c),
(218,255,o),
(180,228,o),
(150,190,c),
(146,185,o),
(149,163,o),
(155,160,c),
(183,143,o),
(211,126,o),
(241,115,c),
(316,90,o),
(393,69,o),
(468,45,c),
(475,44,o),
(482,43,o),
(488,40,c),
(494,35,o),
(495,30,o),
(497,25,c),
(493,24,o),
(487,20,o),
(484,21,c),
(458,28,o),
(434,33,o),
(410,40,c),
(342,58,o),
(276,75,o),
(209,93,c),
(189,99,o),
(167,107,o),
(148,118,c),
(117,136,o),
(106,174,o),
(126,204,c),
(168,264,o),
(229,301,o),
(300,314,c)
);
}
);
width = 487;
},
{
layerId = "4FA42A6D-6079-488C-BBF5-0F13D00932C7";
shapes = (
{
closed = 1;
nodes = (
(135,444,o),
(151,296,o),
(135,149,c),
(130,140,o),
(131,140,o),
(146,142,c),
(150,139,o),
(156,115,o),
(151,117,c),
(144,92,o),
(138,69,o),
(129,50,cs),
(123,35,o),
(114,34,o),
(109,31,c),
(102,41,o),
(94,50,o),
(96,63,cs),
(111,171,o),
(122,278,o),
(107,385,cs),
(96,459,o),
(74,533,o),
(59,612,c),
(57,616,o),
(58,616,o),
(52,616,c),
(3,637,o),
(21,678,o),
(11,700,c),
(2,705,o),
(16,739,o),
(22,734,c),
(27,738,o),
(30,733,o),
(38,727,cs),
(41,724,o),
(47,720,o),
(52,706,cs),
(67,670,o),
(85,631,o),
(103,588,c)
);
},
{
closed = 1;
nodes = (
(357,416,o),
(371,396,o),
(357,376,cs),
(346,363,o),
(338,356,o),
(328,348,c),
(315,342,o),
(308,341,o),
(299,340,c),
(301,349,o),
(306,366,o),
(307,363,c),
(304,362,o),
(299,366,o),
(296,365,cs),
(249,353,o),
(209,332,o),
(181,307,cs),
(176,303,o),
(176,303,o),
(184,300,c),
(211,285,o),
(235,272,o),
(268,261,cs),
(338,238,o),
(414,219,o),
(491,196,c),
(499,195,o),
(501,194,o),
(510,190,c),
(517,185,o),
(518,168,o),
(521,160,c),
(512,159,o),
(510,155,o),
(505,156,cs),
(482,163,o),
(458,167,o),
(432,175,cs),
(367,191,o),
(302,208,o),
(234,225,cs),
(218,230,o),
(196,237,o),
(175,248,cs),
(147,263,o),
(134,307,o),
(157,334,c),
(207,385,o),
(265,410,o),
(337,417,c)
);
}
);
width = 487;
},
{
layerId = "5563113E-3DD8-48BA-8230-66BC42B26329";
shapes = (
{
closed = 1;
nodes = (
(222,423,o),
(200,271,o),
(149,123,c),
(145,117,o),
(122,98,o),
(156,98,c),
(156,98,o),
(160,89,o),
(157,87,c),
(144,63,o),
(132,39,o),
(117,18,c),
(112,11,o),
(99,9,o),
(91,6,c),
(88,15,o),
(84,24,o),
(87,32,c),
(129,143,o),
(168,255,o),
(181,371,c),
(191,455,o),
(188,538,o),
(193,622,c),
(193,626,o),
(194,632,o),
(191,633,c),
(150,661,o),
(180,698,o),
(169,728,c),
(168,733,o),
(179,741,o),
(185,743,c),
(186,744,o),
(197,740,o),
(200,734,c),
(204,728,o),
(210,721,o),
(210,714,c),
(216,668,o),
(223,624,o),
(229,578,c)
);
},
{
closed = 1;
nodes = (
(395,425,o),
(402,412,o),
(394,393,c),
(386,379,o),
(378,367,o),
(367,356,c),
(360,350,o),
(352,347,o),
(343,344,c),
(344,351,o),
(349,359,o),
(348,367,c),
(348,371,o),
(339,381,o),
(336,379,c),
(295,360,o),
(258,331,o),
(230,289,c),
(226,283,o),
(229,259,o),
(234,255,c),
(262,237,o),
(288,218,o),
(317,206,c),
(388,178,o),
(462,155,o),
(533,129,c),
(540,128,o),
(546,127,o),
(552,123,c),
(558,117,o),
(558,112,o),
(561,106,c),
(557,105,o),
(552,101,o),
(548,102,c),
(523,110,o),
(501,116,o),
(478,123,c),
(413,143,o),
(350,162,o),
(287,182,c),
(267,189,o),
(246,197,o),
(228,209,c),
(198,229,o),
(188,271,o),
(207,304,c),
(247,370,o),
(306,411,o),
(373,425,c)
);
}
);
width = 487;
},
{
layerId = "2CBB5782-2C08-483D-96E9-15912637AE76";
shapes = (
{
closed = 1;
nodes = (
(94,248,o),
(80,69,o),
(44,-105,cs),
(43,-109,o),
(43,-111,o),
(47,-114,c),
(48,-120,o),
(54,-138,o),
(50,-148,cs),
(41,-176,o),
(32,-204,o),
(22,-229,cs),
(19,-237,o),
(0,-249,o),
(-17,-263,c),
(-21,-250,o),
(-31,-223,o),
(-27,-204,cs),
(1,-74,o),
(27,55,o),
(37,190,cs),
(43,287,o),
(42,384,o),
(45,482,cs),
(45,484,o),
(45,485,o),
(45,486,c),
(14,526,o),
(34,573,o),
(29,603,cs),
(27,615,o),
(37,632,o),
(47,637,cs),
(59,644,o),
(73,631,o),
(79,618,c),
(81,611,o),
(86,600,o),
(86,590,cs),
(90,537,o),
(95,485,o),
(99,430,c)
);
},
{
closed = 1;
nodes = (
(205,185,o),
(222,165,o),
(211,132,c),
(205,119,o),
(198,106,o),
(190,95,cs),
(180,81,o),
(165,81,o),
(147,69,c),
(144,91,o),
(150,111,o),
(149,113,c),
(153,113,o),
(164,113,o),
(163,112,c),
(136,96,o),
(114,72,o),
(95,37,c),
(93,30,o),
(100,23,o),
(94,27,c),
(113,9,o),
(131,-6,o),
(150,-17,cs),
(198,-41,o),
(250,-62,o),
(301,-86,c),
(307,-87,o),
(313,-89,o),
(319,-94,c),
(329,-105,o),
(330,-122,o),
(332,-130,c),
(322,-131,o),
(314,-146,o),
(300,-140,cs),
(284,-133,o),
(268,-128,o),
(251,-121,cs),
(206,-103,o),
(161,-86,o),
(115,-68,cs),
(102,-62,o),
(85,-53,o),
(70,-40,cs),
(44,-18,o),
(36,29,o),
(51,65,c),
(83,130,o),
(128,170,o),
(180,184,c)
);
}
);
width = 487;
}
);
unicode = 107;
},
{
glyphname = l;
lastChange = "2023-03-09 22:29:15 +0000";
layers = (
{
layerId = m01;
shapes = (
{
closed = 1;
nodes = (
(108,-138,o),
(119,-139,o),
(119,-132,cs),
(119,-126,o),
(112,-123,o),
(108,-118,cs),
(94,-100,o),
(70,-87,o),
(65,-68,cs),
(54,-25,o),
(48,20,o),
(50,66,cs),
(56,177,o),
(67,289,o),
(77,400,cs),
(81,449,o),
(86,500,o),
(89,549,cs),
(92,615,o),
(95,680,o),
(95,747,cs),
(95,757,o),
(92,780,o),
(80,780,cs),
(67,780,o),
(62,758,o),
(61,747,cs),
(57,712,o),
(60,678,o),
(60,651,cs),
(60,595,o),
(52,547,o),
(50,498,cs),
(45,390,o),
(39,281,o),
(34,172,cs),
(32,142,o),
(26,111,o),
(23,78,cs),
(17,25,o),
(17,-29,o),
(37,-80,cs),
(49,-110,o),
(69,-138,o),
(103,-138,cs)
);
}
);
width = 129;
},
{
layerId = "4FA42A6D-6079-488C-BBF5-0F13D00932C7";
shapes = (
{
closed = 1;
nodes = (
(235,-66,o),
(251,-67,o),
(249,-60,cs),
(247,-54,o),
(237,-51,o),
(230,-46,cs),
(206,-28,o),
(170,-15,o),
(158,4,cs),
(132,47,o),
(112,92,o),
(102,138,cs),
(81,249,o),
(67,361,o),
(52,472,cs),
(44,521,o),
(38,572,o),
(29,621,cs),
(16,687,o),
(3,752,o),
(-15,819,cs),
(-17,829,o),
(-28,852,o),
(-44,852,cs),
(-62,852,o),
(-63,830,o),
(-61,819,cs),
(-58,784,o),
(-45,750,o),
(-38,723,cs),
(-23,667,o),
(-21,619,o),
(-11,570,cs),
(10,462,o),
(31,353,o),
(52,244,cs),
(58,214,o),
(58,183,o),
(62,150,cs),
(68,97,o),
(82,43,o),
(123,-8,cs),
(147,-38,o),
(182,-66,o),
(228,-66,cs)
);
}
);
width = 129;
},
{
layerId = "5563113E-3DD8-48BA-8230-66BC42B26329";
shapes = (
{
closed = 1;
nodes = (
(63,-27,o),
(75,-28,o),
(77,-14,cs),
(78,-9,o),
(68,4,o),
(66,7,cs),
(53,24,o),
(33,35,o),
(31,44,cs),
(25,76,o),
(24,107,o),
(31,138,cs),
(50,216,o),
(73,295,o),
(96,372,cs),
(105,407,o),
(116,443,o),
(124,478,cs),
(135,525,o),
(145,571,o),
(153,620,cs),
(155,634,o),
(152,655,o),
(134,658,cs),
(115,661,o),
(104,642,o),
(100,630,cs),
(92,603,o),
(91,578,o),
(88,559,cs),
(82,520,o),
(69,488,o),
(61,452,cs),
(44,376,o),
(25,299,o),
(8,221,cs),
(3,201,o),
(-6,181,o),
(-13,157,cs),
(-26,118,o),
(-32,76,o),
(-17,34,cs),
(-8,8,o),
(11,-19,o),
(49,-25,cs)
);
}
);
width = 129;
},
{
layerId = "2CBB5782-2C08-483D-96E9-15912637AE76";
shapes = (
{
closed = 1;
nodes = (
(215,-35,o),
(239,-32,o),
(239,-26,cs),
(238,-21,o),
(221,-21,o),
(212,-18,cs),
(178,-7,o),
(123,-5,o),
(108,10,cs),
(78,43,o),
(58,79,o),
(57,119,cs),
(55,216,o),
(65,316,o),
(72,414,cs),
(75,458,o),
(79,503,o),
(79,546,cs),
(77,604,o),
(74,661,o),
(65,718,cs),
(64,727,o),
(55,746,o),
(27,741,cs),
(-2,737,o),
(-11,716,o),
(-11,706,cs),
(-15,675,o),
(-4,646,o),
(0,624,cs),
(8,575,o),
(-4,532,o),
(-2,489,cs),
(2,395,o),
(3,299,o),
(7,204,cs),
(6,178,o),
(-4,149,o),
(-5,120,cs),
(-12,72,o),
(-5,25,o),
(47,-11,cs),
(78,-32,o),
(127,-49,o),
(204,-37,cs)
);
}
);
width = 129;
}
);
unicode = 108;
},
{
glyphname = m;
lastChange = "2023-03-13 00:20:15 +0000";
layers = (
{
layerId = m01;
shapes = (
{
closed = 1;
nodes = (
(469,2,o),
(443,25,o),
(434,67,c),
(429,85,o),
(428,103,o),
(422,120,c),
(414,149,o),
(405,154,o),
(378,141,c),
(347,126,o),
(318,107,o),
(286,93,c),
(238,69,o),
(213,77,o),
(192,127,c),
(183,146,o),
(172,140,o),
(164,133,c),
(131,111,o),
(99,85,o),
(66,60,c),
(61,56,o),
(54,48,o),
(47,45,c),
(39,44,o),
(29,45,o),
(23,50,c),
(20,53,o),
(19,62,o),
(20,69,c),
(32,117,o),
(42,166,o),
(53,215,c),
(54,220,o),
(54,228,o),
(56,232,c),
(63,241,o),
(72,246,o),
(79,252,c),
(82,243,o),
(90,232,o),
(89,222,c),
(84,189,o),
(78,155,o),
(73,122,c),
(72,117,o),
(74,113,o),
(75,109,c),
(79,112,o),
(83,113,o),
(88,115,c),
(111,141,o),
(139,161,o),
(176,169,c),
(196,173,o),
(207,169,o),
(218,151,c),
(239,111,o),
(240,111,o),
(284,130,c),
(310,142,o),
(336,157,o),
(362,170,c),
(410,194,o),
(438,182,o),
(452,130,c),
(458,109,o),
(462,87,o),
(469,67,c),
(475,48,o),
(481,29,o),
(507,26,c),
(515,25,o),
(523,17,o),
(531,13,c),
(522,8,o),
(513,3,o),
(509,2,c)
);
}
);
width = 521;
},
{
layerId = "4FA42A6D-6079-488C-BBF5-0F13D00932C7";
shapes = (
{
closed = 1;
nodes = (
(509,169,o),
(475,200,o),
(452,254,cs),
(440,279,o),
(431,302,o),
(422,321,cs),
(409,348,o),
(409,348,o),
(405,340,cs),
(395,315,o),
(388,289,o),
(371,260,c),
(352,214,o),
(316,226,o),
(283,285,c),
(281,290,o),
(285,302,o),
(283,289,c),
(274,255,o),
(266,214,o),
(256,174,cs),
(255,168,o),
(256,162,o),
(252,153,cs),
(249,146,o),
(217,146,o),
(214,156,c),
(210,164,o),
(207,172,o),
(206,176,cs),
(192,244,o),
(177,310,o),
(163,375,cs),
(161,385,o),
(158,394,o),
(157,397,c),
(157,416,o),
(156,431,o),
(165,459,c),
(187,445,o),
(196,407,o),
(201,390,cs),
(212,344,o),
(224,299,o),
(234,256,c),
(234,256,o),
(234,256,o),
(228,272,c),
(228,271,o),
(228,270,o),
(227,269,c),
(231,297,o),
(238,319,o),
(258,337,cs),
(271,350,o),
(294,340,o),
(306,322,cs),
(327,289,o),
(327,289,o),
(337,308,cs),
(345,325,o),
(354,350,o),
(365,375,cs),
(387,422,o),
(424,402,o),
(454,340,cs),
(468,311,o),
(480,282,o),
(491,261,cs),
(504,233,o),
(513,213,o),
(520,214,c),
(524,216,o),
(547,201,o),
(550,199,c),
(547,191,o),
(547,189,o),
(541,185,c)
);
}
);
width = 521;
},
{
layerId = "5563113E-3DD8-48BA-8230-66BC42B26329";
shapes = (
{
closed = 1;
nodes = (
(330,144,o),
(316,167,o),
(299,206,cs),
(280,245,o),
(297,220,o),
(273,262,c),
(272,272,o),
(248,287,o),
(235,272,cs),
(214,248,o),
(186,205,o),
(179,203,c),
(146,165,o),
(145,167,o),
(106,229,cs),
(99,240,o),
(91,236,o),
(87,233,c),
(51,177,o),
(53,172,o),
(28,128,cs),
(24,121,o),
(22,116,o),
(14,106,c),
(14,110,o),
(12,112,o),
(8,115,c),
(8,121,o),
(-5,158,o),
(-1,148,c),
(-5,202,o),
(-12,262,o),
(-18,328,cs),
(-18,330,o),
(-18,331,o),
(-18,332,cs),
(-16,342,o),
(-9,357,o),
(-7,363,c),
(-4,357,o),
(6,335,o),
(8,326,cs),
(12,296,o),
(18,260,o),
(23,222,c),
(22,210,o),
(26,223,o),
(28,219,c),
(40,243,o),
(33,229,o),
(41,240,c),
(54,274,o),
(69,299,o),
(84,309,cs),
(109,323,o),
(101,313,o),
(118,290,cs),
(135,266,o),
(154,266,o),
(171,284,cs),
(214,328,o),
(190,307,o),
(216,336,cs),
(255,382,o),
(258,374,o),
(290,306,cs),
(304,277,o),
(300,283,o),
(319,247,cs),
(325,236,o),
(326,225,o),
(357,228,cs),
(355,228,o),
(371,217,o),
(404,209,c),
(377,177,o),
(367,153,o),
(356,144,c)
);
}
);
width = 521;
},
{
layerId = "2CBB5782-2C08-483D-96E9-15912637AE76";
shapes = (
{
closed = 1;
nodes = (
(406,-136,o),
(379,-109,o),
(383,-59,cs),
(385,-40,o),
(389,-23,o),
(388,-8,cs),
(389,14,o),
(389,14,o),
(361,4,cs),
(320,-11,o),
(280,-30,o),
(238,-44,cs),
(166,-71,o),
(132,-61,o),
(125,-3,cs),
(123,4,o),
(123,3,o),
(112,-3,c),
(67,-25,o),
(21,-50,o),
(-25,-75,cs),
(-32,-79,o),
(-46,-89,o),
(-59,-93,c),
(-75,-95,o),
(-88,-92,o),
(-96,-85,cs),
(-102,-79,o),
(-101,-64,o),
(-93,-49,c),
(-62,-1,o),
(-33,48,o),
(-3,97,cs),
(0,103,o),
(4,113,o),
(10,119,cs),
(33,138,o),
(55,142,o),
(70,155,c),
(63,136,o),
(78,120,o),
(68,98,cs),
(51,64,o),
(32,30,o),
(14,-3,c),
(14,-3,o),
(14,-3,o),
(16,11,cs),
(16,10,o),
(16,10,o),
(16,10,c),
(52,35,o),
(93,55,o),
(139,63,cs),
(169,68,o),
(186,62,o),
(194,38,cs),
(202,8,o),
(201,8,o),
(247,23,cs),
(282,35,o),
(317,50,o),
(352,63,cs),
(425,90,o),
(461,75,o),
(458,13,cs),
(458,-8,o),
(455,-30,o),
(456,-49,cs),
(457,-68,o),
(457,-78,o),
(477,-80,cs),
(496,-82,o),
(502,-102,o),
(532,-109,c),
(499,-121,o),
(470,-135,o),
(459,-136,c)
);
}
);
width = 521;
}
);
unicode = 109;
},
{
glyphname = n;
lastChange = "2023-03-13 00:21:10 +0000";
layers = (
{
layerId = m01;
shapes = (
{
closed = 1;
nodes = (
(316,96,o),
(312,89,o),
(308,84,c),
(302,88,o),
(292,93,o),
(290,99,c),
(283,124,o),
(279,149,o),
(272,173,c),
(258,218,o),
(243,227,o),
(202,201,c),
(164,178,o),
(131,148,o),
(96,120,c),
(78,107,o),
(61,93,o),
(42,84,c),
(19,72,o),
(5,85,o),
(11,109,c),
(19,158,o),
(31,206,o),
(43,255,c),
(44,261,o),
(45,269,o),
(51,271,c),
(58,275,o),
(67,278,o),
(74,281,c),
(77,273,o),
(82,264,o),
(81,256,c),
(74,220,o),
(67,186,o),
(59,150,c),
(58,145,o),
(59,140,o),
(59,133,c),
(65,135,o),
(71,139,o),
(74,142,c),
(92,158,o),
(110,176,o),
(129,190,c),
(156,208,o),
(184,227,o),
(214,242,c),
(245,258,o),
(272,249,o),
(285,216,c),
(301,180,o),
(309,143,o),
(321,105,c)
);
}
);
width = 331;
},
{
layerId = "4FA42A6D-6079-488C-BBF5-0F13D00932C7";
shapes = (
{
closed = 1;
nodes = (
(293,-17,o),
(288,-29,o),
(280,-45,c),
(275,-29,o),
(263,-16,o),
(264,-8,cs),
(265,22,o),
(268,51,o),
(269,78,cs),
(271,127,o),
(271,127,o),
(258,111,cs),
(239,88,o),
(219,55,o),
(195,19,cs),
(186,7,o),
(179,-6,o),
(162,-21,c),
(155,-30,o),
(124,-37,o),
(135,10,cs),
(148,66,o),
(162,120,o),
(176,179,cs),
(178,187,o),
(177,190,o),
(182,194,c),
(184,198,o),
(200,209,o),
(213,225,c),
(214,207,o),
(216,191,o),
(214,178,c),
(203,137,o),
(194,98,o),
(185,56,c),
(183,53,o),
(183,49,o),
(183,45,c),
(158,25,o),
(169,41,o),
(171,46,cs),
(181,62,o),
(193,83,o),
(206,101,cs),
(221,119,o),
(234,139,o),
(256,160,cs),
(280,184,o),
(301,162,o),
(301,127,cs),
(303,84,o),
(300,40,o),
(299,-4,c)
);
}
);
width = 331;
},
{
layerId = "5563113E-3DD8-48BA-8230-66BC42B26329";
shapes = (
{
closed = 1;
nodes = (
(199,160,o),
(199,147,o),
(195,127,c),
(188,136,o),
(171,159,o),
(168,166,cs),
(160,197,o),
(152,229,o),
(142,261,cs),
(129,305,o),
(126,308,o),
(111,280,cs),
(86,229,o),
(77,196,o),
(60,154,cs),
(53,136,o),
(45,117,o),
(41,111,cs),
(12,65,o),
(2,127,o),
(0,160,cs),
(-5,226,o),
(-8,290,o),
(-11,354,cs),
(-11,363,o),
(-14,401,o),
(-7,395,c),
(5,416,o),
(12,424,o),
(10,418,c),
(17,396,o),
(27,367,o),
(28,355,cs),
(32,305,o),
(35,258,o),
(37,212,c),
(37,212,o),
(37,212,o),
(35,229,c),
(30,219,o),
(30,219,o),
(30,219,c),
(40,249,o),
(47,276,o),
(53,290,cs),
(69,325,o),
(83,354,o),
(92,369,cs),
(119,411,o),
(135,387,o),
(156,330,cs),
(173,284,o),
(185,232,o),
(202,180,c)
);
}
);
width = 331;
},
{
layerId = "2CBB5782-2C08-483D-96E9-15912637AE76";
shapes = (
{
closed = 1;
nodes = (
(330,133,o),
(320,123,o),
(309,119,c),
(310,123,o),
(286,136,o),
(284,149,cs),
(281,176,o),
(282,201,o),
(279,226,cs),
(272,270,o),
(264,276,o),
(215,263,cs),
(168,250,o),
(124,229,o),
(76,210,cs),
(53,202,o),
(30,192,o),
(4,187,cs),
(-32,180,o),
(-53,204,o),
(-38,233,c),
(-18,278,o),
(6,322,o),
(30,367,cs),
(33,375,o),
(39,384,o),
(50,386,cs),
(63,389,o),
(82,389,o),
(88,392,c),
(89,380,o),
(99,364,o),
(92,351,cs),
(77,318,o),
(62,286,o),
(45,253,c),
(45,253,o),
(45,252,o),
(44,252,c),
(45,252,o),
(46,253,o),
(46,253,c),
(71,264,o),
(96,278,o),
(123,287,cs),
(158,298,o),
(194,310,o),
(234,317,cs),
(277,326,o),
(313,307,o),
(322,267,cs),
(334,226,o),
(336,186,o),
(342,145,c)
);
}
);
width = 331;
}
);
unicode = 110;
},
